M48
METRIC,LZ,000.000
;FILE_FORMAT=3:3
;TYPE=PLATED
;Layer: PTH_Through
;EasyEDA v6.5.38, 2023-12-09 00:29:23
;cc5c81a3f0414725bc0bd174f0517b54,,10
;Gerber Generator version 0.2
;Holesize 1 = 0.310 mm
T01C0.310
;Holesize 2 = 0.661 mm
T02C0.661
;Holesize 3 = 0.798 mm
T03C0.798
;Holesize 4 = 0.800 mm
T04C0.800
;Holesize 5 = 0.889 mm
T05C0.889
;Holesize 6 = 0.900 mm
T06C0.900
;Holesize 7 = 0.915 mm
T07C0.915
;Holesize 8 = 1.001 mm
T08C1.001
;Holesize 9 = 1.301 mm
T09C1.301
;Holesize 10 = 4.000 mm
T10C4.000
%
G05
G90
T01
X039771Y030968
T02
X003048Y027940
X003048Y025400
X003048Y022860
X003048Y020320
X003048Y017780
X003048Y015240
X003048Y012700
X003048Y010160
T03
X061722Y022047
X061722Y020041
X061722Y018034
X061722Y016053
X061722Y046304
X061722Y044298
X061722Y042291
X061722Y040310
T04
X054232Y011430G85X054226Y011430
X041532Y029210G85X041526Y029210
X054232Y013970G85X054226Y013970
X041532Y026670G85X041526Y026670
X054232Y016510G85X054226Y016510
X041532Y024130G85X041526Y024130
X054232Y019050G85X054226Y019050
X041532Y021590G85X041526Y021590
X054232Y021590G85X054226Y021590
X041532Y019050G85X041526Y019050
X054232Y024130G85X054226Y024130
X041532Y016510G85X041526Y016510
X054232Y026670G85X054226Y026670
X041532Y013970G85X041526Y013970
X054232Y029210G85X054226Y029210
X041532Y011430G85X041526Y011430
X054232Y032893G85X054226Y032893
X041532Y050673G85X041526Y050673
X054232Y035433G85X054226Y035433
X041532Y048133G85X041526Y048133
X054232Y037973G85X054226Y037973
X041532Y045593G85X041526Y045593
X054232Y040513G85X054226Y040513
X041532Y043053G85X041526Y043053
X054232Y043053G85X054226Y043053
X041532Y040513G85X041526Y040513
X054232Y045593G85X054226Y045593
X041532Y037973G85X041526Y037973
X054232Y048133G85X054226Y048133
X041532Y035433G85X041526Y035433
X054232Y050673G85X054226Y050673
X041532Y032893G85X041526Y032893
T05
X046228Y019812
X046228Y022352
X046228Y024892
X046609Y040259
X046609Y042799
X046609Y045339
X049149Y040259
X049149Y042799
X049149Y045339
X048768Y024892
X048768Y022352
X048768Y019812
X027305Y016510
X029845Y016510
X016510Y052451
X013970Y052451
X011430Y052451
T06
X044387Y002540
X052007Y002540
X044387Y005842
X052007Y005842
T07
X034544Y002794
X032004Y002794
X029464Y002794
X026924Y002794
X024384Y002794
X021844Y002794
X020701Y048749
X020701Y046209
X020701Y043669
X020701Y041129
X020701Y038589
X020701Y036049
X020701Y033509
X020701Y030969
X020701Y028429
X020701Y025889
X020701Y023349
X020701Y020809
X020701Y018269
X020701Y015729
X020701Y013189
X035941Y048749
X035941Y046209
X035941Y043669
X035941Y041129
X035941Y038589
X035941Y036049
X035941Y033509
X035941Y030969
X035941Y028429
X035941Y025889
X035941Y023349
X035941Y020809
X035941Y018269
X035941Y015729
X035941Y013189
T08
X028575Y035306
X028575Y045466
X028575Y021717
X028575Y031877
T09
X012192Y042545
X012192Y047625
T10
X013125Y034925
X005925Y034925
M30
