G04 Layer: BottomSilkscreenLayer*
G04 EasyEDA v6.5.38, 2023-12-09 00:29:23*
G04 cc5c81a3f0414725bc0bd174f0517b54,10*
G04 Gerber Generator version 0.2*
G04 Scale: 100 percent, Rotated: No, Reflected: No *
G04 Dimensions in millimeters *
G04 leading zeros omitted , absolute positions ,4 integer and 5 decimal *
%FSLAX45Y45*%
%MOMM*%

%ADD10C,0.2032*%

%LPD*%
D10*
X1168862Y2690091D02*
G01*
X1150388Y2708564D01*
X1141153Y2736273D01*
X1141153Y2773217D01*
X1150388Y2800926D01*
X1168862Y2819400D01*
X1187335Y2819400D01*
X1205806Y2810164D01*
X1215044Y2800926D01*
X1224279Y2782455D01*
X1242753Y2727035D01*
X1251988Y2708564D01*
X1261224Y2699326D01*
X1279697Y2690091D01*
X1307406Y2690091D01*
X1325879Y2708564D01*
X1335115Y2736273D01*
X1335115Y2773217D01*
X1325879Y2800926D01*
X1307406Y2819400D01*
X1141153Y2629131D02*
G01*
X1335115Y2629131D01*
X1141153Y2629131D02*
G01*
X1141153Y2509057D01*
X1233515Y2629131D02*
G01*
X1233515Y2555239D01*
X1335115Y2629131D02*
G01*
X1335115Y2509057D01*
X1141153Y2448097D02*
G01*
X1335115Y2448097D01*
X1335115Y2448097D02*
G01*
X1335115Y2337262D01*
X1141153Y2276302D02*
G01*
X1335115Y2276302D01*
X1141153Y2276302D02*
G01*
X1141153Y2156228D01*
X1233515Y2276302D02*
G01*
X1233515Y2202411D01*
X1141153Y1953028D02*
G01*
X1335115Y1953028D01*
X1141153Y1953028D02*
G01*
X1141153Y1869902D01*
X1150388Y1842193D01*
X1159624Y1832955D01*
X1178097Y1823720D01*
X1196571Y1823720D01*
X1215044Y1832955D01*
X1224279Y1842193D01*
X1233515Y1869902D01*
X1233515Y1953028D02*
G01*
X1233515Y1869902D01*
X1242753Y1842193D01*
X1251988Y1832955D01*
X1270462Y1823720D01*
X1298171Y1823720D01*
X1316644Y1832955D01*
X1325879Y1842193D01*
X1335115Y1869902D01*
X1335115Y1953028D01*
X1141153Y1688868D02*
G01*
X1335115Y1762760D01*
X1141153Y1688868D02*
G01*
X1335115Y1614977D01*
X1270462Y1735051D02*
G01*
X1270462Y1642686D01*
X1141153Y1554017D02*
G01*
X1335115Y1554017D01*
X1335115Y1554017D02*
G01*
X1335115Y1443182D01*
X1141153Y1308331D02*
G01*
X1335115Y1382222D01*
X1141153Y1308331D02*
G01*
X1335115Y1234439D01*
X1270462Y1354513D02*
G01*
X1270462Y1262148D01*
X1141153Y1173479D02*
G01*
X1335115Y1173479D01*
X1141153Y1173479D02*
G01*
X1335115Y1044171D01*
X1141153Y1044171D02*
G01*
X1335115Y1044171D01*
X1187335Y844664D02*
G01*
X1168862Y853902D01*
X1150388Y872375D01*
X1141153Y890846D01*
X1141153Y927793D01*
X1150388Y946264D01*
X1168862Y964737D01*
X1187335Y973975D01*
X1215044Y983211D01*
X1261224Y983211D01*
X1288935Y973975D01*
X1307406Y964737D01*
X1325879Y946264D01*
X1335115Y927793D01*
X1335115Y890846D01*
X1325879Y872375D01*
X1307406Y853902D01*
X1288935Y844664D01*
X1141153Y783704D02*
G01*
X1335115Y783704D01*
X1141153Y722744D02*
G01*
X1335115Y722744D01*
X1141153Y722744D02*
G01*
X1335115Y593435D01*
X1141153Y593435D02*
G01*
X1335115Y593435D01*
X1187335Y393931D02*
G01*
X1168862Y403166D01*
X1150388Y421639D01*
X1141153Y440113D01*
X1141153Y477057D01*
X1150388Y495531D01*
X1168862Y514004D01*
X1187335Y523239D01*
X1215044Y532475D01*
X1261224Y532475D01*
X1288935Y523239D01*
X1307406Y514004D01*
X1325879Y495531D01*
X1335115Y477057D01*
X1335115Y440113D01*
X1325879Y421639D01*
X1307406Y403166D01*
X1288935Y393931D01*
X1261224Y393931D01*
X1261224Y440113D02*
G01*
X1261224Y393931D01*
X1484053Y2578100D02*
G01*
X1678015Y2578100D01*
X1484053Y2578100D02*
G01*
X1484053Y2494973D01*
X1493288Y2467264D01*
X1502524Y2458026D01*
X1520997Y2448791D01*
X1539471Y2448791D01*
X1557944Y2458026D01*
X1567179Y2467264D01*
X1576415Y2494973D01*
X1576415Y2578100D01*
X1576415Y2513444D02*
G01*
X1678015Y2448791D01*
X1484053Y2332413D02*
G01*
X1493288Y2350884D01*
X1511762Y2369357D01*
X1530235Y2378595D01*
X1557944Y2387831D01*
X1604124Y2387831D01*
X1631835Y2378595D01*
X1650306Y2369357D01*
X1668779Y2350884D01*
X1678015Y2332413D01*
X1678015Y2295466D01*
X1668779Y2276995D01*
X1650306Y2258522D01*
X1631835Y2249284D01*
X1604124Y2240048D01*
X1557944Y2240048D01*
X1530235Y2249284D01*
X1511762Y2258522D01*
X1493288Y2276995D01*
X1484053Y2295466D01*
X1484053Y2332413D01*
X1484053Y2179088D02*
G01*
X1678015Y2179088D01*
X1484053Y2179088D02*
G01*
X1484053Y2095962D01*
X1493288Y2068253D01*
X1502524Y2059015D01*
X1520997Y2049779D01*
X1539471Y2049779D01*
X1557944Y2059015D01*
X1567179Y2068253D01*
X1576415Y2095962D01*
X1576415Y2179088D02*
G01*
X1576415Y2095962D01*
X1585653Y2068253D01*
X1594888Y2059015D01*
X1613362Y2049779D01*
X1641071Y2049779D01*
X1659544Y2059015D01*
X1668779Y2068253D01*
X1678015Y2095962D01*
X1678015Y2179088D01*
X1484053Y1933402D02*
G01*
X1493288Y1951875D01*
X1511762Y1970346D01*
X1530235Y1979584D01*
X1557944Y1988820D01*
X1604124Y1988820D01*
X1631835Y1979584D01*
X1650306Y1970346D01*
X1668779Y1951875D01*
X1678015Y1933402D01*
X1678015Y1896455D01*
X1668779Y1877984D01*
X1650306Y1859511D01*
X1631835Y1850275D01*
X1604124Y1841037D01*
X1557944Y1841037D01*
X1530235Y1850275D01*
X1511762Y1859511D01*
X1493288Y1877984D01*
X1484053Y1896455D01*
X1484053Y1933402D01*
X1484053Y1715424D02*
G01*
X1678015Y1715424D01*
X1484053Y1780077D02*
G01*
X1484053Y1650768D01*
X1484053Y1447568D02*
G01*
X1678015Y1447568D01*
X1484053Y1447568D02*
G01*
X1484053Y1364442D01*
X1493288Y1336733D01*
X1502524Y1327495D01*
X1520997Y1318260D01*
X1548706Y1318260D01*
X1567179Y1327495D01*
X1576415Y1336733D01*
X1585653Y1364442D01*
X1585653Y1447568D01*
X1530235Y1118755D02*
G01*
X1511762Y1127991D01*
X1493288Y1146464D01*
X1484053Y1164935D01*
X1484053Y1201882D01*
X1493288Y1220355D01*
X1511762Y1238826D01*
X1530235Y1248064D01*
X1557944Y1257300D01*
X1604124Y1257300D01*
X1631835Y1248064D01*
X1650306Y1238826D01*
X1668779Y1220355D01*
X1678015Y1201882D01*
X1678015Y1164935D01*
X1668779Y1146464D01*
X1650306Y1127991D01*
X1631835Y1118755D01*
X1484053Y1057795D02*
G01*
X1678015Y1057795D01*
X1484053Y1057795D02*
G01*
X1484053Y974666D01*
X1493288Y946957D01*
X1502524Y937722D01*
X1520997Y928484D01*
X1539471Y928484D01*
X1557944Y937722D01*
X1567179Y946957D01*
X1576415Y974666D01*
X1576415Y1057795D02*
G01*
X1576415Y974666D01*
X1585653Y946957D01*
X1594888Y937722D01*
X1613362Y928484D01*
X1641071Y928484D01*
X1659544Y937722D01*
X1668779Y946957D01*
X1678015Y974666D01*
X1678015Y1057795D01*
M02*
