G04 Layer: BottomLayer*
G04 EasyEDA v6.5.38, 2023-12-09 00:29:23*
G04 cc5c81a3f0414725bc0bd174f0517b54,10*
G04 Gerber Generator version 0.2*
G04 Scale: 100 percent, Rotated: No, Reflected: No *
G04 Dimensions in millimeters *
G04 leading zeros omitted , absolute positions ,4 integer and 5 decimal *
%FSLAX45Y45*%
%MOMM*%

%ADD10C,0.2500*%
%ADD11C,0.5000*%
%ADD12R,1.6000X1.6000*%
%ADD13C,1.6000*%
%ADD14R,2.1590X1.1989*%
%ADD15C,1.9812*%
%ADD16C,1.5748*%
%ADD17R,1.5748X1.5748*%
%ADD18C,1.5240*%
%ADD19C,1.8796*%
%ADD20C,5.4991*%
%ADD21O,3.9999919999999998X2.999994*%
%ADD22R,4.0000X3.0000*%
%ADD23C,1.7780*%
%ADD24R,1.7780X1.7780*%
%ADD25R,1.2065X1.2065*%
%ADD26C,1.2065*%
%ADD27C,0.6100*%
%ADD28C,0.0174*%

%LPD*%
G36*
X300278Y25908D02*
G01*
X278079Y26822D01*
X256743Y29362D01*
X235610Y33629D01*
X214934Y39471D01*
X194767Y46939D01*
X175209Y55981D01*
X156464Y66548D01*
X138582Y78536D01*
X121716Y91846D01*
X105918Y106476D01*
X91338Y122326D01*
X78028Y139242D01*
X66141Y157124D01*
X55626Y175920D01*
X46634Y195478D01*
X39217Y215696D01*
X33426Y236423D01*
X29260Y257505D01*
X26771Y278892D01*
X25908Y300685D01*
X25908Y5439714D01*
X26822Y5462320D01*
X29362Y5483656D01*
X33629Y5504789D01*
X39471Y5525465D01*
X46939Y5545632D01*
X55981Y5565190D01*
X66548Y5583936D01*
X78536Y5601817D01*
X91846Y5618683D01*
X106476Y5634482D01*
X122326Y5649061D01*
X139242Y5662371D01*
X157124Y5674258D01*
X175920Y5684774D01*
X195478Y5693765D01*
X215696Y5701182D01*
X236423Y5706973D01*
X257505Y5711139D01*
X278892Y5713628D01*
X300685Y5714492D01*
X6354114Y5714492D01*
X6376720Y5713577D01*
X6398056Y5711037D01*
X6419189Y5706770D01*
X6439865Y5700928D01*
X6460032Y5693460D01*
X6479590Y5684418D01*
X6498336Y5673852D01*
X6516217Y5661863D01*
X6533083Y5648553D01*
X6548881Y5633923D01*
X6563461Y5618073D01*
X6576771Y5601157D01*
X6588658Y5583275D01*
X6599174Y5564479D01*
X6608165Y5544921D01*
X6615582Y5524703D01*
X6621373Y5503976D01*
X6625539Y5482894D01*
X6628028Y5461508D01*
X6628892Y5439714D01*
X6628892Y300685D01*
X6627977Y278079D01*
X6625437Y256743D01*
X6621170Y235610D01*
X6615328Y214934D01*
X6607860Y194767D01*
X6598818Y175209D01*
X6588252Y156464D01*
X6576263Y138582D01*
X6562953Y121716D01*
X6548323Y105918D01*
X6532473Y91338D01*
X6515557Y78028D01*
X6497675Y66141D01*
X6478879Y55626D01*
X6459321Y46634D01*
X6439103Y39217D01*
X6418376Y33426D01*
X6397294Y29260D01*
X6375908Y26771D01*
X6354114Y25908D01*
G37*

%LPC*%
G36*
X5196941Y134162D02*
G01*
X5211724Y134620D01*
X5226304Y136906D01*
X5240477Y140970D01*
X5254091Y146710D01*
X5266842Y154076D01*
X5278628Y162966D01*
X5289245Y173228D01*
X5298490Y184759D01*
X5306263Y197307D01*
X5312410Y210718D01*
X5316880Y224739D01*
X5319623Y239267D01*
X5320538Y254000D01*
X5319623Y268732D01*
X5316880Y283260D01*
X5312410Y297281D01*
X5306263Y310692D01*
X5298490Y323240D01*
X5289245Y334772D01*
X5278628Y345033D01*
X5266842Y353923D01*
X5254091Y361289D01*
X5240477Y367030D01*
X5236921Y368046D01*
X5234127Y369316D01*
X5231841Y371398D01*
X5227472Y376783D01*
X5149240Y454964D01*
X5147056Y458216D01*
X5146294Y462026D01*
X5146954Y465835D01*
X5149037Y469138D01*
X5152186Y471373D01*
X5155946Y472287D01*
X5159806Y471728D01*
X5167833Y468884D01*
X5182260Y465734D01*
X5196941Y464362D01*
X5211724Y464820D01*
X5226304Y467106D01*
X5240477Y471170D01*
X5254091Y476910D01*
X5266842Y484276D01*
X5278628Y493166D01*
X5289245Y503428D01*
X5298490Y514959D01*
X5306263Y527507D01*
X5312410Y540918D01*
X5316880Y554939D01*
X5319623Y569468D01*
X5320538Y584200D01*
X5319623Y598932D01*
X5316880Y613460D01*
X5312410Y627481D01*
X5306263Y640892D01*
X5298490Y653440D01*
X5289245Y664972D01*
X5278628Y675233D01*
X5266842Y684123D01*
X5254091Y691489D01*
X5245252Y695248D01*
X5242001Y697433D01*
X5239816Y700735D01*
X5239054Y704596D01*
X5239054Y1502003D01*
X5239816Y1505864D01*
X5242052Y1509166D01*
X5245354Y1511401D01*
X5249214Y1512163D01*
X5253126Y1511401D01*
X5256377Y1509166D01*
X5321350Y1444193D01*
X5323484Y1441145D01*
X5324348Y1437487D01*
X5323789Y1433779D01*
X5320639Y1424381D01*
X5317896Y1410817D01*
X5317032Y1397000D01*
X5317896Y1383182D01*
X5320639Y1369618D01*
X5325059Y1356461D01*
X5331206Y1344066D01*
X5338876Y1332534D01*
X5348020Y1322120D01*
X5358434Y1312976D01*
X5369966Y1305306D01*
X5382361Y1299159D01*
X5395518Y1294739D01*
X5409082Y1291996D01*
X5422900Y1291132D01*
X5436717Y1291996D01*
X5450281Y1294739D01*
X5463438Y1299159D01*
X5475833Y1305306D01*
X5487365Y1312976D01*
X5497779Y1322120D01*
X5506923Y1332534D01*
X5514594Y1344066D01*
X5520740Y1356461D01*
X5525160Y1369618D01*
X5527903Y1383182D01*
X5528767Y1397000D01*
X5527903Y1410817D01*
X5525160Y1424381D01*
X5520740Y1437538D01*
X5514594Y1449933D01*
X5506923Y1461465D01*
X5497779Y1471879D01*
X5487365Y1481023D01*
X5475833Y1488694D01*
X5463438Y1494840D01*
X5450281Y1499260D01*
X5436717Y1502003D01*
X5422900Y1502867D01*
X5409082Y1502003D01*
X5395518Y1499260D01*
X5386120Y1496110D01*
X5382412Y1495552D01*
X5378754Y1496415D01*
X5375706Y1498549D01*
X5319522Y1554734D01*
X5317286Y1557985D01*
X5316524Y1561896D01*
X5316524Y1586534D01*
X5317439Y1590700D01*
X5319979Y1594154D01*
X5323738Y1596237D01*
X5328005Y1596593D01*
X5332069Y1595170D01*
X5335117Y1592173D01*
X5338876Y1586534D01*
X5348020Y1576120D01*
X5358434Y1566976D01*
X5369966Y1559306D01*
X5382361Y1553159D01*
X5395518Y1548739D01*
X5409082Y1545996D01*
X5422900Y1545132D01*
X5436717Y1545996D01*
X5450281Y1548739D01*
X5463438Y1553159D01*
X5475833Y1559306D01*
X5487365Y1566976D01*
X5497779Y1576120D01*
X5506923Y1586534D01*
X5514594Y1598066D01*
X5520740Y1610461D01*
X5525160Y1623618D01*
X5527903Y1637182D01*
X5528767Y1651000D01*
X5527903Y1664817D01*
X5525160Y1678381D01*
X5520740Y1691538D01*
X5514594Y1703933D01*
X5506923Y1715465D01*
X5497779Y1725879D01*
X5487365Y1735023D01*
X5475833Y1742693D01*
X5463438Y1748840D01*
X5450281Y1753260D01*
X5436717Y1756003D01*
X5422900Y1756867D01*
X5409082Y1756003D01*
X5395518Y1753260D01*
X5382361Y1748840D01*
X5369966Y1742693D01*
X5358434Y1735023D01*
X5348020Y1725879D01*
X5338876Y1715465D01*
X5335117Y1709826D01*
X5332069Y1706829D01*
X5328005Y1705406D01*
X5323738Y1705762D01*
X5319979Y1707845D01*
X5317439Y1711299D01*
X5316524Y1715465D01*
X5316524Y1840534D01*
X5317439Y1844700D01*
X5319979Y1848154D01*
X5323738Y1850237D01*
X5328005Y1850593D01*
X5332069Y1849170D01*
X5335117Y1846173D01*
X5338876Y1840534D01*
X5348020Y1830120D01*
X5358434Y1820976D01*
X5369966Y1813306D01*
X5382361Y1807159D01*
X5395518Y1802739D01*
X5409082Y1799996D01*
X5422900Y1799132D01*
X5436717Y1799996D01*
X5450281Y1802739D01*
X5463438Y1807159D01*
X5475833Y1813306D01*
X5487365Y1820976D01*
X5497779Y1830120D01*
X5506923Y1840534D01*
X5514594Y1852066D01*
X5520740Y1864461D01*
X5525160Y1877618D01*
X5527903Y1891182D01*
X5528767Y1905000D01*
X5527903Y1918817D01*
X5525160Y1932381D01*
X5520740Y1945538D01*
X5514594Y1957933D01*
X5506923Y1969465D01*
X5497779Y1979879D01*
X5487365Y1989023D01*
X5475833Y1996693D01*
X5463438Y2002840D01*
X5450281Y2007260D01*
X5436717Y2010003D01*
X5422900Y2010867D01*
X5409082Y2010003D01*
X5395518Y2007260D01*
X5382361Y2002840D01*
X5369966Y1996693D01*
X5358434Y1989023D01*
X5348020Y1979879D01*
X5338876Y1969465D01*
X5335117Y1963826D01*
X5332069Y1960829D01*
X5328005Y1959406D01*
X5323738Y1959762D01*
X5319979Y1961845D01*
X5317439Y1965299D01*
X5316524Y1969465D01*
X5316524Y2094534D01*
X5317439Y2098700D01*
X5319979Y2102154D01*
X5323738Y2104237D01*
X5328005Y2104593D01*
X5332069Y2103170D01*
X5335117Y2100173D01*
X5338876Y2094534D01*
X5348020Y2084120D01*
X5358434Y2074976D01*
X5369966Y2067306D01*
X5382361Y2061159D01*
X5395518Y2056739D01*
X5409082Y2053996D01*
X5422900Y2053132D01*
X5436717Y2053996D01*
X5450281Y2056739D01*
X5463438Y2061159D01*
X5475833Y2067306D01*
X5487365Y2074976D01*
X5497779Y2084120D01*
X5506923Y2094534D01*
X5514594Y2106066D01*
X5520740Y2118461D01*
X5525160Y2131618D01*
X5527903Y2145182D01*
X5528767Y2159000D01*
X5527903Y2172817D01*
X5525160Y2186381D01*
X5520740Y2199538D01*
X5514594Y2211933D01*
X5506923Y2223465D01*
X5497779Y2233879D01*
X5487365Y2243023D01*
X5475833Y2250694D01*
X5463438Y2256840D01*
X5450281Y2261260D01*
X5436717Y2264003D01*
X5422900Y2264867D01*
X5409082Y2264003D01*
X5395518Y2261260D01*
X5382361Y2256840D01*
X5369966Y2250694D01*
X5358434Y2243023D01*
X5348020Y2233879D01*
X5338876Y2223465D01*
X5335117Y2217826D01*
X5332069Y2214829D01*
X5328005Y2213406D01*
X5323738Y2213762D01*
X5319979Y2215845D01*
X5317439Y2219299D01*
X5316524Y2223465D01*
X5316524Y2348534D01*
X5317439Y2352700D01*
X5319979Y2356154D01*
X5323738Y2358237D01*
X5328005Y2358593D01*
X5332069Y2357170D01*
X5335117Y2354173D01*
X5338876Y2348534D01*
X5348020Y2338120D01*
X5358434Y2328976D01*
X5369966Y2321306D01*
X5382361Y2315159D01*
X5395518Y2310739D01*
X5409082Y2307996D01*
X5422900Y2307132D01*
X5436717Y2307996D01*
X5450281Y2310739D01*
X5463438Y2315159D01*
X5475833Y2321306D01*
X5487365Y2328976D01*
X5497779Y2338120D01*
X5506923Y2348534D01*
X5514594Y2360066D01*
X5520740Y2372461D01*
X5525160Y2385618D01*
X5527903Y2399182D01*
X5528767Y2413000D01*
X5527903Y2426817D01*
X5525160Y2440381D01*
X5520740Y2453538D01*
X5514594Y2465933D01*
X5506923Y2477465D01*
X5497779Y2487879D01*
X5487365Y2497023D01*
X5475833Y2504694D01*
X5463438Y2510840D01*
X5450281Y2515260D01*
X5436717Y2518003D01*
X5422900Y2518867D01*
X5409082Y2518003D01*
X5395518Y2515260D01*
X5382361Y2510840D01*
X5369966Y2504694D01*
X5358434Y2497023D01*
X5348020Y2487879D01*
X5338876Y2477465D01*
X5335117Y2471826D01*
X5332069Y2468829D01*
X5328005Y2467406D01*
X5323738Y2467762D01*
X5319979Y2469845D01*
X5317439Y2473299D01*
X5316524Y2477465D01*
X5316524Y2602534D01*
X5317439Y2606700D01*
X5319979Y2610154D01*
X5323738Y2612237D01*
X5328005Y2612593D01*
X5332069Y2611170D01*
X5335117Y2608173D01*
X5338876Y2602534D01*
X5348020Y2592120D01*
X5358434Y2582976D01*
X5369966Y2575306D01*
X5376570Y2572054D01*
X5376570Y2620670D01*
X5326684Y2620670D01*
X5322824Y2621432D01*
X5319522Y2623616D01*
X5317286Y2626918D01*
X5316524Y2630830D01*
X5316524Y2646426D01*
X5315762Y2654401D01*
X5313578Y2661615D01*
X5310022Y2668270D01*
X5304942Y2674416D01*
X5244084Y2735072D01*
X5241848Y2738374D01*
X5241086Y2742285D01*
X5241086Y3447745D01*
X5241848Y3451656D01*
X5244084Y3454908D01*
X5291074Y3501898D01*
X5294325Y3504133D01*
X5298236Y3504895D01*
X5317693Y3504895D01*
X5321401Y3504184D01*
X5324602Y3502202D01*
X5326837Y3499205D01*
X5331206Y3490366D01*
X5338876Y3478834D01*
X5348020Y3468420D01*
X5358434Y3459276D01*
X5369966Y3451606D01*
X5382361Y3445459D01*
X5395518Y3441039D01*
X5409082Y3438296D01*
X5422900Y3437432D01*
X5436717Y3438296D01*
X5450281Y3441039D01*
X5463438Y3445459D01*
X5475833Y3451606D01*
X5487365Y3459276D01*
X5497779Y3468420D01*
X5506923Y3478834D01*
X5514594Y3490366D01*
X5520740Y3502761D01*
X5525160Y3515918D01*
X5527903Y3529482D01*
X5528767Y3543300D01*
X5527903Y3557117D01*
X5525160Y3570681D01*
X5520740Y3583838D01*
X5514594Y3596233D01*
X5506923Y3607765D01*
X5497779Y3618179D01*
X5487365Y3627323D01*
X5475833Y3634994D01*
X5463438Y3641140D01*
X5450281Y3645560D01*
X5436717Y3648303D01*
X5422900Y3649167D01*
X5409082Y3648303D01*
X5395518Y3645560D01*
X5382361Y3641140D01*
X5369966Y3634994D01*
X5358434Y3627323D01*
X5348020Y3618179D01*
X5338876Y3607765D01*
X5335117Y3602126D01*
X5332069Y3599129D01*
X5328005Y3597706D01*
X5323738Y3598062D01*
X5319979Y3600145D01*
X5317439Y3603599D01*
X5316524Y3607765D01*
X5316524Y3662172D01*
X5315762Y3670147D01*
X5313578Y3677361D01*
X5310022Y3684015D01*
X5304942Y3690213D01*
X5015433Y3979672D01*
X5013350Y3982770D01*
X5012486Y3986428D01*
X5012994Y3990136D01*
X5015941Y3998823D01*
X5018633Y4012234D01*
X5019548Y4025900D01*
X5018633Y4039565D01*
X5015941Y4052976D01*
X5011572Y4065930D01*
X5005527Y4078224D01*
X4997907Y4089603D01*
X4988864Y4099864D01*
X4978603Y4108907D01*
X4967224Y4116527D01*
X4958994Y4120591D01*
X4955997Y4122826D01*
X4954016Y4125976D01*
X4953304Y4129684D01*
X4953304Y4176115D01*
X4954016Y4179773D01*
X4955997Y4182973D01*
X4958994Y4185208D01*
X4967224Y4189272D01*
X4978603Y4196892D01*
X4988864Y4205935D01*
X4997907Y4216196D01*
X5005527Y4227576D01*
X5011572Y4239869D01*
X5015941Y4252823D01*
X5018633Y4266234D01*
X5019548Y4279900D01*
X5018633Y4293565D01*
X5015941Y4306976D01*
X5011572Y4319930D01*
X5005527Y4332224D01*
X4997907Y4343603D01*
X4988864Y4353864D01*
X4978603Y4362907D01*
X4967224Y4370527D01*
X4958994Y4374591D01*
X4955997Y4376826D01*
X4954016Y4379976D01*
X4953304Y4383684D01*
X4953304Y4419092D01*
X4954066Y4423003D01*
X4956302Y4426254D01*
X4959604Y4428490D01*
X4963464Y4429252D01*
X4993081Y4429252D01*
X4999380Y4429963D01*
X5004866Y4431893D01*
X5009743Y4434941D01*
X5013858Y4439056D01*
X5016906Y4443933D01*
X5018836Y4449419D01*
X5019548Y4455718D01*
X5019548Y4612081D01*
X5018836Y4618380D01*
X5016906Y4623866D01*
X5013858Y4628743D01*
X5009743Y4632858D01*
X5004866Y4635906D01*
X4999380Y4637836D01*
X4993081Y4638548D01*
X4836718Y4638548D01*
X4830419Y4637836D01*
X4824933Y4635906D01*
X4820056Y4632858D01*
X4815941Y4628743D01*
X4812893Y4623866D01*
X4810963Y4618380D01*
X4810252Y4612081D01*
X4810252Y4455718D01*
X4810963Y4449419D01*
X4812893Y4443933D01*
X4815941Y4439056D01*
X4820056Y4434941D01*
X4824933Y4431893D01*
X4830419Y4429963D01*
X4836718Y4429252D01*
X4866335Y4429252D01*
X4870196Y4428490D01*
X4873498Y4426254D01*
X4875733Y4423003D01*
X4876495Y4419092D01*
X4876495Y4383684D01*
X4875784Y4379976D01*
X4873802Y4376826D01*
X4870805Y4374591D01*
X4862576Y4370527D01*
X4851196Y4362907D01*
X4840935Y4353864D01*
X4831892Y4343603D01*
X4824272Y4332224D01*
X4818227Y4319930D01*
X4813858Y4306976D01*
X4811166Y4293565D01*
X4810252Y4279900D01*
X4811166Y4266234D01*
X4813858Y4252823D01*
X4818227Y4239869D01*
X4824272Y4227576D01*
X4831892Y4216196D01*
X4840935Y4205935D01*
X4851196Y4196892D01*
X4862576Y4189272D01*
X4870805Y4185208D01*
X4873802Y4182973D01*
X4875784Y4179773D01*
X4876495Y4176115D01*
X4876495Y4129684D01*
X4875784Y4125976D01*
X4873802Y4122826D01*
X4870805Y4120591D01*
X4862576Y4116527D01*
X4851196Y4108907D01*
X4840935Y4099864D01*
X4831892Y4089603D01*
X4824272Y4078224D01*
X4818227Y4065930D01*
X4813858Y4052976D01*
X4811166Y4039565D01*
X4810252Y4025900D01*
X4811166Y4012234D01*
X4813858Y3998823D01*
X4818227Y3985869D01*
X4824272Y3973576D01*
X4831892Y3962196D01*
X4840935Y3951935D01*
X4851196Y3942892D01*
X4862576Y3935272D01*
X4874869Y3929227D01*
X4887823Y3924858D01*
X4901234Y3922166D01*
X4914900Y3921251D01*
X4928565Y3922166D01*
X4941976Y3924858D01*
X4950663Y3927805D01*
X4954371Y3928313D01*
X4958029Y3927449D01*
X4961128Y3925366D01*
X5236718Y3649726D01*
X5238953Y3646474D01*
X5239715Y3642563D01*
X5239715Y3563416D01*
X5238953Y3559505D01*
X5236718Y3556254D01*
X5175859Y3495395D01*
X5170779Y3489198D01*
X5167223Y3482543D01*
X5165039Y3475329D01*
X5164277Y3467354D01*
X5164277Y2722626D01*
X5165039Y2714650D01*
X5167223Y2707436D01*
X5170779Y2700782D01*
X5175859Y2694635D01*
X5236718Y2633980D01*
X5238953Y2630678D01*
X5239715Y2626766D01*
X5239715Y2535326D01*
X5238953Y2531465D01*
X5236718Y2528163D01*
X5233416Y2525928D01*
X5229555Y2525166D01*
X5225643Y2525928D01*
X5222392Y2528163D01*
X4254449Y3496106D01*
X4252315Y3499154D01*
X4251452Y3502812D01*
X4252010Y3506520D01*
X4255160Y3515918D01*
X4257903Y3529482D01*
X4258767Y3543300D01*
X4257903Y3557117D01*
X4255160Y3570681D01*
X4250740Y3583838D01*
X4244594Y3596233D01*
X4236923Y3607765D01*
X4227779Y3618179D01*
X4217365Y3627323D01*
X4205833Y3634994D01*
X4193438Y3641140D01*
X4180281Y3645560D01*
X4166717Y3648303D01*
X4152900Y3649167D01*
X4139082Y3648303D01*
X4125518Y3645560D01*
X4112361Y3641140D01*
X4099966Y3634994D01*
X4088434Y3627323D01*
X4078020Y3618179D01*
X4068876Y3607765D01*
X4061206Y3596233D01*
X4055059Y3583838D01*
X4050639Y3570681D01*
X4047896Y3557117D01*
X4047032Y3543300D01*
X4047896Y3529482D01*
X4050639Y3515918D01*
X4055059Y3502761D01*
X4061206Y3490366D01*
X4068876Y3478834D01*
X4078020Y3468420D01*
X4088434Y3459276D01*
X4099966Y3451606D01*
X4112361Y3445459D01*
X4125518Y3441039D01*
X4139082Y3438296D01*
X4152900Y3437432D01*
X4166717Y3438296D01*
X4180281Y3441039D01*
X4189679Y3444189D01*
X4193387Y3444748D01*
X4197045Y3443884D01*
X4200093Y3441750D01*
X5159248Y2482596D01*
X5161483Y2479344D01*
X5162245Y2475433D01*
X5162245Y704697D01*
X5161381Y700633D01*
X5158994Y697280D01*
X5155438Y695147D01*
X5153914Y694588D01*
X5140706Y687984D01*
X5128412Y679856D01*
X5117185Y670255D01*
X5107279Y659333D01*
X5098745Y647293D01*
X5091734Y634288D01*
X5086400Y620522D01*
X5082844Y606247D01*
X5081016Y591566D01*
X5081016Y576834D01*
X5082844Y562152D01*
X5086400Y547878D01*
X5088026Y543712D01*
X5088737Y539800D01*
X5087874Y535990D01*
X5085638Y532739D01*
X5082336Y530606D01*
X5078476Y529844D01*
X5074666Y530656D01*
X5071364Y532841D01*
X4254449Y1349806D01*
X4252315Y1352854D01*
X4251452Y1356512D01*
X4252010Y1360220D01*
X4255160Y1369618D01*
X4257903Y1383182D01*
X4258767Y1397000D01*
X4257903Y1410817D01*
X4255160Y1424381D01*
X4250740Y1437538D01*
X4244594Y1449933D01*
X4236923Y1461465D01*
X4227779Y1471879D01*
X4217365Y1481023D01*
X4205833Y1488694D01*
X4193438Y1494840D01*
X4180281Y1499260D01*
X4166717Y1502003D01*
X4152900Y1502867D01*
X4139082Y1502003D01*
X4125518Y1499260D01*
X4116120Y1496110D01*
X4112412Y1495552D01*
X4108754Y1496415D01*
X4105706Y1498549D01*
X4018534Y1585722D01*
X4016298Y1588973D01*
X4015536Y1592884D01*
X4015536Y3051556D01*
X4016298Y3055416D01*
X4018534Y3058718D01*
X4020312Y3060547D01*
X4025950Y3068574D01*
X4030116Y3077464D01*
X4032656Y3086963D01*
X4033520Y3096768D01*
X4032656Y3106572D01*
X4030116Y3116072D01*
X4025950Y3124962D01*
X4020312Y3132988D01*
X4013352Y3139948D01*
X4005326Y3145586D01*
X3996436Y3149752D01*
X3986936Y3152292D01*
X3977132Y3153156D01*
X3967327Y3152292D01*
X3957828Y3149752D01*
X3948937Y3145586D01*
X3940911Y3139948D01*
X3935323Y3134410D01*
X3932072Y3132175D01*
X3928160Y3131413D01*
X3924300Y3132175D01*
X3920998Y3134410D01*
X3918762Y3137712D01*
X3918000Y3141573D01*
X3918000Y3318764D01*
X3917238Y3326739D01*
X3915054Y3333953D01*
X3911498Y3340608D01*
X3906418Y3346805D01*
X3702456Y3550716D01*
X3700272Y3553968D01*
X3699459Y3557828D01*
X3700170Y3561638D01*
X3703269Y3569411D01*
X3706876Y3583381D01*
X3708654Y3597706D01*
X3708654Y3612083D01*
X3706876Y3626408D01*
X3703269Y3640378D01*
X3697986Y3653790D01*
X3691026Y3666388D01*
X3682542Y3678072D01*
X3672687Y3688587D01*
X3661562Y3697782D01*
X3649421Y3705504D01*
X3636365Y3711600D01*
X3622649Y3716070D01*
X3608476Y3718763D01*
X3594100Y3719677D01*
X3579723Y3718763D01*
X3565550Y3716070D01*
X3551834Y3711600D01*
X3538778Y3705504D01*
X3526637Y3697782D01*
X3515512Y3688587D01*
X3505657Y3678072D01*
X3497173Y3666388D01*
X3495852Y3664000D01*
X3492957Y3660698D01*
X3488893Y3658920D01*
X3484422Y3659073D01*
X3480511Y3661105D01*
X3477768Y3664559D01*
X3476802Y3668928D01*
X3476802Y3794861D01*
X3477768Y3799230D01*
X3480511Y3802684D01*
X3484422Y3804716D01*
X3488893Y3804869D01*
X3492957Y3803091D01*
X3495852Y3799789D01*
X3497173Y3797401D01*
X3505657Y3785717D01*
X3515512Y3775201D01*
X3526637Y3766007D01*
X3538778Y3758285D01*
X3551834Y3752189D01*
X3565550Y3747719D01*
X3579723Y3745026D01*
X3594100Y3744112D01*
X3608476Y3745026D01*
X3622649Y3747719D01*
X3636721Y3752342D01*
X3640734Y3753307D01*
X3644798Y3752596D01*
X3648201Y3750310D01*
X4054449Y3344113D01*
X4056735Y3340608D01*
X4057396Y3336493D01*
X4056379Y3332429D01*
X4055059Y3329838D01*
X4050639Y3316681D01*
X4047896Y3303117D01*
X4047032Y3289300D01*
X4047896Y3275482D01*
X4050639Y3261918D01*
X4055059Y3248761D01*
X4061206Y3236366D01*
X4068876Y3224834D01*
X4078020Y3214420D01*
X4088434Y3205276D01*
X4099966Y3197606D01*
X4112361Y3191459D01*
X4125518Y3187039D01*
X4139082Y3184296D01*
X4152900Y3183432D01*
X4166717Y3184296D01*
X4180281Y3187039D01*
X4193438Y3191459D01*
X4205833Y3197606D01*
X4217365Y3205276D01*
X4227779Y3214420D01*
X4236923Y3224834D01*
X4244594Y3236366D01*
X4250740Y3248761D01*
X4255160Y3261918D01*
X4257903Y3275482D01*
X4258767Y3289300D01*
X4257903Y3303117D01*
X4255160Y3316681D01*
X4250740Y3329838D01*
X4244594Y3342233D01*
X4236923Y3353765D01*
X4227779Y3364179D01*
X4217365Y3373323D01*
X4205833Y3380994D01*
X4193438Y3387140D01*
X4180281Y3391560D01*
X4166717Y3394303D01*
X4152900Y3395167D01*
X4139082Y3394303D01*
X4120387Y3390595D01*
X4116730Y3391408D01*
X4113631Y3393541D01*
X3702456Y3804716D01*
X3700272Y3807968D01*
X3699459Y3811828D01*
X3700170Y3815638D01*
X3703269Y3823411D01*
X3706876Y3837381D01*
X3708654Y3851706D01*
X3708654Y3866083D01*
X3706876Y3880408D01*
X3703269Y3894378D01*
X3697986Y3907790D01*
X3691026Y3920388D01*
X3682542Y3932072D01*
X3672687Y3942587D01*
X3661562Y3951782D01*
X3649421Y3959504D01*
X3636365Y3965600D01*
X3622649Y3970070D01*
X3608476Y3972763D01*
X3594100Y3973677D01*
X3579723Y3972763D01*
X3565550Y3970070D01*
X3551834Y3965600D01*
X3538778Y3959504D01*
X3526637Y3951782D01*
X3515512Y3942587D01*
X3505657Y3932072D01*
X3497173Y3920388D01*
X3495852Y3918000D01*
X3492957Y3914698D01*
X3488893Y3912920D01*
X3484422Y3913073D01*
X3480511Y3915105D01*
X3477768Y3918559D01*
X3476802Y3922928D01*
X3476802Y4048861D01*
X3477768Y4053230D01*
X3480511Y4056684D01*
X3484422Y4058716D01*
X3488893Y4058869D01*
X3492957Y4057091D01*
X3495852Y4053789D01*
X3497173Y4051401D01*
X3505657Y4039717D01*
X3515512Y4029201D01*
X3526637Y4020007D01*
X3538778Y4012285D01*
X3551834Y4006189D01*
X3565550Y4001719D01*
X3579723Y3999026D01*
X3594100Y3998112D01*
X3608476Y3999026D01*
X3622649Y4001719D01*
X3636365Y4006189D01*
X3649421Y4012285D01*
X3661562Y4020007D01*
X3672687Y4029201D01*
X3682542Y4039717D01*
X3691026Y4051401D01*
X3697986Y4064000D01*
X3703269Y4077411D01*
X3706876Y4091381D01*
X3708654Y4105706D01*
X3708654Y4120083D01*
X3706876Y4134408D01*
X3703269Y4148378D01*
X3697986Y4161790D01*
X3691026Y4174388D01*
X3682542Y4186072D01*
X3672687Y4196588D01*
X3661562Y4205782D01*
X3649421Y4213504D01*
X3636365Y4219600D01*
X3622649Y4224070D01*
X3608476Y4226763D01*
X3594100Y4227677D01*
X3579723Y4226763D01*
X3565550Y4224070D01*
X3551834Y4219600D01*
X3538778Y4213504D01*
X3526637Y4205782D01*
X3515512Y4196588D01*
X3505657Y4186072D01*
X3497173Y4174388D01*
X3495852Y4172000D01*
X3492957Y4168698D01*
X3488893Y4166920D01*
X3484422Y4167073D01*
X3480511Y4169105D01*
X3477768Y4172559D01*
X3476802Y4176928D01*
X3476802Y4302861D01*
X3477768Y4307230D01*
X3480511Y4310684D01*
X3484422Y4312716D01*
X3488893Y4312869D01*
X3492957Y4311091D01*
X3495852Y4307789D01*
X3497173Y4305401D01*
X3505657Y4293717D01*
X3515512Y4283202D01*
X3526637Y4274007D01*
X3538778Y4266285D01*
X3551834Y4260189D01*
X3565550Y4255719D01*
X3579723Y4253026D01*
X3594100Y4252112D01*
X3608476Y4253026D01*
X3622649Y4255719D01*
X3636365Y4260189D01*
X3649421Y4266285D01*
X3661562Y4274007D01*
X3672687Y4283202D01*
X3682542Y4293717D01*
X3691026Y4305401D01*
X3697986Y4318000D01*
X3703269Y4331411D01*
X3706876Y4345381D01*
X3708654Y4359706D01*
X3708654Y4374083D01*
X3706876Y4388408D01*
X3703269Y4402378D01*
X3697986Y4415790D01*
X3691026Y4428388D01*
X3682542Y4440072D01*
X3672687Y4450588D01*
X3661562Y4459782D01*
X3649421Y4467504D01*
X3636365Y4473600D01*
X3622649Y4478070D01*
X3608476Y4480763D01*
X3594100Y4481677D01*
X3579723Y4480763D01*
X3565550Y4478070D01*
X3551834Y4473600D01*
X3538778Y4467504D01*
X3526637Y4459782D01*
X3515512Y4450588D01*
X3505657Y4440072D01*
X3497173Y4428388D01*
X3495852Y4426000D01*
X3492957Y4422698D01*
X3488893Y4420920D01*
X3484422Y4421073D01*
X3480511Y4423105D01*
X3477768Y4426559D01*
X3476802Y4430928D01*
X3476802Y4556861D01*
X3477768Y4561230D01*
X3480511Y4564684D01*
X3484422Y4566716D01*
X3488893Y4566869D01*
X3492957Y4565091D01*
X3495852Y4561789D01*
X3497173Y4559401D01*
X3505657Y4547717D01*
X3515512Y4537202D01*
X3526637Y4528007D01*
X3538778Y4520285D01*
X3551834Y4514189D01*
X3565550Y4509719D01*
X3579723Y4507026D01*
X3594100Y4506112D01*
X3608476Y4507026D01*
X3622649Y4509719D01*
X3636365Y4514189D01*
X3649421Y4520285D01*
X3661562Y4528007D01*
X3672687Y4537202D01*
X3682542Y4547717D01*
X3691026Y4559401D01*
X3697986Y4572000D01*
X3703269Y4585411D01*
X3706876Y4599381D01*
X3708654Y4613706D01*
X3708654Y4628083D01*
X3706876Y4642408D01*
X3703269Y4656378D01*
X3697986Y4669790D01*
X3691026Y4682388D01*
X3682542Y4694072D01*
X3672687Y4704588D01*
X3661562Y4713782D01*
X3649421Y4721504D01*
X3636365Y4727600D01*
X3622649Y4732070D01*
X3608476Y4734763D01*
X3594100Y4735677D01*
X3579723Y4734763D01*
X3565550Y4732070D01*
X3551834Y4727600D01*
X3538778Y4721504D01*
X3526637Y4713782D01*
X3515512Y4704588D01*
X3505657Y4694072D01*
X3497173Y4682388D01*
X3495852Y4680000D01*
X3492957Y4676698D01*
X3488893Y4674920D01*
X3484422Y4675073D01*
X3480511Y4677105D01*
X3477768Y4680559D01*
X3476802Y4684928D01*
X3476802Y4810861D01*
X3477768Y4815230D01*
X3480511Y4818684D01*
X3484422Y4820716D01*
X3488893Y4820869D01*
X3492957Y4819091D01*
X3495852Y4815789D01*
X3497173Y4813401D01*
X3505657Y4801717D01*
X3515512Y4791202D01*
X3526637Y4782007D01*
X3538778Y4774285D01*
X3551834Y4768189D01*
X3565550Y4763719D01*
X3579723Y4761026D01*
X3594100Y4760112D01*
X3608476Y4761026D01*
X3622649Y4763719D01*
X3636365Y4768189D01*
X3649421Y4774285D01*
X3661562Y4782007D01*
X3672687Y4791202D01*
X3682542Y4801717D01*
X3691026Y4813401D01*
X3697986Y4826000D01*
X3703269Y4839411D01*
X3706876Y4853381D01*
X3708654Y4867706D01*
X3708654Y4882083D01*
X3706876Y4896408D01*
X3703269Y4910378D01*
X3697986Y4923790D01*
X3691026Y4936388D01*
X3682542Y4948072D01*
X3672687Y4958588D01*
X3661562Y4967782D01*
X3649421Y4975504D01*
X3636365Y4981600D01*
X3622649Y4986070D01*
X3608476Y4988763D01*
X3594100Y4989677D01*
X3579723Y4988763D01*
X3565550Y4986070D01*
X3557422Y4983429D01*
X3552951Y4983022D01*
X3548786Y4984597D01*
X3545636Y4987798D01*
X3544214Y4992065D01*
X3544722Y4996484D01*
X3547110Y5000294D01*
X3572764Y5025898D01*
X3576015Y5028133D01*
X3579926Y5028895D01*
X4047693Y5028895D01*
X4051401Y5028184D01*
X4054601Y5026202D01*
X4056837Y5023205D01*
X4061206Y5014366D01*
X4068876Y5002834D01*
X4078020Y4992420D01*
X4088434Y4983276D01*
X4099966Y4975606D01*
X4112361Y4969459D01*
X4125518Y4965039D01*
X4139082Y4962296D01*
X4152900Y4961432D01*
X4166717Y4962296D01*
X4180281Y4965039D01*
X4193438Y4969459D01*
X4205833Y4975606D01*
X4217365Y4983276D01*
X4227779Y4992420D01*
X4236923Y5002834D01*
X4244594Y5014366D01*
X4250740Y5026761D01*
X4255160Y5039918D01*
X4257903Y5053482D01*
X4258767Y5067300D01*
X4257903Y5081117D01*
X4255160Y5094681D01*
X4250740Y5107838D01*
X4244594Y5120233D01*
X4236923Y5131765D01*
X4227779Y5142179D01*
X4217365Y5151323D01*
X4205833Y5158994D01*
X4193438Y5165140D01*
X4180281Y5169560D01*
X4166717Y5172303D01*
X4152900Y5173167D01*
X4139082Y5172303D01*
X4125518Y5169560D01*
X4112361Y5165140D01*
X4099966Y5158994D01*
X4088434Y5151323D01*
X4078020Y5142179D01*
X4068876Y5131765D01*
X4061206Y5120233D01*
X4056837Y5111394D01*
X4054601Y5108397D01*
X4051401Y5106416D01*
X4047693Y5105704D01*
X3560318Y5105704D01*
X3552342Y5104942D01*
X3545128Y5102758D01*
X3538474Y5099202D01*
X3532276Y5094122D01*
X3411575Y4973421D01*
X3406495Y4967224D01*
X3402939Y4960569D01*
X3400755Y4953355D01*
X3399993Y4945380D01*
X3399993Y2999232D01*
X3400755Y2991256D01*
X3402939Y2984093D01*
X3406495Y2977438D01*
X3411575Y2971241D01*
X3485692Y2896971D01*
X3487877Y2893720D01*
X3488690Y2889910D01*
X3487978Y2886049D01*
X3484930Y2878378D01*
X3481324Y2864408D01*
X3479546Y2850083D01*
X3479546Y2835706D01*
X3481324Y2821381D01*
X3484930Y2807411D01*
X3490214Y2794000D01*
X3497173Y2781401D01*
X3505657Y2769717D01*
X3515512Y2759202D01*
X3526637Y2750007D01*
X3538778Y2742285D01*
X3551834Y2736189D01*
X3565550Y2731719D01*
X3579723Y2729026D01*
X3594100Y2728112D01*
X3608476Y2729026D01*
X3622649Y2731719D01*
X3636365Y2736189D01*
X3649421Y2742285D01*
X3661562Y2750007D01*
X3672687Y2759202D01*
X3682542Y2769717D01*
X3691026Y2781401D01*
X3697986Y2794000D01*
X3703269Y2807411D01*
X3706876Y2821381D01*
X3708654Y2835706D01*
X3708654Y2850083D01*
X3706876Y2864408D01*
X3703269Y2878378D01*
X3697986Y2891790D01*
X3691026Y2904388D01*
X3682542Y2916072D01*
X3672687Y2926588D01*
X3661562Y2935782D01*
X3649421Y2943504D01*
X3636365Y2949600D01*
X3622649Y2954070D01*
X3608476Y2956763D01*
X3594100Y2957677D01*
X3579723Y2956763D01*
X3565550Y2954070D01*
X3551428Y2949397D01*
X3547414Y2948432D01*
X3543350Y2949143D01*
X3539896Y2951429D01*
X3479800Y3011627D01*
X3477564Y3014929D01*
X3476802Y3018840D01*
X3476802Y3032861D01*
X3477768Y3037230D01*
X3480511Y3040684D01*
X3484422Y3042716D01*
X3488893Y3042869D01*
X3492957Y3041091D01*
X3495852Y3037789D01*
X3497173Y3035401D01*
X3505657Y3023717D01*
X3515512Y3013202D01*
X3526637Y3004007D01*
X3538778Y2996285D01*
X3551834Y2990189D01*
X3565550Y2985719D01*
X3579723Y2983026D01*
X3594100Y2982112D01*
X3608476Y2983026D01*
X3622649Y2985719D01*
X3636365Y2990189D01*
X3649421Y2996285D01*
X3661562Y3004007D01*
X3672687Y3013202D01*
X3682542Y3023717D01*
X3691026Y3035401D01*
X3697986Y3048000D01*
X3703269Y3061411D01*
X3706876Y3075381D01*
X3708654Y3089706D01*
X3708654Y3104083D01*
X3706876Y3118408D01*
X3703269Y3132378D01*
X3697986Y3145790D01*
X3691026Y3158388D01*
X3682542Y3170072D01*
X3672687Y3180588D01*
X3661562Y3189782D01*
X3649421Y3197504D01*
X3636365Y3203600D01*
X3622649Y3208070D01*
X3608476Y3210763D01*
X3594100Y3211677D01*
X3579723Y3210763D01*
X3565550Y3208070D01*
X3551834Y3203600D01*
X3538778Y3197504D01*
X3526637Y3189782D01*
X3515512Y3180588D01*
X3505657Y3170072D01*
X3497173Y3158388D01*
X3495852Y3156000D01*
X3492957Y3152698D01*
X3488893Y3150920D01*
X3484422Y3151073D01*
X3480511Y3153105D01*
X3477768Y3156559D01*
X3476802Y3160928D01*
X3476802Y3286861D01*
X3477768Y3291230D01*
X3480511Y3294684D01*
X3484422Y3296716D01*
X3488893Y3296869D01*
X3492957Y3295091D01*
X3495852Y3291789D01*
X3497173Y3289401D01*
X3505657Y3277717D01*
X3515512Y3267202D01*
X3526637Y3258007D01*
X3538778Y3250285D01*
X3551834Y3244189D01*
X3565550Y3239719D01*
X3579723Y3237026D01*
X3594100Y3236112D01*
X3608476Y3237026D01*
X3622649Y3239719D01*
X3636365Y3244189D01*
X3649421Y3250285D01*
X3661562Y3258007D01*
X3672687Y3267202D01*
X3682542Y3277717D01*
X3691026Y3289401D01*
X3697986Y3302000D01*
X3703269Y3315411D01*
X3706876Y3329381D01*
X3708654Y3343706D01*
X3708654Y3358083D01*
X3706876Y3372408D01*
X3703269Y3386378D01*
X3697986Y3399790D01*
X3691026Y3412388D01*
X3682542Y3424072D01*
X3672687Y3434587D01*
X3661562Y3443782D01*
X3649421Y3451504D01*
X3636365Y3457600D01*
X3622649Y3462070D01*
X3608476Y3464763D01*
X3594100Y3465677D01*
X3579723Y3464763D01*
X3565550Y3462070D01*
X3551834Y3457600D01*
X3538778Y3451504D01*
X3526637Y3443782D01*
X3515512Y3434587D01*
X3505657Y3424072D01*
X3497173Y3412388D01*
X3495852Y3410000D01*
X3492957Y3406698D01*
X3488893Y3404920D01*
X3484422Y3405073D01*
X3480511Y3407105D01*
X3477768Y3410559D01*
X3476802Y3414928D01*
X3476802Y3540861D01*
X3477768Y3545230D01*
X3480511Y3548684D01*
X3484422Y3550716D01*
X3488893Y3550869D01*
X3492957Y3549091D01*
X3495852Y3545789D01*
X3497173Y3543401D01*
X3505657Y3531717D01*
X3515512Y3521201D01*
X3526637Y3512007D01*
X3538778Y3504285D01*
X3551834Y3498189D01*
X3565550Y3493719D01*
X3579723Y3491026D01*
X3594100Y3490112D01*
X3608476Y3491026D01*
X3622649Y3493719D01*
X3636721Y3498342D01*
X3640734Y3499307D01*
X3644798Y3498596D01*
X3648201Y3496310D01*
X3838194Y3306318D01*
X3840429Y3303066D01*
X3841191Y3299155D01*
X3841191Y1544828D01*
X3841953Y1536852D01*
X3844137Y1529638D01*
X3847693Y1522984D01*
X3852773Y1516786D01*
X3913378Y1456182D01*
X3915613Y1452930D01*
X3916375Y1449019D01*
X3916375Y1341628D01*
X3917137Y1333652D01*
X3919321Y1326438D01*
X3922877Y1319784D01*
X3927957Y1313586D01*
X4051350Y1190193D01*
X4053484Y1187145D01*
X4054348Y1183487D01*
X4053789Y1179779D01*
X4050639Y1170381D01*
X4047896Y1156817D01*
X4047032Y1143000D01*
X4047896Y1129182D01*
X4050639Y1115618D01*
X4055059Y1102461D01*
X4061206Y1090066D01*
X4068876Y1078534D01*
X4078020Y1068120D01*
X4088434Y1058976D01*
X4099966Y1051306D01*
X4112361Y1045159D01*
X4125518Y1040739D01*
X4139082Y1037996D01*
X4152900Y1037132D01*
X4166717Y1037996D01*
X4180281Y1040739D01*
X4193438Y1045159D01*
X4205833Y1051306D01*
X4217365Y1058976D01*
X4227779Y1068120D01*
X4236923Y1078534D01*
X4244594Y1090066D01*
X4250740Y1102461D01*
X4255160Y1115618D01*
X4257903Y1129182D01*
X4258767Y1143000D01*
X4257903Y1156817D01*
X4255160Y1170381D01*
X4250740Y1183538D01*
X4244594Y1195933D01*
X4236923Y1207465D01*
X4227779Y1217879D01*
X4217365Y1227023D01*
X4205833Y1234694D01*
X4193438Y1240840D01*
X4180281Y1245260D01*
X4166717Y1248003D01*
X4152900Y1248867D01*
X4139082Y1248003D01*
X4125518Y1245260D01*
X4116120Y1242110D01*
X4112412Y1241552D01*
X4108754Y1242415D01*
X4105706Y1244549D01*
X3996182Y1354074D01*
X3993946Y1357325D01*
X3993184Y1361236D01*
X3993184Y1468628D01*
X3992219Y1477822D01*
X3992626Y1481937D01*
X3994658Y1485544D01*
X3997960Y1488033D01*
X4001973Y1489049D01*
X4006037Y1488338D01*
X4009542Y1486052D01*
X4051350Y1444193D01*
X4053484Y1441145D01*
X4054348Y1437487D01*
X4053789Y1433779D01*
X4050639Y1424381D01*
X4047896Y1410817D01*
X4047032Y1397000D01*
X4047896Y1383182D01*
X4050639Y1369618D01*
X4055059Y1356461D01*
X4061206Y1344066D01*
X4068876Y1332534D01*
X4078020Y1322120D01*
X4088434Y1312976D01*
X4099966Y1305306D01*
X4112361Y1299159D01*
X4125518Y1294739D01*
X4139082Y1291996D01*
X4152900Y1291132D01*
X4166717Y1291996D01*
X4180281Y1294739D01*
X4189679Y1297889D01*
X4193387Y1298448D01*
X4197045Y1297584D01*
X4200093Y1295450D01*
X5130139Y365404D01*
X5132527Y361645D01*
X5133086Y357225D01*
X5131663Y353009D01*
X5128412Y349656D01*
X5117185Y340055D01*
X5107279Y329133D01*
X5098745Y317093D01*
X5091734Y304088D01*
X5086400Y290322D01*
X5082844Y276047D01*
X5081016Y261366D01*
X5081016Y246634D01*
X5082844Y231952D01*
X5086400Y217678D01*
X5091734Y203911D01*
X5098745Y190906D01*
X5107279Y178866D01*
X5117185Y167944D01*
X5128412Y158343D01*
X5140706Y150215D01*
X5153914Y143611D01*
X5167833Y138684D01*
X5182260Y135534D01*
G37*
G36*
X4491990Y146659D02*
G01*
X4504842Y154076D01*
X4516628Y162966D01*
X4527245Y173228D01*
X4536490Y184759D01*
X4544263Y197307D01*
X4545787Y200660D01*
X4491990Y200660D01*
G37*
G36*
X4385310Y146913D02*
G01*
X4385310Y200660D01*
X4331512Y200660D01*
X4336745Y190906D01*
X4345279Y178866D01*
X4355185Y167944D01*
X4366412Y158343D01*
X4378706Y150215D01*
G37*
G36*
X371602Y157226D02*
G01*
X390398Y157226D01*
X409143Y159156D01*
X427583Y162915D01*
X445566Y168554D01*
X462889Y176022D01*
X479348Y185166D01*
X494792Y195884D01*
X509066Y208178D01*
X522071Y221792D01*
X533552Y236728D01*
X543560Y252679D01*
X551840Y269595D01*
X558393Y287274D01*
X563067Y305460D01*
X565962Y324104D01*
X566877Y342900D01*
X565962Y361696D01*
X563067Y380339D01*
X558393Y398526D01*
X551840Y416204D01*
X543560Y433120D01*
X533552Y449072D01*
X522071Y464007D01*
X509066Y477621D01*
X494792Y489915D01*
X479348Y500634D01*
X462889Y509778D01*
X445566Y517245D01*
X427583Y522884D01*
X409143Y526643D01*
X390398Y528574D01*
X371602Y528574D01*
X352856Y526643D01*
X334416Y522884D01*
X316433Y517245D01*
X299110Y509778D01*
X282651Y500634D01*
X267208Y489915D01*
X252933Y477621D01*
X239928Y464007D01*
X228447Y449072D01*
X218440Y433120D01*
X210159Y416204D01*
X203606Y398526D01*
X198932Y380339D01*
X196037Y361696D01*
X195122Y342900D01*
X196037Y324104D01*
X198932Y305460D01*
X203606Y287274D01*
X210159Y269595D01*
X218440Y252679D01*
X228447Y236728D01*
X239928Y221792D01*
X252933Y208178D01*
X267208Y195884D01*
X282651Y185166D01*
X299110Y176022D01*
X316433Y168554D01*
X334416Y162915D01*
X352856Y159156D01*
G37*
G36*
X6264402Y169926D02*
G01*
X6283198Y169926D01*
X6301943Y171856D01*
X6320383Y175615D01*
X6338366Y181254D01*
X6355689Y188722D01*
X6372148Y197866D01*
X6387592Y208584D01*
X6401866Y220878D01*
X6414871Y234492D01*
X6426352Y249428D01*
X6436360Y265379D01*
X6444640Y282295D01*
X6451193Y299974D01*
X6455867Y318160D01*
X6458762Y336804D01*
X6459677Y355600D01*
X6458762Y374396D01*
X6455867Y393039D01*
X6451193Y411226D01*
X6444640Y428904D01*
X6436360Y445820D01*
X6426352Y461772D01*
X6414871Y476707D01*
X6401866Y490321D01*
X6387592Y502615D01*
X6372148Y513334D01*
X6355689Y522478D01*
X6338366Y529945D01*
X6320383Y535584D01*
X6301943Y539343D01*
X6283198Y541274D01*
X6264402Y541274D01*
X6245656Y539343D01*
X6227216Y535584D01*
X6209233Y529945D01*
X6191910Y522478D01*
X6175451Y513334D01*
X6160008Y502615D01*
X6145733Y490321D01*
X6132728Y476707D01*
X6121247Y461772D01*
X6111240Y445820D01*
X6102959Y428904D01*
X6096406Y411226D01*
X6091732Y393039D01*
X6088837Y374396D01*
X6087922Y355600D01*
X6088837Y336804D01*
X6091732Y318160D01*
X6096406Y299974D01*
X6102959Y282295D01*
X6111240Y265379D01*
X6121247Y249428D01*
X6132728Y234492D01*
X6145733Y220878D01*
X6160008Y208584D01*
X6175451Y197866D01*
X6191910Y188722D01*
X6209233Y181254D01*
X6227216Y175615D01*
X6245656Y171856D01*
G37*
G36*
X3193592Y177546D02*
G01*
X3207207Y177546D01*
X3220720Y179374D01*
X3233877Y182981D01*
X3246424Y188264D01*
X3258159Y195224D01*
X3268878Y203708D01*
X3278378Y213512D01*
X3286455Y224485D01*
X3293008Y236423D01*
X3297885Y249174D01*
X3301085Y262432D01*
X3302406Y275996D01*
X3301949Y289610D01*
X3299714Y303072D01*
X3295650Y316077D01*
X3289909Y328472D01*
X3282594Y339953D01*
X3273806Y350367D01*
X3263646Y359511D01*
X3252419Y367233D01*
X3240278Y373380D01*
X3227374Y377850D01*
X3214014Y380593D01*
X3200400Y381508D01*
X3186785Y380593D01*
X3173425Y377850D01*
X3160522Y373380D01*
X3148380Y367233D01*
X3137154Y359511D01*
X3126994Y350367D01*
X3118205Y339953D01*
X3110890Y328472D01*
X3105150Y316077D01*
X3101086Y303072D01*
X3098850Y289610D01*
X3098393Y275996D01*
X3099714Y262432D01*
X3102914Y249174D01*
X3107791Y236423D01*
X3114344Y224485D01*
X3122422Y213512D01*
X3131921Y203708D01*
X3142640Y195224D01*
X3154375Y188264D01*
X3166922Y182981D01*
X3180080Y179374D01*
G37*
G36*
X3447592Y177546D02*
G01*
X3461207Y177546D01*
X3474720Y179374D01*
X3487877Y182981D01*
X3500424Y188264D01*
X3512159Y195224D01*
X3522878Y203708D01*
X3532378Y213512D01*
X3540455Y224485D01*
X3547008Y236423D01*
X3551885Y249174D01*
X3555085Y262432D01*
X3556406Y275996D01*
X3555949Y289610D01*
X3553714Y303072D01*
X3549650Y316077D01*
X3543909Y328472D01*
X3536594Y339953D01*
X3527806Y350367D01*
X3517646Y359511D01*
X3506419Y367233D01*
X3494278Y373380D01*
X3481374Y377850D01*
X3468014Y380593D01*
X3454400Y381508D01*
X3440785Y380593D01*
X3427425Y377850D01*
X3414522Y373380D01*
X3402380Y367233D01*
X3391154Y359511D01*
X3380994Y350367D01*
X3372205Y339953D01*
X3364890Y328472D01*
X3359150Y316077D01*
X3355086Y303072D01*
X3352850Y289610D01*
X3352393Y275996D01*
X3353714Y262432D01*
X3356914Y249174D01*
X3361791Y236423D01*
X3368344Y224485D01*
X3376422Y213512D01*
X3385921Y203708D01*
X3396640Y195224D01*
X3408375Y188264D01*
X3420922Y182981D01*
X3434079Y179374D01*
G37*
G36*
X2177592Y177546D02*
G01*
X2191207Y177546D01*
X2204720Y179374D01*
X2217877Y182981D01*
X2230424Y188264D01*
X2242159Y195224D01*
X2252878Y203708D01*
X2262378Y213512D01*
X2270455Y224485D01*
X2277008Y236423D01*
X2281885Y249174D01*
X2285085Y262432D01*
X2286406Y275996D01*
X2285949Y289610D01*
X2283714Y303072D01*
X2279650Y316077D01*
X2273909Y328472D01*
X2266594Y339953D01*
X2257806Y350367D01*
X2247646Y359511D01*
X2236419Y367233D01*
X2224278Y373380D01*
X2211374Y377850D01*
X2198014Y380593D01*
X2184400Y381508D01*
X2170785Y380593D01*
X2157425Y377850D01*
X2144522Y373380D01*
X2132380Y367233D01*
X2121154Y359511D01*
X2110994Y350367D01*
X2102205Y339953D01*
X2094890Y328472D01*
X2089150Y316077D01*
X2085086Y303072D01*
X2082850Y289610D01*
X2082393Y275996D01*
X2083714Y262432D01*
X2086914Y249174D01*
X2091791Y236423D01*
X2098344Y224485D01*
X2106422Y213512D01*
X2115921Y203708D01*
X2126640Y195224D01*
X2138375Y188264D01*
X2150922Y182981D01*
X2164080Y179374D01*
G37*
G36*
X2431592Y177546D02*
G01*
X2445207Y177546D01*
X2458720Y179374D01*
X2471877Y182981D01*
X2484424Y188264D01*
X2496159Y195224D01*
X2506878Y203708D01*
X2516378Y213512D01*
X2524455Y224485D01*
X2531008Y236423D01*
X2535885Y249174D01*
X2539085Y262432D01*
X2540406Y275996D01*
X2539949Y289610D01*
X2537714Y303072D01*
X2534462Y313486D01*
X2534056Y317093D01*
X2534920Y320649D01*
X2537002Y323697D01*
X3461969Y1248613D01*
X3465220Y1250848D01*
X3469132Y1251610D01*
X3473043Y1250848D01*
X3476294Y1248613D01*
X3478529Y1245311D01*
X3479292Y1241450D01*
X3479292Y1230579D01*
X3480003Y1224229D01*
X3481933Y1218793D01*
X3484981Y1213866D01*
X3489096Y1209802D01*
X3493973Y1206703D01*
X3499459Y1204823D01*
X3505758Y1204061D01*
X3679951Y1204061D01*
X3683863Y1203299D01*
X3687165Y1201115D01*
X3689350Y1197813D01*
X3690112Y1193901D01*
X3689350Y1190040D01*
X3687165Y1186738D01*
X3018790Y518414D01*
X3015538Y516178D01*
X3011627Y515416D01*
X2890520Y515416D01*
X2882544Y514654D01*
X2875330Y512470D01*
X2868676Y508914D01*
X2862478Y503834D01*
X2736596Y377952D01*
X2733497Y375818D01*
X2729839Y374954D01*
X2726080Y375513D01*
X2719374Y377850D01*
X2706014Y380593D01*
X2692400Y381508D01*
X2678785Y380593D01*
X2665425Y377850D01*
X2652522Y373380D01*
X2640380Y367233D01*
X2629154Y359511D01*
X2618994Y350367D01*
X2610205Y339953D01*
X2602890Y328472D01*
X2597150Y316077D01*
X2593086Y303072D01*
X2590850Y289610D01*
X2590393Y275996D01*
X2591714Y262432D01*
X2594914Y249174D01*
X2599791Y236423D01*
X2606344Y224485D01*
X2614422Y213512D01*
X2623921Y203708D01*
X2634640Y195224D01*
X2646375Y188264D01*
X2658922Y182981D01*
X2672080Y179374D01*
X2685592Y177546D01*
X2699207Y177546D01*
X2712720Y179374D01*
X2725877Y182981D01*
X2738424Y188264D01*
X2750159Y195224D01*
X2760878Y203708D01*
X2770378Y213512D01*
X2778455Y224485D01*
X2785008Y236423D01*
X2789885Y249174D01*
X2793085Y262432D01*
X2794406Y275996D01*
X2793949Y289610D01*
X2791714Y303072D01*
X2788462Y313486D01*
X2788056Y317093D01*
X2788920Y320649D01*
X2791002Y323697D01*
X2902966Y435609D01*
X2906217Y437845D01*
X2910128Y438607D01*
X3031236Y438607D01*
X3039211Y439369D01*
X3046425Y441553D01*
X3053080Y445109D01*
X3059277Y450189D01*
X3774592Y1165504D01*
X3779672Y1171702D01*
X3783228Y1178356D01*
X3785412Y1185570D01*
X3786174Y1193546D01*
X3786174Y1446022D01*
X3785412Y1453997D01*
X3783228Y1461211D01*
X3779672Y1467866D01*
X3774592Y1474012D01*
X3708958Y1539494D01*
X3706977Y1542389D01*
X3706012Y1545742D01*
X3706317Y1549247D01*
X3706876Y1551381D01*
X3708654Y1565706D01*
X3708654Y1580083D01*
X3706876Y1594408D01*
X3703269Y1608378D01*
X3697986Y1621790D01*
X3691026Y1634388D01*
X3682542Y1646072D01*
X3672687Y1656588D01*
X3661562Y1665782D01*
X3649421Y1673504D01*
X3636365Y1679600D01*
X3622649Y1684070D01*
X3608476Y1686763D01*
X3594100Y1687677D01*
X3579723Y1686763D01*
X3565550Y1684070D01*
X3551834Y1679600D01*
X3538778Y1673504D01*
X3526637Y1665782D01*
X3515512Y1656588D01*
X3505657Y1646072D01*
X3497173Y1634388D01*
X3490214Y1621790D01*
X3484930Y1608378D01*
X3481324Y1594408D01*
X3479546Y1580083D01*
X3479546Y1565706D01*
X3481324Y1551381D01*
X3484930Y1537411D01*
X3490214Y1524000D01*
X3497173Y1511401D01*
X3505657Y1499717D01*
X3515512Y1489202D01*
X3526637Y1480007D01*
X3538778Y1472285D01*
X3551834Y1466189D01*
X3565550Y1461719D01*
X3579723Y1459026D01*
X3594100Y1458112D01*
X3608476Y1459026D01*
X3622649Y1461719D01*
X3636365Y1466189D01*
X3649421Y1472285D01*
X3653637Y1474978D01*
X3656787Y1476298D01*
X3660190Y1476502D01*
X3663492Y1475587D01*
X3666286Y1473606D01*
X3688842Y1451051D01*
X3691077Y1447749D01*
X3691839Y1443888D01*
X3691077Y1439976D01*
X3688892Y1436674D01*
X3685590Y1434490D01*
X3681679Y1433677D01*
X3505758Y1433677D01*
X3499459Y1432966D01*
X3493973Y1431086D01*
X3489096Y1427988D01*
X3484981Y1423924D01*
X3481933Y1418996D01*
X3480003Y1413560D01*
X3479292Y1407210D01*
X3479292Y1367332D01*
X3478529Y1363472D01*
X3476294Y1360170D01*
X3473043Y1357934D01*
X3469132Y1357172D01*
X3442970Y1357172D01*
X3434994Y1356410D01*
X3427780Y1354226D01*
X3421126Y1350670D01*
X3415334Y1345895D01*
X3410559Y1340104D01*
X3407003Y1333449D01*
X3404819Y1326235D01*
X3404057Y1318260D01*
X3404057Y1303578D01*
X3403295Y1299667D01*
X3401060Y1296416D01*
X2482596Y377952D01*
X2479497Y375818D01*
X2475839Y374954D01*
X2472080Y375513D01*
X2465374Y377850D01*
X2452014Y380593D01*
X2438400Y381508D01*
X2424785Y380593D01*
X2411425Y377850D01*
X2398522Y373380D01*
X2386380Y367233D01*
X2375154Y359511D01*
X2364994Y350367D01*
X2356205Y339953D01*
X2348890Y328472D01*
X2343150Y316077D01*
X2339086Y303072D01*
X2336850Y289610D01*
X2336393Y275996D01*
X2337714Y262432D01*
X2340914Y249174D01*
X2345791Y236423D01*
X2352344Y224485D01*
X2360422Y213512D01*
X2369921Y203708D01*
X2380640Y195224D01*
X2392375Y188264D01*
X2404922Y182981D01*
X2418080Y179374D01*
G37*
G36*
X2990850Y187604D02*
G01*
X2992424Y188264D01*
X3004159Y195224D01*
X3014878Y203708D01*
X3024378Y213512D01*
X3032455Y224485D01*
X3038195Y234950D01*
X2990850Y234950D01*
G37*
G36*
X2901950Y187604D02*
G01*
X2901950Y234950D01*
X2854604Y234950D01*
X2860344Y224485D01*
X2868422Y213512D01*
X2877921Y203708D01*
X2888640Y195224D01*
X2900375Y188264D01*
G37*
G36*
X4331512Y307340D02*
G01*
X4385310Y307340D01*
X4385310Y361086D01*
X4378706Y357784D01*
X4366412Y349656D01*
X4355185Y340055D01*
X4345279Y329133D01*
X4336745Y317093D01*
G37*
G36*
X4491990Y307340D02*
G01*
X4545787Y307340D01*
X4544263Y310692D01*
X4536490Y323240D01*
X4527245Y334772D01*
X4516628Y345033D01*
X4504842Y353923D01*
X4491990Y361340D01*
G37*
G36*
X2854756Y323850D02*
G01*
X2901950Y323850D01*
X2901950Y371043D01*
X2894380Y367233D01*
X2883154Y359511D01*
X2872994Y350367D01*
X2864205Y339953D01*
X2856890Y328472D01*
G37*
G36*
X2990850Y323850D02*
G01*
X3038043Y323850D01*
X3035909Y328472D01*
X3028594Y339953D01*
X3019806Y350367D01*
X3009646Y359511D01*
X2998419Y367233D01*
X2990850Y371043D01*
G37*
G36*
X4491990Y476859D02*
G01*
X4504842Y484276D01*
X4516628Y493166D01*
X4527245Y503428D01*
X4536490Y514959D01*
X4544263Y527507D01*
X4545787Y530860D01*
X4491990Y530860D01*
G37*
G36*
X4385310Y477113D02*
G01*
X4385310Y530860D01*
X4331512Y530860D01*
X4336745Y521106D01*
X4345279Y509066D01*
X4355185Y498144D01*
X4366412Y488543D01*
X4378706Y480415D01*
G37*
G36*
X4331512Y637540D02*
G01*
X4385310Y637540D01*
X4385310Y691286D01*
X4378706Y687984D01*
X4366412Y679856D01*
X4355185Y670255D01*
X4345279Y659333D01*
X4336745Y647293D01*
G37*
G36*
X4491990Y637540D02*
G01*
X4545787Y637540D01*
X4544263Y640892D01*
X4536490Y653440D01*
X4527245Y664972D01*
X4516628Y675233D01*
X4504842Y684123D01*
X4491990Y691540D01*
G37*
G36*
X304800Y929792D02*
G01*
X317093Y930656D01*
X329082Y933297D01*
X340614Y937564D01*
X351383Y943457D01*
X361238Y950823D01*
X369976Y959561D01*
X377342Y969416D01*
X383235Y980186D01*
X387502Y991717D01*
X390144Y1003706D01*
X391007Y1016000D01*
X390144Y1028293D01*
X387502Y1040282D01*
X383235Y1051814D01*
X377342Y1062583D01*
X369976Y1072438D01*
X361238Y1081125D01*
X351383Y1088542D01*
X340614Y1094435D01*
X329082Y1098702D01*
X317093Y1101344D01*
X304800Y1102207D01*
X292506Y1101344D01*
X280517Y1098702D01*
X268986Y1094435D01*
X258216Y1088542D01*
X248361Y1081125D01*
X239674Y1072438D01*
X232257Y1062583D01*
X226364Y1051814D01*
X222097Y1040282D01*
X219456Y1028293D01*
X218592Y1016000D01*
X219456Y1003706D01*
X222097Y991717D01*
X226364Y980186D01*
X232257Y969416D01*
X239674Y959561D01*
X248361Y950823D01*
X258216Y943457D01*
X268986Y937564D01*
X280517Y933297D01*
X292506Y930656D01*
G37*
G36*
X5343448Y1037082D02*
G01*
X5376570Y1037082D01*
X5376570Y1096670D01*
X5316982Y1096670D01*
X5316982Y1063548D01*
X5317693Y1057249D01*
X5319623Y1051763D01*
X5322671Y1046886D01*
X5326786Y1042771D01*
X5331663Y1039723D01*
X5337149Y1037793D01*
G37*
G36*
X5469229Y1037082D02*
G01*
X5502351Y1037082D01*
X5508650Y1037793D01*
X5514136Y1039723D01*
X5519013Y1042771D01*
X5523128Y1046886D01*
X5526176Y1051763D01*
X5528106Y1057249D01*
X5528818Y1063548D01*
X5528818Y1096670D01*
X5469229Y1096670D01*
G37*
G36*
X304800Y1183792D02*
G01*
X317093Y1184656D01*
X329082Y1187297D01*
X340614Y1191564D01*
X351383Y1197457D01*
X361238Y1204823D01*
X369976Y1213561D01*
X377342Y1223416D01*
X383235Y1234186D01*
X387502Y1245717D01*
X390144Y1257706D01*
X391007Y1270000D01*
X390144Y1282293D01*
X387502Y1294282D01*
X383235Y1305814D01*
X377342Y1316583D01*
X369976Y1326438D01*
X361238Y1335125D01*
X351383Y1342542D01*
X340614Y1348435D01*
X329082Y1352702D01*
X317093Y1355344D01*
X304800Y1356207D01*
X292506Y1355344D01*
X280517Y1352702D01*
X268986Y1348435D01*
X258216Y1342542D01*
X248361Y1335125D01*
X239674Y1326438D01*
X232257Y1316583D01*
X226364Y1305814D01*
X222097Y1294282D01*
X219456Y1282293D01*
X218592Y1270000D01*
X219456Y1257706D01*
X222097Y1245717D01*
X226364Y1234186D01*
X232257Y1223416D01*
X239674Y1213561D01*
X248361Y1204823D01*
X258216Y1197457D01*
X268986Y1191564D01*
X280517Y1187297D01*
X292506Y1184656D01*
G37*
G36*
X5469229Y1189329D02*
G01*
X5528818Y1189329D01*
X5528818Y1222451D01*
X5528106Y1228750D01*
X5526176Y1234236D01*
X5523128Y1239113D01*
X5519013Y1243228D01*
X5514136Y1246276D01*
X5508650Y1248206D01*
X5502351Y1248918D01*
X5469229Y1248918D01*
G37*
G36*
X5316982Y1189329D02*
G01*
X5376570Y1189329D01*
X5376570Y1248918D01*
X5343448Y1248918D01*
X5337149Y1248206D01*
X5331663Y1246276D01*
X5326786Y1243228D01*
X5322671Y1239113D01*
X5319623Y1234236D01*
X5317693Y1228750D01*
X5316982Y1222451D01*
G37*
G36*
X2070100Y1204112D02*
G01*
X2084476Y1205026D01*
X2098649Y1207719D01*
X2112365Y1212189D01*
X2125421Y1218285D01*
X2137562Y1226007D01*
X2148687Y1235202D01*
X2158542Y1245717D01*
X2167026Y1257401D01*
X2173986Y1270000D01*
X2179269Y1283411D01*
X2182876Y1297381D01*
X2184654Y1311706D01*
X2184654Y1326083D01*
X2182876Y1340408D01*
X2179269Y1354378D01*
X2176272Y1361948D01*
X2175560Y1365808D01*
X2176322Y1369618D01*
X2178507Y1372870D01*
X2849473Y2043785D01*
X2853029Y2046122D01*
X2857500Y2046732D01*
X2872536Y2047646D01*
X2887421Y2050389D01*
X2901797Y2054860D01*
X2915564Y2061057D01*
X2928467Y2068880D01*
X2940354Y2078177D01*
X2951022Y2088845D01*
X2960319Y2100732D01*
X2968142Y2113635D01*
X2974340Y2127402D01*
X2978810Y2141778D01*
X2981553Y2156663D01*
X2982468Y2171700D01*
X2981553Y2186736D01*
X2978810Y2201621D01*
X2976016Y2210562D01*
X2975610Y2214168D01*
X2976473Y2217724D01*
X2978556Y2220772D01*
X3055162Y2297328D01*
X3058312Y2300782D01*
X3061004Y2304288D01*
X3063392Y2308047D01*
X3065424Y2312009D01*
X3067151Y2316073D01*
X3068472Y2320340D01*
X3069437Y2324658D01*
X3069996Y2329078D01*
X3070199Y2333701D01*
X3070199Y4384598D01*
X3069996Y4389221D01*
X3069437Y4393641D01*
X3068472Y4397959D01*
X3067151Y4402226D01*
X3065424Y4406290D01*
X3063392Y4410252D01*
X3061004Y4414012D01*
X3058312Y4417517D01*
X3055162Y4420971D01*
X2978556Y4497527D01*
X2976473Y4500575D01*
X2975610Y4504131D01*
X2976016Y4507738D01*
X2978810Y4516678D01*
X2981553Y4531563D01*
X2982468Y4546600D01*
X2981553Y4561636D01*
X2978810Y4576521D01*
X2974340Y4590897D01*
X2968142Y4604664D01*
X2960319Y4617567D01*
X2951022Y4629454D01*
X2940354Y4640122D01*
X2928467Y4649419D01*
X2915564Y4657242D01*
X2901797Y4663440D01*
X2887421Y4667910D01*
X2872536Y4670653D01*
X2857500Y4671568D01*
X2842463Y4670653D01*
X2827578Y4667910D01*
X2813202Y4663440D01*
X2799435Y4657242D01*
X2786532Y4649419D01*
X2774645Y4640122D01*
X2763977Y4629454D01*
X2754680Y4617567D01*
X2746857Y4604664D01*
X2740660Y4590897D01*
X2736189Y4576521D01*
X2733446Y4561636D01*
X2732532Y4546600D01*
X2733446Y4532071D01*
X2732836Y4528058D01*
X2730754Y4524552D01*
X2727452Y4522216D01*
X2723489Y4521301D01*
X2719476Y4522012D01*
X2716123Y4524298D01*
X2167483Y5072938D01*
X2164029Y5076088D01*
X2160524Y5078780D01*
X2156764Y5081168D01*
X2152802Y5083200D01*
X2148738Y5084927D01*
X2144471Y5086248D01*
X2140153Y5087213D01*
X2135733Y5087772D01*
X2131110Y5087975D01*
X2001977Y5087975D01*
X1997354Y5087772D01*
X1992934Y5087213D01*
X1988616Y5086248D01*
X1984349Y5084927D01*
X1980285Y5083200D01*
X1976323Y5081168D01*
X1972564Y5078780D01*
X1969058Y5076088D01*
X1965604Y5072938D01*
X1320546Y4427829D01*
X1317701Y4425848D01*
X1314297Y4424883D01*
X1310792Y4425188D01*
X1304594Y4426813D01*
X1287018Y4429506D01*
X1268933Y4430420D01*
X1169466Y4430420D01*
X1151382Y4429506D01*
X1133805Y4426813D01*
X1116533Y4422343D01*
X1099820Y4416145D01*
X1083818Y4408271D01*
X1068730Y4398873D01*
X1054608Y4387951D01*
X1041704Y4375708D01*
X1030122Y4362145D01*
X1019911Y4347565D01*
X1011275Y4331970D01*
X1004265Y4315612D01*
X998931Y4298594D01*
X995324Y4281119D01*
X993546Y4263390D01*
X993546Y4245610D01*
X995324Y4227880D01*
X998931Y4210405D01*
X1004265Y4193387D01*
X1011275Y4177029D01*
X1019911Y4161434D01*
X1030122Y4146854D01*
X1041704Y4133291D01*
X1054608Y4121048D01*
X1068730Y4110126D01*
X1083818Y4100728D01*
X1099820Y4092854D01*
X1116533Y4086656D01*
X1133805Y4082186D01*
X1151382Y4079494D01*
X1169466Y4078579D01*
X1268933Y4078579D01*
X1287018Y4079494D01*
X1304594Y4082186D01*
X1321866Y4086656D01*
X1338580Y4092854D01*
X1354582Y4100728D01*
X1369669Y4110126D01*
X1383792Y4121048D01*
X1396695Y4133291D01*
X1408277Y4146854D01*
X1418488Y4161434D01*
X1427124Y4177029D01*
X1434134Y4193387D01*
X1439468Y4210405D01*
X1443075Y4227880D01*
X1444853Y4245610D01*
X1444853Y4263390D01*
X1443075Y4281119D01*
X1439468Y4298594D01*
X1434134Y4315612D01*
X1427124Y4331970D01*
X1418488Y4347565D01*
X1409293Y4360773D01*
X1407820Y4363923D01*
X1407515Y4367479D01*
X1408430Y4370832D01*
X1410411Y4373727D01*
X1939848Y4903165D01*
X1943354Y4905451D01*
X1947468Y4906162D01*
X1951532Y4905095D01*
X1954834Y4902555D01*
X1956816Y4898898D01*
X1957120Y4894732D01*
X1955546Y4882083D01*
X1955546Y4867706D01*
X1957324Y4853381D01*
X1960930Y4839411D01*
X1966214Y4826000D01*
X1973173Y4813401D01*
X1981657Y4801717D01*
X1991512Y4791202D01*
X2002637Y4782007D01*
X2014778Y4774285D01*
X2027834Y4768189D01*
X2041550Y4763719D01*
X2055723Y4761026D01*
X2070100Y4760112D01*
X2084476Y4761026D01*
X2098649Y4763719D01*
X2112365Y4768189D01*
X2125421Y4774285D01*
X2137562Y4782007D01*
X2148687Y4791202D01*
X2158542Y4801717D01*
X2167026Y4813401D01*
X2173986Y4826000D01*
X2179269Y4839411D01*
X2182876Y4853381D01*
X2184654Y4867706D01*
X2184654Y4882083D01*
X2184095Y4886553D01*
X2184450Y4890719D01*
X2186432Y4894427D01*
X2189683Y4896967D01*
X2193747Y4897983D01*
X2197862Y4897323D01*
X2201367Y4895037D01*
X2803601Y4292752D01*
X2805836Y4289501D01*
X2806598Y4285589D01*
X2806598Y3651046D01*
X2805836Y3647236D01*
X2803753Y3643985D01*
X2786532Y3633419D01*
X2774645Y3624122D01*
X2763977Y3613454D01*
X2754680Y3601567D01*
X2746857Y3588664D01*
X2740660Y3574897D01*
X2736189Y3560521D01*
X2733446Y3545636D01*
X2732532Y3530600D01*
X2733446Y3515563D01*
X2736189Y3500678D01*
X2740660Y3486302D01*
X2746857Y3472535D01*
X2754680Y3459632D01*
X2763977Y3447745D01*
X2774645Y3437077D01*
X2786532Y3427780D01*
X2799435Y3419957D01*
X2813202Y3413760D01*
X2827578Y3409289D01*
X2842463Y3406546D01*
X2857500Y3405632D01*
X2872536Y3406546D01*
X2887421Y3409289D01*
X2901797Y3413760D01*
X2915564Y3419957D01*
X2928467Y3427780D01*
X2940354Y3437077D01*
X2951022Y3447745D01*
X2954324Y3449980D01*
X2958236Y3450742D01*
X2962097Y3449980D01*
X2965399Y3447745D01*
X2967634Y3444443D01*
X2968396Y3440582D01*
X2968396Y3277717D01*
X2967634Y3273856D01*
X2965399Y3270554D01*
X2962097Y3268319D01*
X2958236Y3267557D01*
X2954324Y3268319D01*
X2951022Y3270554D01*
X2940354Y3281222D01*
X2928467Y3290519D01*
X2915564Y3298342D01*
X2901797Y3304540D01*
X2887421Y3309010D01*
X2872536Y3311753D01*
X2857500Y3312668D01*
X2842463Y3311753D01*
X2827578Y3309010D01*
X2813202Y3304540D01*
X2799435Y3298342D01*
X2786532Y3290519D01*
X2774645Y3281222D01*
X2763977Y3270554D01*
X2754680Y3258667D01*
X2746857Y3245764D01*
X2740660Y3231997D01*
X2736189Y3217621D01*
X2733446Y3202736D01*
X2732532Y3187700D01*
X2733446Y3172663D01*
X2736189Y3157778D01*
X2740660Y3143402D01*
X2746857Y3129635D01*
X2754680Y3116732D01*
X2763977Y3104845D01*
X2774645Y3094177D01*
X2786532Y3084880D01*
X2799435Y3077057D01*
X2813202Y3070860D01*
X2827578Y3066389D01*
X2842463Y3063646D01*
X2857500Y3062732D01*
X2872536Y3063646D01*
X2887421Y3066389D01*
X2901797Y3070860D01*
X2915564Y3077057D01*
X2928467Y3084880D01*
X2940354Y3094177D01*
X2951022Y3104845D01*
X2954324Y3107080D01*
X2958236Y3107842D01*
X2962097Y3107080D01*
X2965399Y3104845D01*
X2967634Y3101543D01*
X2968396Y3097682D01*
X2968396Y2358796D01*
X2967634Y2354884D01*
X2965399Y2351633D01*
X2906572Y2292756D01*
X2903524Y2290673D01*
X2899968Y2289810D01*
X2896362Y2290216D01*
X2887421Y2293010D01*
X2872536Y2295753D01*
X2857500Y2296668D01*
X2842463Y2295753D01*
X2827578Y2293010D01*
X2813202Y2288540D01*
X2799435Y2282342D01*
X2786532Y2274519D01*
X2774645Y2265222D01*
X2763977Y2254554D01*
X2754680Y2242667D01*
X2746857Y2229764D01*
X2740660Y2215997D01*
X2736189Y2201621D01*
X2733446Y2186736D01*
X2732532Y2171700D01*
X2733446Y2156663D01*
X2736189Y2141778D01*
X2740660Y2127402D01*
X2746857Y2113635D01*
X2754680Y2100732D01*
X2763977Y2088845D01*
X2767736Y2085086D01*
X2769920Y2081784D01*
X2770682Y2077923D01*
X2769920Y2074011D01*
X2767736Y2070709D01*
X2124405Y1427378D01*
X2120950Y1425143D01*
X2116886Y1424432D01*
X2112365Y1425600D01*
X2098649Y1430070D01*
X2084476Y1432763D01*
X2070100Y1433677D01*
X2055723Y1432763D01*
X2041550Y1430070D01*
X2027834Y1425600D01*
X2014778Y1419504D01*
X2002637Y1411782D01*
X1991512Y1402588D01*
X1981657Y1392072D01*
X1973173Y1380388D01*
X1966214Y1367790D01*
X1960930Y1354378D01*
X1957324Y1340408D01*
X1955546Y1326083D01*
X1955546Y1311706D01*
X1957324Y1297381D01*
X1960930Y1283411D01*
X1966214Y1270000D01*
X1973173Y1257401D01*
X1981657Y1245717D01*
X1991512Y1235202D01*
X2002637Y1226007D01*
X2014778Y1218285D01*
X2027834Y1212189D01*
X2041550Y1207719D01*
X2055723Y1205026D01*
G37*
G36*
X304800Y1437792D02*
G01*
X317093Y1438656D01*
X329082Y1441297D01*
X340614Y1445564D01*
X351383Y1451457D01*
X361238Y1458823D01*
X369976Y1467561D01*
X377342Y1477416D01*
X383235Y1488186D01*
X387502Y1499717D01*
X390144Y1511706D01*
X391007Y1524000D01*
X390144Y1536293D01*
X387502Y1548282D01*
X383235Y1559814D01*
X377342Y1570583D01*
X369976Y1580438D01*
X361238Y1589125D01*
X351383Y1596542D01*
X340614Y1602435D01*
X329082Y1606702D01*
X317093Y1609344D01*
X304800Y1610207D01*
X292506Y1609344D01*
X280517Y1606702D01*
X268986Y1602435D01*
X258216Y1596542D01*
X248361Y1589125D01*
X239674Y1580438D01*
X232257Y1570583D01*
X226364Y1559814D01*
X222097Y1548282D01*
X219456Y1536293D01*
X218592Y1524000D01*
X219456Y1511706D01*
X222097Y1499717D01*
X226364Y1488186D01*
X232257Y1477416D01*
X239674Y1467561D01*
X248361Y1458823D01*
X258216Y1451457D01*
X268986Y1445564D01*
X280517Y1441297D01*
X292506Y1438656D01*
G37*
G36*
X2019300Y1470202D02*
G01*
X2019300Y1522069D01*
X1967280Y1522069D01*
X1973173Y1511401D01*
X1981657Y1499717D01*
X1991512Y1489202D01*
X2002637Y1480007D01*
X2014778Y1472285D01*
G37*
G36*
X2120900Y1470202D02*
G01*
X2125421Y1472285D01*
X2137562Y1480007D01*
X2148687Y1489202D01*
X2158542Y1499717D01*
X2167026Y1511401D01*
X2172919Y1522069D01*
X2120900Y1522069D01*
G37*
G36*
X6064808Y1519428D02*
G01*
X6279591Y1519428D01*
X6285890Y1520139D01*
X6291376Y1522069D01*
X6296253Y1525117D01*
X6300368Y1529232D01*
X6303416Y1534109D01*
X6305346Y1539595D01*
X6306058Y1545894D01*
X6306058Y1664665D01*
X6305346Y1670964D01*
X6303416Y1676450D01*
X6300368Y1681327D01*
X6296253Y1685442D01*
X6291376Y1688490D01*
X6285890Y1690420D01*
X6279591Y1691132D01*
X6064808Y1691132D01*
X6058509Y1690420D01*
X6053023Y1688490D01*
X6048146Y1685442D01*
X6044031Y1681327D01*
X6040983Y1676450D01*
X6039053Y1670964D01*
X6038342Y1664665D01*
X6038342Y1545894D01*
X6039053Y1539595D01*
X6040983Y1534109D01*
X6044031Y1529232D01*
X6048146Y1525117D01*
X6053023Y1522069D01*
X6058509Y1520139D01*
G37*
G36*
X4152900Y1545132D02*
G01*
X4166717Y1545996D01*
X4180281Y1548739D01*
X4193438Y1553159D01*
X4205833Y1559306D01*
X4217365Y1566976D01*
X4227779Y1576120D01*
X4236923Y1586534D01*
X4244594Y1598066D01*
X4250740Y1610461D01*
X4255160Y1623618D01*
X4257903Y1637182D01*
X4258767Y1651000D01*
X4257903Y1664817D01*
X4255160Y1678381D01*
X4250740Y1691538D01*
X4244594Y1703933D01*
X4236923Y1715465D01*
X4227779Y1725879D01*
X4217365Y1735023D01*
X4205833Y1742693D01*
X4196994Y1747062D01*
X4193997Y1749298D01*
X4192015Y1752498D01*
X4191304Y1756206D01*
X4191304Y1799793D01*
X4192015Y1803501D01*
X4193997Y1806702D01*
X4196994Y1808937D01*
X4205833Y1813306D01*
X4217365Y1820976D01*
X4227779Y1830120D01*
X4236923Y1840534D01*
X4244594Y1852066D01*
X4250740Y1864461D01*
X4255160Y1877618D01*
X4257903Y1891182D01*
X4258767Y1905000D01*
X4257903Y1918817D01*
X4255160Y1932381D01*
X4250740Y1945538D01*
X4244594Y1957933D01*
X4236923Y1969465D01*
X4227779Y1979879D01*
X4217365Y1989023D01*
X4205833Y1996693D01*
X4193438Y2002840D01*
X4180281Y2007260D01*
X4166717Y2010003D01*
X4152900Y2010867D01*
X4139082Y2010003D01*
X4125518Y2007260D01*
X4112361Y2002840D01*
X4099966Y1996693D01*
X4088434Y1989023D01*
X4078020Y1979879D01*
X4068876Y1969465D01*
X4061206Y1957933D01*
X4055059Y1945538D01*
X4050639Y1932381D01*
X4047896Y1918817D01*
X4047032Y1905000D01*
X4047896Y1891182D01*
X4050639Y1877618D01*
X4055059Y1864461D01*
X4061206Y1852066D01*
X4068876Y1840534D01*
X4078020Y1830120D01*
X4088434Y1820976D01*
X4099966Y1813306D01*
X4108805Y1808937D01*
X4111802Y1806702D01*
X4113784Y1803501D01*
X4114495Y1799793D01*
X4114495Y1756206D01*
X4113784Y1752498D01*
X4111802Y1749298D01*
X4108805Y1747062D01*
X4099966Y1742693D01*
X4088434Y1735023D01*
X4078020Y1725879D01*
X4068876Y1715465D01*
X4061206Y1703933D01*
X4055059Y1691538D01*
X4050639Y1678381D01*
X4047896Y1664817D01*
X4047032Y1651000D01*
X4047896Y1637182D01*
X4050639Y1623618D01*
X4055059Y1610461D01*
X4061206Y1598066D01*
X4068876Y1586534D01*
X4078020Y1576120D01*
X4088434Y1566976D01*
X4099966Y1559306D01*
X4112361Y1553159D01*
X4125518Y1548739D01*
X4139082Y1545996D01*
G37*
G36*
X2984500Y1546352D02*
G01*
X2998165Y1547266D01*
X3011576Y1549958D01*
X3024530Y1554327D01*
X3036824Y1560372D01*
X3048203Y1567992D01*
X3058464Y1577035D01*
X3067507Y1587296D01*
X3075127Y1598676D01*
X3081172Y1610969D01*
X3085541Y1623923D01*
X3088233Y1637334D01*
X3089148Y1651000D01*
X3088233Y1664665D01*
X3085541Y1678076D01*
X3081172Y1691030D01*
X3075127Y1703324D01*
X3067507Y1714703D01*
X3058464Y1724964D01*
X3048203Y1734007D01*
X3036824Y1741627D01*
X3024530Y1747672D01*
X3011576Y1752041D01*
X2998165Y1754733D01*
X2984500Y1755648D01*
X2970834Y1754733D01*
X2957423Y1752041D01*
X2944469Y1747672D01*
X2932176Y1741627D01*
X2920796Y1734007D01*
X2910535Y1724964D01*
X2901492Y1714703D01*
X2893872Y1703324D01*
X2887827Y1691030D01*
X2883458Y1678076D01*
X2880766Y1664665D01*
X2879852Y1651000D01*
X2880766Y1637334D01*
X2883458Y1623923D01*
X2887827Y1610969D01*
X2893872Y1598676D01*
X2901492Y1587296D01*
X2910535Y1577035D01*
X2920796Y1567992D01*
X2932176Y1560372D01*
X2944469Y1554327D01*
X2957423Y1549958D01*
X2970834Y1547266D01*
G37*
G36*
X2652318Y1546352D02*
G01*
X2808681Y1546352D01*
X2814980Y1547063D01*
X2820466Y1548993D01*
X2825343Y1552041D01*
X2829458Y1556156D01*
X2832506Y1561033D01*
X2834436Y1566519D01*
X2835148Y1572818D01*
X2835148Y1697075D01*
X2835910Y1700987D01*
X2838145Y1704289D01*
X3427476Y2293366D01*
X3430727Y2295601D01*
X3434638Y2296363D01*
X3479241Y2296363D01*
X3483152Y2295550D01*
X3486505Y2293315D01*
X3488690Y2289962D01*
X3490214Y2286000D01*
X3497173Y2273401D01*
X3505657Y2261717D01*
X3515512Y2251202D01*
X3526637Y2242007D01*
X3538778Y2234285D01*
X3551834Y2228189D01*
X3565550Y2223719D01*
X3579723Y2221026D01*
X3594100Y2220112D01*
X3608476Y2221026D01*
X3622649Y2223719D01*
X3636365Y2228189D01*
X3649421Y2234285D01*
X3661562Y2242007D01*
X3672687Y2251202D01*
X3682542Y2261717D01*
X3691026Y2273401D01*
X3697986Y2286000D01*
X3703269Y2299411D01*
X3706876Y2313381D01*
X3708654Y2327706D01*
X3708654Y2342083D01*
X3706876Y2356408D01*
X3703269Y2370378D01*
X3697986Y2383790D01*
X3691026Y2396388D01*
X3682542Y2408072D01*
X3672687Y2418588D01*
X3661562Y2427782D01*
X3649421Y2435504D01*
X3636365Y2441600D01*
X3622649Y2446070D01*
X3608476Y2448763D01*
X3594100Y2449677D01*
X3579723Y2448763D01*
X3565550Y2446070D01*
X3551834Y2441600D01*
X3538778Y2435504D01*
X3526637Y2427782D01*
X3515512Y2418588D01*
X3505657Y2408072D01*
X3497173Y2396388D01*
X3490214Y2383790D01*
X3488588Y2379573D01*
X3486404Y2376220D01*
X3483051Y2373985D01*
X3479139Y2373172D01*
X3415029Y2373172D01*
X3407054Y2372410D01*
X3399840Y2370226D01*
X3393236Y2366670D01*
X3387039Y2361590D01*
X2783840Y1758645D01*
X2780538Y1756410D01*
X2776626Y1755648D01*
X2652318Y1755648D01*
X2646019Y1754936D01*
X2640533Y1753006D01*
X2635656Y1749958D01*
X2631541Y1745843D01*
X2628493Y1740966D01*
X2626563Y1735480D01*
X2625852Y1729181D01*
X2625852Y1572818D01*
X2626563Y1566519D01*
X2628493Y1561033D01*
X2631541Y1556156D01*
X2635656Y1552041D01*
X2640533Y1548993D01*
X2646019Y1547063D01*
G37*
G36*
X2120900Y1623669D02*
G01*
X2172919Y1623669D01*
X2167026Y1634388D01*
X2158542Y1646072D01*
X2148687Y1656588D01*
X2137562Y1665782D01*
X2125421Y1673504D01*
X2120900Y1675587D01*
G37*
G36*
X1967280Y1623669D02*
G01*
X2019300Y1623669D01*
X2019300Y1675587D01*
X2014778Y1673504D01*
X2002637Y1665782D01*
X1991512Y1656588D01*
X1981657Y1646072D01*
X1973173Y1634388D01*
G37*
G36*
X304800Y1691792D02*
G01*
X317093Y1692656D01*
X329082Y1695297D01*
X340614Y1699564D01*
X351383Y1705457D01*
X361238Y1712823D01*
X369976Y1721561D01*
X377342Y1731416D01*
X383235Y1742186D01*
X387502Y1753717D01*
X390144Y1765706D01*
X391007Y1778000D01*
X390144Y1790293D01*
X387502Y1802282D01*
X383235Y1813814D01*
X377342Y1824583D01*
X369976Y1834438D01*
X361238Y1843125D01*
X351383Y1850542D01*
X340614Y1856435D01*
X329082Y1860702D01*
X317093Y1863343D01*
X304800Y1864207D01*
X292506Y1863343D01*
X280517Y1860702D01*
X268986Y1856435D01*
X258216Y1850542D01*
X248361Y1843125D01*
X239674Y1834438D01*
X232257Y1824583D01*
X226364Y1813814D01*
X222097Y1802282D01*
X219456Y1790293D01*
X218592Y1778000D01*
X219456Y1765706D01*
X222097Y1753717D01*
X226364Y1742186D01*
X232257Y1731416D01*
X239674Y1721561D01*
X248361Y1712823D01*
X258216Y1705457D01*
X268986Y1699564D01*
X280517Y1695297D01*
X292506Y1692656D01*
G37*
G36*
X2070100Y1712112D02*
G01*
X2084476Y1713026D01*
X2098649Y1715719D01*
X2112365Y1720189D01*
X2125421Y1726285D01*
X2137562Y1734007D01*
X2148687Y1743202D01*
X2158542Y1753717D01*
X2167026Y1765401D01*
X2173986Y1778000D01*
X2179269Y1791411D01*
X2182876Y1805381D01*
X2184654Y1819706D01*
X2184654Y1834083D01*
X2182876Y1848408D01*
X2179269Y1862378D01*
X2173986Y1875789D01*
X2167026Y1888388D01*
X2158542Y1900072D01*
X2148687Y1910588D01*
X2137562Y1919782D01*
X2125421Y1927504D01*
X2112365Y1933600D01*
X2098649Y1938070D01*
X2084476Y1940763D01*
X2070100Y1941677D01*
X2055723Y1940763D01*
X2041550Y1938070D01*
X2027834Y1933600D01*
X2014778Y1927504D01*
X2002637Y1919782D01*
X1991512Y1910588D01*
X1981657Y1900072D01*
X1973173Y1888388D01*
X1966214Y1875789D01*
X1960930Y1862378D01*
X1957324Y1848408D01*
X1955546Y1834083D01*
X1955546Y1819706D01*
X1957324Y1805381D01*
X1960930Y1791411D01*
X1966214Y1778000D01*
X1973173Y1765401D01*
X1981657Y1753717D01*
X1991512Y1743202D01*
X2002637Y1734007D01*
X2014778Y1726285D01*
X2027834Y1720189D01*
X2041550Y1715719D01*
X2055723Y1713026D01*
G37*
G36*
X3594100Y1712112D02*
G01*
X3608476Y1713026D01*
X3622649Y1715719D01*
X3636365Y1720189D01*
X3649421Y1726285D01*
X3661562Y1734007D01*
X3672687Y1743202D01*
X3682542Y1753717D01*
X3691026Y1765401D01*
X3697986Y1778000D01*
X3703269Y1791411D01*
X3706876Y1805381D01*
X3708654Y1819706D01*
X3708654Y1834083D01*
X3706876Y1848408D01*
X3703269Y1862378D01*
X3697986Y1875789D01*
X3691026Y1888388D01*
X3682542Y1900072D01*
X3672687Y1910588D01*
X3661562Y1919782D01*
X3649421Y1927504D01*
X3636365Y1933600D01*
X3622649Y1938070D01*
X3608476Y1940763D01*
X3594100Y1941677D01*
X3579723Y1940763D01*
X3565550Y1938070D01*
X3551834Y1933600D01*
X3538778Y1927504D01*
X3526637Y1919782D01*
X3515512Y1910588D01*
X3505657Y1900072D01*
X3497173Y1888388D01*
X3490214Y1875789D01*
X3484930Y1862378D01*
X3481324Y1848408D01*
X3479546Y1834083D01*
X3479546Y1819706D01*
X3481324Y1805381D01*
X3484930Y1791411D01*
X3490214Y1778000D01*
X3497173Y1765401D01*
X3505657Y1753717D01*
X3515512Y1743202D01*
X3526637Y1734007D01*
X3538778Y1726285D01*
X3551834Y1720189D01*
X3565550Y1715719D01*
X3579723Y1713026D01*
G37*
G36*
X6064808Y1717548D02*
G01*
X6279591Y1717548D01*
X6285890Y1718259D01*
X6291376Y1720189D01*
X6296253Y1723237D01*
X6300368Y1727352D01*
X6303416Y1732229D01*
X6305346Y1737715D01*
X6306058Y1744014D01*
X6306058Y1862785D01*
X6305346Y1869084D01*
X6303416Y1874570D01*
X6300368Y1879447D01*
X6296253Y1883562D01*
X6291376Y1886610D01*
X6285890Y1888540D01*
X6279591Y1889252D01*
X6064808Y1889252D01*
X6058509Y1888540D01*
X6053023Y1886610D01*
X6048146Y1883562D01*
X6044031Y1879447D01*
X6040983Y1874570D01*
X6039053Y1869084D01*
X6038342Y1862785D01*
X6038342Y1744014D01*
X6039053Y1737715D01*
X6040983Y1732229D01*
X6044031Y1727352D01*
X6048146Y1723237D01*
X6053023Y1720189D01*
X6058509Y1718259D01*
G37*
G36*
X4622800Y1876552D02*
G01*
X4636465Y1877466D01*
X4649876Y1880158D01*
X4662830Y1884527D01*
X4675124Y1890572D01*
X4686503Y1898192D01*
X4696764Y1907235D01*
X4705807Y1917496D01*
X4713427Y1928875D01*
X4719472Y1941169D01*
X4723841Y1954123D01*
X4726533Y1967534D01*
X4727448Y1981200D01*
X4726533Y1994865D01*
X4723841Y2008276D01*
X4719472Y2021230D01*
X4713427Y2033524D01*
X4705807Y2044903D01*
X4696764Y2055164D01*
X4686503Y2064207D01*
X4675124Y2071827D01*
X4662830Y2077872D01*
X4649876Y2082241D01*
X4636465Y2084933D01*
X4622800Y2085848D01*
X4609134Y2084933D01*
X4595723Y2082241D01*
X4582769Y2077872D01*
X4570476Y2071827D01*
X4559096Y2064207D01*
X4548835Y2055164D01*
X4539792Y2044903D01*
X4532172Y2033524D01*
X4526127Y2021230D01*
X4521758Y2008276D01*
X4519066Y1994865D01*
X4518152Y1981200D01*
X4519066Y1967534D01*
X4521758Y1954123D01*
X4526127Y1941169D01*
X4532172Y1928875D01*
X4539792Y1917496D01*
X4548835Y1907235D01*
X4559096Y1898192D01*
X4570476Y1890572D01*
X4582769Y1884527D01*
X4595723Y1880158D01*
X4609134Y1877466D01*
G37*
G36*
X4798618Y1876552D02*
G01*
X4954981Y1876552D01*
X4961280Y1877263D01*
X4966766Y1879193D01*
X4971643Y1882241D01*
X4975758Y1886356D01*
X4978806Y1891233D01*
X4980736Y1896719D01*
X4981448Y1903018D01*
X4981448Y2059381D01*
X4980736Y2065680D01*
X4978806Y2071166D01*
X4975758Y2076043D01*
X4971643Y2080158D01*
X4966766Y2083206D01*
X4961280Y2085136D01*
X4954981Y2085848D01*
X4925364Y2085848D01*
X4921504Y2086610D01*
X4918202Y2088845D01*
X4915966Y2092096D01*
X4915204Y2096007D01*
X4915204Y2131415D01*
X4915916Y2135073D01*
X4917897Y2138273D01*
X4920894Y2140508D01*
X4929124Y2144572D01*
X4940503Y2152192D01*
X4950764Y2161235D01*
X4959807Y2171496D01*
X4967427Y2182876D01*
X4973472Y2195169D01*
X4977841Y2208123D01*
X4980533Y2221534D01*
X4981448Y2235200D01*
X4980533Y2248865D01*
X4977841Y2262276D01*
X4973472Y2275230D01*
X4967427Y2287524D01*
X4959807Y2298903D01*
X4950764Y2309164D01*
X4940503Y2318207D01*
X4929124Y2325827D01*
X4920894Y2329891D01*
X4917897Y2332126D01*
X4915916Y2335276D01*
X4915204Y2338984D01*
X4915204Y2385415D01*
X4915916Y2389073D01*
X4917897Y2392273D01*
X4920894Y2394508D01*
X4929124Y2398572D01*
X4940503Y2406192D01*
X4950764Y2415235D01*
X4959807Y2425496D01*
X4967427Y2436876D01*
X4973472Y2449169D01*
X4977841Y2462123D01*
X4980533Y2475534D01*
X4981448Y2489200D01*
X4980533Y2502865D01*
X4977841Y2516276D01*
X4973472Y2529230D01*
X4967427Y2541524D01*
X4959807Y2552903D01*
X4950764Y2563164D01*
X4940503Y2572207D01*
X4929124Y2579827D01*
X4916830Y2585872D01*
X4903876Y2590241D01*
X4890465Y2592933D01*
X4876800Y2593848D01*
X4863134Y2592933D01*
X4849723Y2590241D01*
X4836769Y2585872D01*
X4824476Y2579827D01*
X4813096Y2572207D01*
X4802835Y2563164D01*
X4793792Y2552903D01*
X4786172Y2541524D01*
X4780127Y2529230D01*
X4775758Y2516276D01*
X4773066Y2502865D01*
X4772152Y2489200D01*
X4773066Y2475534D01*
X4775758Y2462123D01*
X4780127Y2449169D01*
X4786172Y2436876D01*
X4793792Y2425496D01*
X4802835Y2415235D01*
X4813096Y2406192D01*
X4824476Y2398572D01*
X4832705Y2394508D01*
X4835702Y2392273D01*
X4837684Y2389073D01*
X4838395Y2385415D01*
X4838395Y2338984D01*
X4837684Y2335276D01*
X4835702Y2332126D01*
X4832705Y2329891D01*
X4824476Y2325827D01*
X4813096Y2318207D01*
X4802835Y2309164D01*
X4793792Y2298903D01*
X4786172Y2287524D01*
X4780127Y2275230D01*
X4775758Y2262276D01*
X4773066Y2248865D01*
X4772152Y2235200D01*
X4773066Y2221534D01*
X4775758Y2208123D01*
X4780127Y2195169D01*
X4786172Y2182876D01*
X4793792Y2171496D01*
X4802835Y2161235D01*
X4813096Y2152192D01*
X4824476Y2144572D01*
X4832705Y2140508D01*
X4835702Y2138273D01*
X4837684Y2135073D01*
X4838395Y2131415D01*
X4838395Y2096007D01*
X4837633Y2092096D01*
X4835398Y2088845D01*
X4832096Y2086610D01*
X4828235Y2085848D01*
X4798618Y2085848D01*
X4792319Y2085136D01*
X4786833Y2083206D01*
X4781956Y2080158D01*
X4777841Y2076043D01*
X4774793Y2071166D01*
X4772863Y2065680D01*
X4772152Y2059381D01*
X4772152Y1903018D01*
X4772863Y1896719D01*
X4774793Y1891233D01*
X4777841Y1886356D01*
X4781956Y1882241D01*
X4786833Y1879193D01*
X4792319Y1877263D01*
G37*
G36*
X6064808Y1918207D02*
G01*
X6279591Y1918207D01*
X6285890Y1918919D01*
X6291376Y1920849D01*
X6296253Y1923897D01*
X6300368Y1928012D01*
X6303416Y1932889D01*
X6305346Y1938375D01*
X6306058Y1944674D01*
X6306058Y2063445D01*
X6305346Y2069744D01*
X6303416Y2075230D01*
X6300368Y2080107D01*
X6296253Y2084222D01*
X6291376Y2087270D01*
X6285890Y2089200D01*
X6279591Y2089912D01*
X6064808Y2089912D01*
X6058509Y2089200D01*
X6053023Y2087270D01*
X6048146Y2084222D01*
X6044031Y2080107D01*
X6040983Y2075230D01*
X6039053Y2069744D01*
X6038342Y2063445D01*
X6038342Y1944674D01*
X6039053Y1938375D01*
X6040983Y1932889D01*
X6044031Y1928012D01*
X6048146Y1923897D01*
X6053023Y1920849D01*
X6058509Y1918919D01*
G37*
G36*
X304800Y1945792D02*
G01*
X317093Y1946656D01*
X329082Y1949297D01*
X340614Y1953564D01*
X351383Y1959457D01*
X361238Y1966823D01*
X369976Y1975561D01*
X377342Y1985416D01*
X383235Y1996186D01*
X387502Y2007717D01*
X390144Y2019706D01*
X391007Y2032000D01*
X390144Y2044293D01*
X387502Y2056282D01*
X383235Y2067814D01*
X377342Y2078583D01*
X369976Y2088438D01*
X361238Y2097125D01*
X351383Y2104542D01*
X340614Y2110435D01*
X329082Y2114702D01*
X317093Y2117344D01*
X304800Y2118207D01*
X292506Y2117344D01*
X280517Y2114702D01*
X268986Y2110435D01*
X258216Y2104542D01*
X248361Y2097125D01*
X239674Y2088438D01*
X232257Y2078583D01*
X226364Y2067814D01*
X222097Y2056282D01*
X219456Y2044293D01*
X218592Y2032000D01*
X219456Y2019706D01*
X222097Y2007717D01*
X226364Y1996186D01*
X232257Y1985416D01*
X239674Y1975561D01*
X248361Y1966823D01*
X258216Y1959457D01*
X268986Y1953564D01*
X280517Y1949297D01*
X292506Y1946656D01*
G37*
G36*
X2070100Y1966112D02*
G01*
X2084476Y1967026D01*
X2098649Y1969719D01*
X2112365Y1974189D01*
X2125421Y1980285D01*
X2137562Y1988007D01*
X2148687Y1997202D01*
X2158542Y2007717D01*
X2167026Y2019401D01*
X2173986Y2032000D01*
X2179269Y2045411D01*
X2182876Y2059381D01*
X2184654Y2073706D01*
X2184654Y2088083D01*
X2182876Y2102408D01*
X2179269Y2116378D01*
X2173986Y2129790D01*
X2167026Y2142388D01*
X2158542Y2154072D01*
X2148687Y2164588D01*
X2137562Y2173782D01*
X2125421Y2181504D01*
X2112365Y2187600D01*
X2098649Y2192070D01*
X2084476Y2194763D01*
X2070100Y2195677D01*
X2055723Y2194763D01*
X2041550Y2192070D01*
X2027834Y2187600D01*
X2014778Y2181504D01*
X2002637Y2173782D01*
X1991512Y2164588D01*
X1981657Y2154072D01*
X1973173Y2142388D01*
X1966214Y2129790D01*
X1960930Y2116378D01*
X1957324Y2102408D01*
X1955546Y2088083D01*
X1955546Y2073706D01*
X1957324Y2059381D01*
X1960930Y2045411D01*
X1966214Y2032000D01*
X1973173Y2019401D01*
X1981657Y2007717D01*
X1991512Y1997202D01*
X2002637Y1988007D01*
X2014778Y1980285D01*
X2027834Y1974189D01*
X2041550Y1969719D01*
X2055723Y1967026D01*
G37*
G36*
X3543300Y1978202D02*
G01*
X3543300Y2030069D01*
X3491280Y2030069D01*
X3497173Y2019401D01*
X3505657Y2007717D01*
X3515512Y1997202D01*
X3526637Y1988007D01*
X3538778Y1980285D01*
G37*
G36*
X3644900Y1978202D02*
G01*
X3649421Y1980285D01*
X3661562Y1988007D01*
X3672687Y1997202D01*
X3682542Y2007717D01*
X3691026Y2019401D01*
X3696919Y2030069D01*
X3644900Y2030069D01*
G37*
G36*
X4152900Y2053132D02*
G01*
X4166717Y2053996D01*
X4180281Y2056739D01*
X4193438Y2061159D01*
X4205833Y2067306D01*
X4217365Y2074976D01*
X4227779Y2084120D01*
X4236923Y2094534D01*
X4244594Y2106066D01*
X4250740Y2118461D01*
X4255160Y2131618D01*
X4257903Y2145182D01*
X4258767Y2159000D01*
X4257903Y2172817D01*
X4255160Y2186381D01*
X4250740Y2199538D01*
X4244594Y2211933D01*
X4236923Y2223465D01*
X4227779Y2233879D01*
X4217365Y2243023D01*
X4205833Y2250694D01*
X4193438Y2256840D01*
X4180281Y2261260D01*
X4166717Y2264003D01*
X4152900Y2264867D01*
X4139082Y2264003D01*
X4125518Y2261260D01*
X4112361Y2256840D01*
X4099966Y2250694D01*
X4088434Y2243023D01*
X4078020Y2233879D01*
X4068876Y2223465D01*
X4061206Y2211933D01*
X4055059Y2199538D01*
X4050639Y2186381D01*
X4047896Y2172817D01*
X4047032Y2159000D01*
X4047896Y2145182D01*
X4050639Y2131618D01*
X4055059Y2118461D01*
X4061206Y2106066D01*
X4068876Y2094534D01*
X4078020Y2084120D01*
X4088434Y2074976D01*
X4099966Y2067306D01*
X4112361Y2061159D01*
X4125518Y2056739D01*
X4139082Y2053996D01*
G37*
G36*
X6064808Y2118868D02*
G01*
X6279591Y2118868D01*
X6285890Y2119579D01*
X6291376Y2121509D01*
X6296253Y2124557D01*
X6300368Y2128672D01*
X6303416Y2133549D01*
X6305346Y2139035D01*
X6306058Y2145334D01*
X6306058Y2264105D01*
X6305346Y2270404D01*
X6303416Y2275890D01*
X6300368Y2280767D01*
X6296253Y2284882D01*
X6291376Y2287930D01*
X6285890Y2289860D01*
X6279591Y2290572D01*
X6064808Y2290572D01*
X6058509Y2289860D01*
X6053023Y2287930D01*
X6048146Y2284882D01*
X6044031Y2280767D01*
X6040983Y2275890D01*
X6039053Y2270404D01*
X6038342Y2264105D01*
X6038342Y2145334D01*
X6039053Y2139035D01*
X6040983Y2133549D01*
X6044031Y2128672D01*
X6048146Y2124557D01*
X6053023Y2121509D01*
X6058509Y2119579D01*
G37*
G36*
X4622800Y2130552D02*
G01*
X4636465Y2131466D01*
X4649876Y2134158D01*
X4662830Y2138527D01*
X4675124Y2144572D01*
X4686503Y2152192D01*
X4696764Y2161235D01*
X4705807Y2171496D01*
X4713427Y2182876D01*
X4719472Y2195169D01*
X4723841Y2208123D01*
X4726533Y2221534D01*
X4727448Y2235200D01*
X4726533Y2248865D01*
X4723841Y2262276D01*
X4719472Y2275230D01*
X4713427Y2287524D01*
X4705807Y2298903D01*
X4696764Y2309164D01*
X4686503Y2318207D01*
X4675124Y2325827D01*
X4662830Y2331872D01*
X4649876Y2336241D01*
X4636465Y2338933D01*
X4622800Y2339848D01*
X4609134Y2338933D01*
X4595723Y2336241D01*
X4582769Y2331872D01*
X4570476Y2325827D01*
X4559096Y2318207D01*
X4548835Y2309164D01*
X4539792Y2298903D01*
X4532172Y2287524D01*
X4526127Y2275230D01*
X4521758Y2262276D01*
X4519066Y2248865D01*
X4518152Y2235200D01*
X4519066Y2221534D01*
X4521758Y2208123D01*
X4526127Y2195169D01*
X4532172Y2182876D01*
X4539792Y2171496D01*
X4548835Y2161235D01*
X4559096Y2152192D01*
X4570476Y2144572D01*
X4582769Y2138527D01*
X4595723Y2134158D01*
X4609134Y2131466D01*
G37*
G36*
X3491280Y2131669D02*
G01*
X3543300Y2131669D01*
X3543300Y2183587D01*
X3538778Y2181504D01*
X3526637Y2173782D01*
X3515512Y2164588D01*
X3505657Y2154072D01*
X3497173Y2142388D01*
G37*
G36*
X3644900Y2131669D02*
G01*
X3696919Y2131669D01*
X3691026Y2142388D01*
X3682542Y2154072D01*
X3672687Y2164588D01*
X3661562Y2173782D01*
X3649421Y2181504D01*
X3644900Y2183587D01*
G37*
G36*
X304800Y2199792D02*
G01*
X317093Y2200656D01*
X329082Y2203297D01*
X340614Y2207564D01*
X351383Y2213457D01*
X361238Y2220823D01*
X369976Y2229561D01*
X377342Y2239416D01*
X383235Y2250186D01*
X387502Y2261717D01*
X390144Y2273706D01*
X391007Y2286000D01*
X390144Y2298293D01*
X387502Y2310282D01*
X383235Y2321814D01*
X377342Y2332583D01*
X369976Y2342438D01*
X361238Y2351125D01*
X351383Y2358542D01*
X340614Y2364435D01*
X329082Y2368702D01*
X317093Y2371344D01*
X304800Y2372207D01*
X292506Y2371344D01*
X280517Y2368702D01*
X268986Y2364435D01*
X258216Y2358542D01*
X248361Y2351125D01*
X239674Y2342438D01*
X232257Y2332583D01*
X226364Y2321814D01*
X222097Y2310282D01*
X219456Y2298293D01*
X218592Y2286000D01*
X219456Y2273706D01*
X222097Y2261717D01*
X226364Y2250186D01*
X232257Y2239416D01*
X239674Y2229561D01*
X248361Y2220823D01*
X258216Y2213457D01*
X268986Y2207564D01*
X280517Y2203297D01*
X292506Y2200656D01*
G37*
G36*
X2070100Y2220112D02*
G01*
X2084476Y2221026D01*
X2098649Y2223719D01*
X2112365Y2228189D01*
X2125421Y2234285D01*
X2137562Y2242007D01*
X2148687Y2251202D01*
X2158542Y2261717D01*
X2167026Y2273401D01*
X2173986Y2286000D01*
X2179269Y2299411D01*
X2182876Y2313381D01*
X2184654Y2327706D01*
X2184654Y2342083D01*
X2182876Y2356408D01*
X2179269Y2370378D01*
X2173986Y2383790D01*
X2167026Y2396388D01*
X2158542Y2408072D01*
X2148687Y2418588D01*
X2137562Y2427782D01*
X2125421Y2435504D01*
X2112365Y2441600D01*
X2098649Y2446070D01*
X2084476Y2448763D01*
X2070100Y2449677D01*
X2055723Y2448763D01*
X2041550Y2446070D01*
X2027834Y2441600D01*
X2014778Y2435504D01*
X2002637Y2427782D01*
X1991512Y2418588D01*
X1981657Y2408072D01*
X1973173Y2396388D01*
X1966214Y2383790D01*
X1960930Y2370378D01*
X1957324Y2356408D01*
X1955546Y2342083D01*
X1955546Y2327706D01*
X1957324Y2313381D01*
X1960930Y2299411D01*
X1966214Y2286000D01*
X1973173Y2273401D01*
X1981657Y2261717D01*
X1991512Y2251202D01*
X2002637Y2242007D01*
X2014778Y2234285D01*
X2027834Y2228189D01*
X2041550Y2223719D01*
X2055723Y2221026D01*
G37*
G36*
X4152900Y2307132D02*
G01*
X4166717Y2307996D01*
X4180281Y2310739D01*
X4193438Y2315159D01*
X4205833Y2321306D01*
X4217365Y2328976D01*
X4227779Y2338120D01*
X4236923Y2348534D01*
X4244594Y2360066D01*
X4250740Y2372461D01*
X4255160Y2385618D01*
X4257903Y2399182D01*
X4258767Y2413000D01*
X4257903Y2426817D01*
X4255160Y2440381D01*
X4250740Y2453538D01*
X4244594Y2465933D01*
X4236923Y2477465D01*
X4227779Y2487879D01*
X4217365Y2497023D01*
X4205833Y2504694D01*
X4193438Y2510840D01*
X4180281Y2515260D01*
X4166717Y2518003D01*
X4152900Y2518867D01*
X4139082Y2518003D01*
X4125518Y2515260D01*
X4112361Y2510840D01*
X4099966Y2504694D01*
X4088434Y2497023D01*
X4078020Y2487879D01*
X4068876Y2477465D01*
X4061206Y2465933D01*
X4055059Y2453538D01*
X4050639Y2440381D01*
X4047896Y2426817D01*
X4047032Y2413000D01*
X4047896Y2399182D01*
X4050639Y2385618D01*
X4055059Y2372461D01*
X4061206Y2360066D01*
X4068876Y2348534D01*
X4078020Y2338120D01*
X4088434Y2328976D01*
X4099966Y2321306D01*
X4112361Y2315159D01*
X4125518Y2310739D01*
X4139082Y2307996D01*
G37*
G36*
X4544618Y2384552D02*
G01*
X4700981Y2384552D01*
X4707280Y2385263D01*
X4712766Y2387193D01*
X4717643Y2390241D01*
X4721758Y2394356D01*
X4724806Y2399233D01*
X4726736Y2404719D01*
X4727448Y2411018D01*
X4727448Y2567381D01*
X4726736Y2573680D01*
X4724806Y2579166D01*
X4721758Y2584043D01*
X4717643Y2588158D01*
X4712766Y2591206D01*
X4707280Y2593136D01*
X4700981Y2593848D01*
X4544618Y2593848D01*
X4538319Y2593136D01*
X4532833Y2591206D01*
X4527956Y2588158D01*
X4523841Y2584043D01*
X4520793Y2579166D01*
X4518863Y2573680D01*
X4518152Y2567381D01*
X4518152Y2411018D01*
X4518863Y2404719D01*
X4520793Y2399233D01*
X4523841Y2394356D01*
X4527956Y2390241D01*
X4532833Y2387193D01*
X4538319Y2385263D01*
G37*
G36*
X341325Y2461971D02*
G01*
X351383Y2467457D01*
X361238Y2474823D01*
X369976Y2483561D01*
X377342Y2493416D01*
X382828Y2503474D01*
X341325Y2503474D01*
G37*
G36*
X268274Y2461971D02*
G01*
X268274Y2503474D01*
X226771Y2503474D01*
X232257Y2493416D01*
X239674Y2483561D01*
X248361Y2474823D01*
X258216Y2467457D01*
G37*
G36*
X2070100Y2474112D02*
G01*
X2084476Y2475026D01*
X2098649Y2477719D01*
X2112365Y2482189D01*
X2125421Y2488285D01*
X2137562Y2496007D01*
X2148687Y2505202D01*
X2158542Y2515717D01*
X2167026Y2527401D01*
X2173986Y2540000D01*
X2179269Y2553411D01*
X2182876Y2567381D01*
X2184654Y2581706D01*
X2184654Y2596083D01*
X2182876Y2610408D01*
X2179269Y2624378D01*
X2173986Y2637790D01*
X2167026Y2650388D01*
X2158542Y2662072D01*
X2148687Y2672588D01*
X2137562Y2681782D01*
X2125421Y2689504D01*
X2112365Y2695600D01*
X2098649Y2700070D01*
X2084476Y2702763D01*
X2070100Y2703677D01*
X2055723Y2702763D01*
X2041550Y2700070D01*
X2027834Y2695600D01*
X2014778Y2689504D01*
X2002637Y2681782D01*
X1991512Y2672588D01*
X1981657Y2662072D01*
X1973173Y2650388D01*
X1966214Y2637790D01*
X1960930Y2624378D01*
X1957324Y2610408D01*
X1955546Y2596083D01*
X1955546Y2581706D01*
X1957324Y2567381D01*
X1960930Y2553411D01*
X1966214Y2540000D01*
X1973173Y2527401D01*
X1981657Y2515717D01*
X1991512Y2505202D01*
X2002637Y2496007D01*
X2014778Y2488285D01*
X2027834Y2482189D01*
X2041550Y2477719D01*
X2055723Y2475026D01*
G37*
G36*
X3594100Y2474112D02*
G01*
X3608476Y2475026D01*
X3622649Y2477719D01*
X3636365Y2482189D01*
X3649421Y2488285D01*
X3661562Y2496007D01*
X3672687Y2505202D01*
X3682542Y2515717D01*
X3691026Y2527401D01*
X3697986Y2540000D01*
X3703269Y2553411D01*
X3706876Y2567381D01*
X3708654Y2581706D01*
X3708654Y2596083D01*
X3706876Y2610408D01*
X3703269Y2624378D01*
X3697986Y2637790D01*
X3691026Y2650388D01*
X3682542Y2662072D01*
X3672687Y2672588D01*
X3661562Y2681782D01*
X3649421Y2689504D01*
X3636365Y2695600D01*
X3622649Y2700070D01*
X3608476Y2702763D01*
X3594100Y2703677D01*
X3579723Y2702763D01*
X3565550Y2700070D01*
X3551834Y2695600D01*
X3538778Y2689504D01*
X3526637Y2681782D01*
X3515512Y2672588D01*
X3505657Y2662072D01*
X3497173Y2650388D01*
X3490214Y2637790D01*
X3484930Y2624378D01*
X3481324Y2610408D01*
X3479546Y2596083D01*
X3479546Y2581706D01*
X3481324Y2567381D01*
X3484930Y2553411D01*
X3490214Y2540000D01*
X3497173Y2527401D01*
X3505657Y2515717D01*
X3515512Y2505202D01*
X3526637Y2496007D01*
X3538778Y2488285D01*
X3551834Y2482189D01*
X3565550Y2477719D01*
X3579723Y2475026D01*
G37*
G36*
X4152900Y2561132D02*
G01*
X4166717Y2561996D01*
X4180281Y2564739D01*
X4193438Y2569159D01*
X4205833Y2575306D01*
X4217365Y2582976D01*
X4227779Y2592120D01*
X4236923Y2602534D01*
X4244594Y2614066D01*
X4250740Y2626461D01*
X4255160Y2639618D01*
X4257903Y2653182D01*
X4258767Y2667000D01*
X4257903Y2680817D01*
X4255160Y2694381D01*
X4250740Y2707538D01*
X4244594Y2719933D01*
X4236923Y2731465D01*
X4227779Y2741879D01*
X4217365Y2751023D01*
X4205833Y2758694D01*
X4193438Y2764840D01*
X4180281Y2769260D01*
X4166717Y2772003D01*
X4152900Y2772867D01*
X4139082Y2772003D01*
X4125518Y2769260D01*
X4112361Y2764840D01*
X4099966Y2758694D01*
X4088434Y2751023D01*
X4078020Y2741879D01*
X4068876Y2731465D01*
X4061206Y2719933D01*
X4055059Y2707538D01*
X4050639Y2694381D01*
X4047896Y2680817D01*
X4047032Y2667000D01*
X4047896Y2653182D01*
X4050639Y2639618D01*
X4055059Y2626461D01*
X4061206Y2614066D01*
X4068876Y2602534D01*
X4078020Y2592120D01*
X4088434Y2582976D01*
X4099966Y2575306D01*
X4112361Y2569159D01*
X4125518Y2564739D01*
X4139082Y2561996D01*
G37*
G36*
X5469229Y2572054D02*
G01*
X5475833Y2575306D01*
X5487365Y2582976D01*
X5497779Y2592120D01*
X5506923Y2602534D01*
X5514594Y2614066D01*
X5517845Y2620670D01*
X5469229Y2620670D01*
G37*
G36*
X341325Y2576525D02*
G01*
X382828Y2576525D01*
X377342Y2586583D01*
X369976Y2596438D01*
X361238Y2605125D01*
X351383Y2612542D01*
X341325Y2618028D01*
G37*
G36*
X226771Y2576525D02*
G01*
X268274Y2576525D01*
X268274Y2618028D01*
X258216Y2612542D01*
X248361Y2605125D01*
X239674Y2596438D01*
X232257Y2586583D01*
G37*
G36*
X245059Y2707741D02*
G01*
X364540Y2707741D01*
X370890Y2708503D01*
X376326Y2710383D01*
X381254Y2713482D01*
X385318Y2717546D01*
X388416Y2722473D01*
X390296Y2727909D01*
X391058Y2734259D01*
X391058Y2853740D01*
X390296Y2860090D01*
X388416Y2865526D01*
X385318Y2870454D01*
X381254Y2874518D01*
X376326Y2877616D01*
X370890Y2879496D01*
X364540Y2880207D01*
X245059Y2880207D01*
X238709Y2879496D01*
X233273Y2877616D01*
X228346Y2874518D01*
X224282Y2870454D01*
X221183Y2865526D01*
X219303Y2860090D01*
X218592Y2853740D01*
X218592Y2734259D01*
X219303Y2727909D01*
X221183Y2722473D01*
X224282Y2717546D01*
X228346Y2713482D01*
X233273Y2710383D01*
X238709Y2708503D01*
G37*
G36*
X5469229Y2713329D02*
G01*
X5517845Y2713329D01*
X5514594Y2719933D01*
X5506923Y2731465D01*
X5497779Y2741879D01*
X5487365Y2751023D01*
X5475833Y2758694D01*
X5469229Y2761945D01*
G37*
G36*
X5327954Y2713329D02*
G01*
X5376570Y2713329D01*
X5376570Y2761945D01*
X5369966Y2758694D01*
X5358434Y2751023D01*
X5348020Y2741879D01*
X5338876Y2731465D01*
X5331206Y2719933D01*
G37*
G36*
X2070100Y2728112D02*
G01*
X2084476Y2729026D01*
X2098649Y2731719D01*
X2112365Y2736189D01*
X2125421Y2742285D01*
X2137562Y2750007D01*
X2148687Y2759202D01*
X2158542Y2769717D01*
X2167026Y2781401D01*
X2173986Y2794000D01*
X2179269Y2807411D01*
X2182876Y2821381D01*
X2184654Y2835706D01*
X2184654Y2850083D01*
X2182876Y2864408D01*
X2179269Y2878378D01*
X2173986Y2891790D01*
X2167026Y2904388D01*
X2158542Y2916072D01*
X2148687Y2926588D01*
X2137562Y2935782D01*
X2125421Y2943504D01*
X2112365Y2949600D01*
X2098649Y2954070D01*
X2084476Y2956763D01*
X2070100Y2957677D01*
X2055723Y2956763D01*
X2041550Y2954070D01*
X2027834Y2949600D01*
X2014778Y2943504D01*
X2002637Y2935782D01*
X1991512Y2926588D01*
X1981657Y2916072D01*
X1973173Y2904388D01*
X1966214Y2891790D01*
X1960930Y2878378D01*
X1957324Y2864408D01*
X1955546Y2850083D01*
X1955546Y2835706D01*
X1957324Y2821381D01*
X1960930Y2807411D01*
X1966214Y2794000D01*
X1973173Y2781401D01*
X1981657Y2769717D01*
X1991512Y2759202D01*
X2002637Y2750007D01*
X2014778Y2742285D01*
X2027834Y2736189D01*
X2041550Y2731719D01*
X2055723Y2729026D01*
G37*
G36*
X4152900Y2815132D02*
G01*
X4166717Y2815996D01*
X4180281Y2818739D01*
X4193438Y2823159D01*
X4205833Y2829306D01*
X4217365Y2836976D01*
X4227779Y2846120D01*
X4236923Y2856534D01*
X4244594Y2868066D01*
X4250740Y2880461D01*
X4255160Y2893618D01*
X4257903Y2907182D01*
X4258767Y2921000D01*
X4257903Y2934817D01*
X4255160Y2948381D01*
X4250740Y2961538D01*
X4244594Y2973933D01*
X4236923Y2985465D01*
X4227779Y2995879D01*
X4217365Y3005023D01*
X4205833Y3012694D01*
X4193438Y3018840D01*
X4180281Y3023260D01*
X4166717Y3026003D01*
X4152900Y3026867D01*
X4139082Y3026003D01*
X4125518Y3023260D01*
X4112361Y3018840D01*
X4099966Y3012694D01*
X4088434Y3005023D01*
X4078020Y2995879D01*
X4068876Y2985465D01*
X4061206Y2973933D01*
X4055059Y2961538D01*
X4050639Y2948381D01*
X4047896Y2934817D01*
X4047032Y2921000D01*
X4047896Y2907182D01*
X4050639Y2893618D01*
X4055059Y2880461D01*
X4061206Y2868066D01*
X4068876Y2856534D01*
X4078020Y2846120D01*
X4088434Y2836976D01*
X4099966Y2829306D01*
X4112361Y2823159D01*
X4125518Y2818739D01*
X4139082Y2815996D01*
G37*
G36*
X5422900Y2815132D02*
G01*
X5436717Y2815996D01*
X5450281Y2818739D01*
X5463438Y2823159D01*
X5475833Y2829306D01*
X5487365Y2836976D01*
X5497779Y2846120D01*
X5506923Y2856534D01*
X5514594Y2868066D01*
X5520740Y2880461D01*
X5525160Y2893618D01*
X5527903Y2907182D01*
X5528767Y2921000D01*
X5527903Y2934817D01*
X5525770Y2945485D01*
X5525668Y2948787D01*
X5526633Y2951937D01*
X5528564Y2954629D01*
X5689142Y3115208D01*
X5692292Y3118662D01*
X5694984Y3122168D01*
X5697372Y3125927D01*
X5699404Y3129889D01*
X5701131Y3133953D01*
X5702452Y3138220D01*
X5703417Y3142538D01*
X5703976Y3146958D01*
X5704179Y3151581D01*
X5704179Y4836718D01*
X5703976Y4841341D01*
X5703417Y4845761D01*
X5702452Y4850079D01*
X5701131Y4854346D01*
X5699404Y4858410D01*
X5697372Y4862372D01*
X5694984Y4866132D01*
X5692292Y4869637D01*
X5689142Y4873091D01*
X5528564Y5033670D01*
X5526633Y5036362D01*
X5525668Y5039512D01*
X5525770Y5042814D01*
X5527903Y5053482D01*
X5528767Y5067300D01*
X5527903Y5081117D01*
X5525160Y5094681D01*
X5520740Y5107838D01*
X5514594Y5120233D01*
X5506923Y5131765D01*
X5497779Y5142179D01*
X5487365Y5151323D01*
X5475833Y5158994D01*
X5463438Y5165140D01*
X5450281Y5169560D01*
X5436717Y5172303D01*
X5422900Y5173167D01*
X5409082Y5172303D01*
X5395518Y5169560D01*
X5382361Y5165140D01*
X5369966Y5158994D01*
X5358434Y5151323D01*
X5348020Y5142179D01*
X5338876Y5131765D01*
X5331206Y5120233D01*
X5325059Y5107838D01*
X5320639Y5094681D01*
X5317896Y5081117D01*
X5317032Y5067300D01*
X5317896Y5053482D01*
X5320639Y5039918D01*
X5325059Y5026761D01*
X5331206Y5014366D01*
X5338876Y5002834D01*
X5348020Y4992420D01*
X5358434Y4983276D01*
X5369966Y4975606D01*
X5382361Y4969459D01*
X5395518Y4965039D01*
X5409082Y4962296D01*
X5422900Y4961432D01*
X5436717Y4962296D01*
X5447385Y4964430D01*
X5450687Y4964531D01*
X5453837Y4963566D01*
X5456529Y4961636D01*
X5599379Y4818786D01*
X5601614Y4815535D01*
X5602376Y4811623D01*
X5602376Y3176676D01*
X5601614Y3172764D01*
X5599379Y3169513D01*
X5456529Y3026664D01*
X5453837Y3024733D01*
X5450687Y3023768D01*
X5447385Y3023870D01*
X5436717Y3026003D01*
X5422900Y3026867D01*
X5409082Y3026003D01*
X5395518Y3023260D01*
X5382361Y3018840D01*
X5369966Y3012694D01*
X5358434Y3005023D01*
X5348020Y2995879D01*
X5338876Y2985465D01*
X5331206Y2973933D01*
X5325059Y2961538D01*
X5320639Y2948381D01*
X5317896Y2934817D01*
X5317032Y2921000D01*
X5317896Y2907182D01*
X5320639Y2893618D01*
X5325059Y2880461D01*
X5331206Y2868066D01*
X5338876Y2856534D01*
X5348020Y2846120D01*
X5358434Y2836976D01*
X5369966Y2829306D01*
X5382361Y2823159D01*
X5395518Y2818739D01*
X5409082Y2815996D01*
G37*
G36*
X2070100Y2982112D02*
G01*
X2084476Y2983026D01*
X2098649Y2985719D01*
X2112365Y2990189D01*
X2125421Y2996285D01*
X2137562Y3004007D01*
X2148687Y3013202D01*
X2158542Y3023717D01*
X2167026Y3035401D01*
X2173986Y3048000D01*
X2179269Y3061411D01*
X2182876Y3075381D01*
X2184654Y3089706D01*
X2184654Y3104083D01*
X2182876Y3118408D01*
X2179269Y3132378D01*
X2173986Y3145790D01*
X2167026Y3158388D01*
X2158542Y3170072D01*
X2148687Y3180588D01*
X2137562Y3189782D01*
X2125421Y3197504D01*
X2112365Y3203600D01*
X2098649Y3208070D01*
X2084476Y3210763D01*
X2070100Y3211677D01*
X2055723Y3210763D01*
X2041550Y3208070D01*
X2027834Y3203600D01*
X2014778Y3197504D01*
X2002637Y3189782D01*
X1991512Y3180588D01*
X1981657Y3170072D01*
X1973173Y3158388D01*
X1966214Y3145790D01*
X1960930Y3132378D01*
X1957324Y3118408D01*
X1955546Y3104083D01*
X1955546Y3089706D01*
X1957324Y3075381D01*
X1960930Y3061411D01*
X1966214Y3048000D01*
X1973173Y3035401D01*
X1981657Y3023717D01*
X1991512Y3013202D01*
X2002637Y3004007D01*
X2014778Y2996285D01*
X2027834Y2990189D01*
X2041550Y2985719D01*
X2055723Y2983026D01*
G37*
G36*
X5469229Y3183382D02*
G01*
X5502351Y3183382D01*
X5508650Y3184093D01*
X5514136Y3186023D01*
X5519013Y3189071D01*
X5523128Y3193186D01*
X5526176Y3198063D01*
X5528106Y3203549D01*
X5528818Y3209848D01*
X5528818Y3242970D01*
X5469229Y3242970D01*
G37*
G36*
X5343448Y3183382D02*
G01*
X5376570Y3183382D01*
X5376570Y3242970D01*
X5316982Y3242970D01*
X5316982Y3209848D01*
X5317693Y3203549D01*
X5319623Y3198063D01*
X5322671Y3193186D01*
X5326786Y3189071D01*
X5331663Y3186023D01*
X5337149Y3184093D01*
G37*
G36*
X580390Y3191865D02*
G01*
X604621Y3191865D01*
X628751Y3193846D01*
X652678Y3197707D01*
X676198Y3203498D01*
X699211Y3211220D01*
X721461Y3220669D01*
X742950Y3231946D01*
X763422Y3244900D01*
X782777Y3259480D01*
X800912Y3275533D01*
X817676Y3293008D01*
X833018Y3311753D01*
X846785Y3331718D01*
X858875Y3352698D01*
X869289Y3374593D01*
X877874Y3397250D01*
X884631Y3420516D01*
X889457Y3444240D01*
X892403Y3468268D01*
X893368Y3492500D01*
X892403Y3516731D01*
X889457Y3540760D01*
X884631Y3564483D01*
X877874Y3587750D01*
X869289Y3610406D01*
X858875Y3632301D01*
X846785Y3653282D01*
X833018Y3673246D01*
X817676Y3691991D01*
X800912Y3709466D01*
X782777Y3725519D01*
X763422Y3740099D01*
X742950Y3753053D01*
X721461Y3764330D01*
X699211Y3773779D01*
X676198Y3781501D01*
X652678Y3787292D01*
X628751Y3791153D01*
X604621Y3793134D01*
X580390Y3793134D01*
X556260Y3791153D01*
X532333Y3787292D01*
X508812Y3781501D01*
X485800Y3773779D01*
X463550Y3764330D01*
X442061Y3753053D01*
X421589Y3740099D01*
X402234Y3725519D01*
X384098Y3709466D01*
X367334Y3691991D01*
X351993Y3673246D01*
X338226Y3653282D01*
X326136Y3632301D01*
X315722Y3610406D01*
X307136Y3587750D01*
X300380Y3564483D01*
X295554Y3540760D01*
X292608Y3516731D01*
X291642Y3492500D01*
X292608Y3468268D01*
X295554Y3444240D01*
X300380Y3420516D01*
X307136Y3397250D01*
X315722Y3374593D01*
X326136Y3352698D01*
X338226Y3331718D01*
X351993Y3311753D01*
X367334Y3293008D01*
X384098Y3275533D01*
X402234Y3259480D01*
X421589Y3244900D01*
X442061Y3231946D01*
X463550Y3220669D01*
X485800Y3211220D01*
X508812Y3203498D01*
X532333Y3197707D01*
X556260Y3193846D01*
G37*
G36*
X1168654Y3228492D02*
G01*
X1168654Y3348685D01*
X1048410Y3348685D01*
X1058214Y3331718D01*
X1071981Y3311753D01*
X1087323Y3293008D01*
X1104087Y3275533D01*
X1122222Y3259480D01*
X1141577Y3244900D01*
X1162050Y3231946D01*
G37*
G36*
X1456334Y3228492D02*
G01*
X1462938Y3231946D01*
X1483410Y3244900D01*
X1502765Y3259480D01*
X1520901Y3275533D01*
X1537665Y3293008D01*
X1553006Y3311753D01*
X1566773Y3331718D01*
X1576578Y3348685D01*
X1456334Y3348685D01*
G37*
G36*
X2070100Y3236112D02*
G01*
X2084476Y3237026D01*
X2098649Y3239719D01*
X2112365Y3244189D01*
X2125421Y3250285D01*
X2137562Y3258007D01*
X2148687Y3267202D01*
X2158542Y3277717D01*
X2167026Y3289401D01*
X2173986Y3302000D01*
X2179269Y3315411D01*
X2182876Y3329381D01*
X2184654Y3343706D01*
X2184654Y3358083D01*
X2182876Y3372408D01*
X2179269Y3386378D01*
X2173986Y3399790D01*
X2167026Y3412388D01*
X2158542Y3424072D01*
X2148687Y3434587D01*
X2137562Y3443782D01*
X2125421Y3451504D01*
X2112365Y3457600D01*
X2098649Y3462070D01*
X2084476Y3464763D01*
X2070100Y3465677D01*
X2055723Y3464763D01*
X2041550Y3462070D01*
X2027834Y3457600D01*
X2014778Y3451504D01*
X2002637Y3443782D01*
X1991512Y3434587D01*
X1981657Y3424072D01*
X1973173Y3412388D01*
X1966214Y3399790D01*
X1960930Y3386378D01*
X1957324Y3372408D01*
X1955546Y3358083D01*
X1955546Y3343706D01*
X1957324Y3329381D01*
X1960930Y3315411D01*
X1966214Y3302000D01*
X1973173Y3289401D01*
X1981657Y3277717D01*
X1991512Y3267202D01*
X2002637Y3258007D01*
X2014778Y3250285D01*
X2027834Y3244189D01*
X2041550Y3239719D01*
X2055723Y3237026D01*
G37*
G36*
X5469229Y3335629D02*
G01*
X5528818Y3335629D01*
X5528818Y3368751D01*
X5528106Y3375050D01*
X5526176Y3380536D01*
X5523128Y3385413D01*
X5519013Y3389528D01*
X5514136Y3392576D01*
X5508650Y3394506D01*
X5502351Y3395218D01*
X5469229Y3395218D01*
G37*
G36*
X5316982Y3335629D02*
G01*
X5376570Y3335629D01*
X5376570Y3395218D01*
X5343448Y3395218D01*
X5337149Y3394506D01*
X5331663Y3392576D01*
X5326786Y3389528D01*
X5322671Y3385413D01*
X5319623Y3380536D01*
X5317693Y3375050D01*
X5316982Y3368751D01*
G37*
G36*
X2070100Y3490112D02*
G01*
X2084476Y3491026D01*
X2098649Y3493719D01*
X2112365Y3498189D01*
X2125421Y3504285D01*
X2137562Y3512007D01*
X2148687Y3521201D01*
X2158542Y3531717D01*
X2167026Y3543401D01*
X2173986Y3556000D01*
X2179269Y3569411D01*
X2182876Y3583381D01*
X2184654Y3597706D01*
X2184654Y3612083D01*
X2182876Y3626408D01*
X2179269Y3640378D01*
X2173986Y3653790D01*
X2167026Y3666388D01*
X2158542Y3678072D01*
X2148687Y3688587D01*
X2137562Y3697782D01*
X2125421Y3705504D01*
X2112365Y3711600D01*
X2098649Y3716070D01*
X2084476Y3718763D01*
X2070100Y3719677D01*
X2055723Y3718763D01*
X2041550Y3716070D01*
X2027834Y3711600D01*
X2014778Y3705504D01*
X2002637Y3697782D01*
X1991512Y3688587D01*
X1981657Y3678072D01*
X1973173Y3666388D01*
X1966214Y3653790D01*
X1960930Y3640378D01*
X1957324Y3626408D01*
X1955546Y3612083D01*
X1955546Y3597706D01*
X1957324Y3583381D01*
X1960930Y3569411D01*
X1966214Y3556000D01*
X1973173Y3543401D01*
X1981657Y3531717D01*
X1991512Y3521201D01*
X2002637Y3512007D01*
X2014778Y3504285D01*
X2027834Y3498189D01*
X2041550Y3493719D01*
X2055723Y3491026D01*
G37*
G36*
X1456334Y3636314D02*
G01*
X1576578Y3636314D01*
X1566773Y3653282D01*
X1553006Y3673246D01*
X1537665Y3691991D01*
X1520901Y3709466D01*
X1502765Y3725519D01*
X1483410Y3740099D01*
X1462938Y3753053D01*
X1456334Y3756507D01*
G37*
G36*
X1048410Y3636314D02*
G01*
X1168654Y3636314D01*
X1168654Y3756507D01*
X1162050Y3753053D01*
X1141577Y3740099D01*
X1122222Y3725519D01*
X1104087Y3709466D01*
X1087323Y3691991D01*
X1071981Y3673246D01*
X1058214Y3653282D01*
G37*
G36*
X5422900Y3691432D02*
G01*
X5436717Y3692296D01*
X5450281Y3695039D01*
X5463438Y3699459D01*
X5475833Y3705606D01*
X5487365Y3713276D01*
X5497779Y3722420D01*
X5506923Y3732834D01*
X5514594Y3744366D01*
X5520740Y3756761D01*
X5525160Y3769918D01*
X5527903Y3783482D01*
X5528767Y3797300D01*
X5527903Y3811117D01*
X5525160Y3824681D01*
X5520740Y3837838D01*
X5514594Y3850233D01*
X5506923Y3861765D01*
X5497779Y3872179D01*
X5487365Y3881323D01*
X5475833Y3888994D01*
X5463438Y3895140D01*
X5450281Y3899560D01*
X5436717Y3902303D01*
X5422900Y3903167D01*
X5409082Y3902303D01*
X5395518Y3899560D01*
X5382361Y3895140D01*
X5369966Y3888994D01*
X5358434Y3881323D01*
X5348020Y3872179D01*
X5338876Y3861765D01*
X5331206Y3850233D01*
X5325059Y3837838D01*
X5320639Y3824681D01*
X5317896Y3811117D01*
X5317032Y3797300D01*
X5317896Y3783482D01*
X5320639Y3769918D01*
X5325059Y3756761D01*
X5331206Y3744366D01*
X5338876Y3732834D01*
X5348020Y3722420D01*
X5358434Y3713276D01*
X5369966Y3705606D01*
X5382361Y3699459D01*
X5395518Y3695039D01*
X5409082Y3692296D01*
G37*
G36*
X4152900Y3691432D02*
G01*
X4166717Y3692296D01*
X4180281Y3695039D01*
X4193438Y3699459D01*
X4205833Y3705606D01*
X4217365Y3713276D01*
X4227779Y3722420D01*
X4236923Y3732834D01*
X4244594Y3744366D01*
X4250740Y3756761D01*
X4255160Y3769918D01*
X4257903Y3783482D01*
X4258767Y3797300D01*
X4257903Y3811117D01*
X4255160Y3824681D01*
X4250740Y3837838D01*
X4244594Y3850233D01*
X4236923Y3861765D01*
X4227779Y3872179D01*
X4217365Y3881323D01*
X4205833Y3888994D01*
X4196994Y3893362D01*
X4193997Y3895598D01*
X4192015Y3898798D01*
X4191304Y3902506D01*
X4191304Y3946093D01*
X4192015Y3949801D01*
X4193997Y3953001D01*
X4196994Y3955237D01*
X4205833Y3959606D01*
X4217365Y3967276D01*
X4227779Y3976420D01*
X4236923Y3986834D01*
X4244594Y3998366D01*
X4250740Y4010761D01*
X4255160Y4023918D01*
X4257903Y4037482D01*
X4258767Y4051300D01*
X4257903Y4065117D01*
X4255160Y4078681D01*
X4250740Y4091838D01*
X4244594Y4104233D01*
X4236923Y4115765D01*
X4227779Y4126179D01*
X4217365Y4135323D01*
X4205833Y4142994D01*
X4193438Y4149140D01*
X4180281Y4153560D01*
X4166717Y4156303D01*
X4152900Y4157167D01*
X4139082Y4156303D01*
X4125518Y4153560D01*
X4112361Y4149140D01*
X4099966Y4142994D01*
X4088434Y4135323D01*
X4078020Y4126179D01*
X4068876Y4115765D01*
X4061206Y4104233D01*
X4055059Y4091838D01*
X4050639Y4078681D01*
X4047896Y4065117D01*
X4047032Y4051300D01*
X4047896Y4037482D01*
X4050639Y4023918D01*
X4055059Y4010761D01*
X4061206Y3998366D01*
X4068876Y3986834D01*
X4078020Y3976420D01*
X4088434Y3967276D01*
X4099966Y3959606D01*
X4108805Y3955237D01*
X4111802Y3953001D01*
X4113784Y3949801D01*
X4114495Y3946093D01*
X4114495Y3902506D01*
X4113784Y3898798D01*
X4111802Y3895598D01*
X4108805Y3893362D01*
X4099966Y3888994D01*
X4088434Y3881323D01*
X4078020Y3872179D01*
X4068876Y3861765D01*
X4061206Y3850233D01*
X4055059Y3837838D01*
X4050639Y3824681D01*
X4047896Y3811117D01*
X4047032Y3797300D01*
X4047896Y3783482D01*
X4050639Y3769918D01*
X4055059Y3756761D01*
X4061206Y3744366D01*
X4068876Y3732834D01*
X4078020Y3722420D01*
X4088434Y3713276D01*
X4099966Y3705606D01*
X4112361Y3699459D01*
X4125518Y3695039D01*
X4139082Y3692296D01*
G37*
G36*
X2070100Y3744112D02*
G01*
X2084476Y3745026D01*
X2098649Y3747719D01*
X2112365Y3752189D01*
X2125421Y3758285D01*
X2137562Y3766007D01*
X2148687Y3775201D01*
X2158542Y3785717D01*
X2167026Y3797401D01*
X2173986Y3810000D01*
X2179269Y3823411D01*
X2182876Y3837381D01*
X2184654Y3851706D01*
X2184654Y3866083D01*
X2182876Y3880408D01*
X2179269Y3894378D01*
X2173986Y3907790D01*
X2167026Y3920388D01*
X2158542Y3932072D01*
X2148687Y3942587D01*
X2137562Y3951782D01*
X2125421Y3959504D01*
X2112365Y3965600D01*
X2098649Y3970070D01*
X2084476Y3972763D01*
X2070100Y3973677D01*
X2055723Y3972763D01*
X2041550Y3970070D01*
X2027834Y3965600D01*
X2014778Y3959504D01*
X2002637Y3951782D01*
X1991512Y3942587D01*
X1981657Y3932072D01*
X1973173Y3920388D01*
X1966214Y3907790D01*
X1960930Y3894378D01*
X1957324Y3880408D01*
X1955546Y3866083D01*
X1955546Y3851706D01*
X1957324Y3837381D01*
X1960930Y3823411D01*
X1966214Y3810000D01*
X1973173Y3797401D01*
X1981657Y3785717D01*
X1991512Y3775201D01*
X2002637Y3766007D01*
X2014778Y3758285D01*
X2027834Y3752189D01*
X2041550Y3747719D01*
X2055723Y3745026D01*
G37*
G36*
X4660900Y3921251D02*
G01*
X4674565Y3922166D01*
X4687976Y3924858D01*
X4700930Y3929227D01*
X4713224Y3935272D01*
X4724603Y3942892D01*
X4734864Y3951935D01*
X4743907Y3962196D01*
X4751527Y3973576D01*
X4757572Y3985869D01*
X4761941Y3998823D01*
X4764633Y4012234D01*
X4765548Y4025900D01*
X4764633Y4039565D01*
X4761941Y4052976D01*
X4757572Y4065930D01*
X4751527Y4078224D01*
X4743907Y4089603D01*
X4734864Y4099864D01*
X4724603Y4108907D01*
X4713224Y4116527D01*
X4700930Y4122572D01*
X4687976Y4126941D01*
X4674565Y4129633D01*
X4660900Y4130548D01*
X4647234Y4129633D01*
X4633823Y4126941D01*
X4620869Y4122572D01*
X4608576Y4116527D01*
X4597196Y4108907D01*
X4586935Y4099864D01*
X4577892Y4089603D01*
X4570272Y4078224D01*
X4564227Y4065930D01*
X4559858Y4052976D01*
X4557166Y4039565D01*
X4556252Y4025900D01*
X4557166Y4012234D01*
X4559858Y3998823D01*
X4564227Y3985869D01*
X4570272Y3973576D01*
X4577892Y3962196D01*
X4586935Y3951935D01*
X4597196Y3942892D01*
X4608576Y3935272D01*
X4620869Y3929227D01*
X4633823Y3924858D01*
X4647234Y3922166D01*
G37*
G36*
X6064808Y3945128D02*
G01*
X6279591Y3945128D01*
X6285890Y3945839D01*
X6291376Y3947769D01*
X6296253Y3950817D01*
X6300368Y3954932D01*
X6303416Y3959809D01*
X6305346Y3965295D01*
X6306058Y3971594D01*
X6306058Y4090365D01*
X6305346Y4096664D01*
X6303416Y4102150D01*
X6300368Y4107027D01*
X6296253Y4111142D01*
X6291376Y4114190D01*
X6285890Y4116120D01*
X6279591Y4116832D01*
X6064808Y4116832D01*
X6058509Y4116120D01*
X6053023Y4114190D01*
X6048146Y4111142D01*
X6044031Y4107027D01*
X6040983Y4102150D01*
X6039053Y4096664D01*
X6038342Y4090365D01*
X6038342Y3971594D01*
X6039053Y3965295D01*
X6040983Y3959809D01*
X6044031Y3954932D01*
X6048146Y3950817D01*
X6053023Y3947769D01*
X6058509Y3945839D01*
G37*
G36*
X5422900Y3945432D02*
G01*
X5436717Y3946296D01*
X5450281Y3949039D01*
X5463438Y3953459D01*
X5475833Y3959606D01*
X5487365Y3967276D01*
X5497779Y3976420D01*
X5506923Y3986834D01*
X5514594Y3998366D01*
X5520740Y4010761D01*
X5525160Y4023918D01*
X5527903Y4037482D01*
X5528767Y4051300D01*
X5527903Y4065117D01*
X5525160Y4078681D01*
X5520740Y4091838D01*
X5514594Y4104233D01*
X5506923Y4115765D01*
X5497779Y4126179D01*
X5487365Y4135323D01*
X5475833Y4142994D01*
X5463438Y4149140D01*
X5450281Y4153560D01*
X5436717Y4156303D01*
X5422900Y4157167D01*
X5409082Y4156303D01*
X5395518Y4153560D01*
X5382361Y4149140D01*
X5369966Y4142994D01*
X5358434Y4135323D01*
X5348020Y4126179D01*
X5338876Y4115765D01*
X5331206Y4104233D01*
X5325059Y4091838D01*
X5320639Y4078681D01*
X5317896Y4065117D01*
X5317032Y4051300D01*
X5317896Y4037482D01*
X5320639Y4023918D01*
X5325059Y4010761D01*
X5331206Y3998366D01*
X5338876Y3986834D01*
X5348020Y3976420D01*
X5358434Y3967276D01*
X5369966Y3959606D01*
X5382361Y3953459D01*
X5395518Y3949039D01*
X5409082Y3946296D01*
G37*
G36*
X2070100Y3998112D02*
G01*
X2084476Y3999026D01*
X2098649Y4001719D01*
X2112365Y4006189D01*
X2125421Y4012285D01*
X2137562Y4020007D01*
X2148687Y4029201D01*
X2158542Y4039717D01*
X2167026Y4051401D01*
X2173986Y4064000D01*
X2179269Y4077411D01*
X2182876Y4091381D01*
X2184654Y4105706D01*
X2184654Y4120083D01*
X2182876Y4134408D01*
X2179269Y4148378D01*
X2173986Y4161790D01*
X2167026Y4174388D01*
X2158542Y4186072D01*
X2148687Y4196588D01*
X2137562Y4205782D01*
X2125421Y4213504D01*
X2112365Y4219600D01*
X2098649Y4224070D01*
X2084476Y4226763D01*
X2070100Y4227677D01*
X2055723Y4226763D01*
X2041550Y4224070D01*
X2027834Y4219600D01*
X2014778Y4213504D01*
X2002637Y4205782D01*
X1991512Y4196588D01*
X1981657Y4186072D01*
X1973173Y4174388D01*
X1966214Y4161790D01*
X1960930Y4148378D01*
X1957324Y4134408D01*
X1955546Y4120083D01*
X1955546Y4105706D01*
X1957324Y4091381D01*
X1960930Y4077411D01*
X1966214Y4064000D01*
X1973173Y4051401D01*
X1981657Y4039717D01*
X1991512Y4029201D01*
X2002637Y4020007D01*
X2014778Y4012285D01*
X2027834Y4006189D01*
X2041550Y4001719D01*
X2055723Y3999026D01*
G37*
G36*
X6064808Y4143248D02*
G01*
X6279591Y4143248D01*
X6285890Y4143959D01*
X6291376Y4145889D01*
X6296253Y4148937D01*
X6300368Y4153052D01*
X6303416Y4157929D01*
X6305346Y4163415D01*
X6306058Y4169714D01*
X6306058Y4288485D01*
X6305346Y4294784D01*
X6303416Y4300270D01*
X6300368Y4305147D01*
X6296253Y4309262D01*
X6291376Y4312310D01*
X6285890Y4314240D01*
X6279591Y4314952D01*
X6064808Y4314952D01*
X6058509Y4314240D01*
X6053023Y4312310D01*
X6048146Y4309262D01*
X6044031Y4305147D01*
X6040983Y4300270D01*
X6039053Y4294784D01*
X6038342Y4288485D01*
X6038342Y4169714D01*
X6039053Y4163415D01*
X6040983Y4157929D01*
X6044031Y4153052D01*
X6048146Y4148937D01*
X6053023Y4145889D01*
X6058509Y4143959D01*
G37*
G36*
X4660900Y4175251D02*
G01*
X4674565Y4176166D01*
X4687976Y4178858D01*
X4700930Y4183227D01*
X4713224Y4189272D01*
X4724603Y4196892D01*
X4734864Y4205935D01*
X4743907Y4216196D01*
X4751527Y4227576D01*
X4757572Y4239869D01*
X4761941Y4252823D01*
X4764633Y4266234D01*
X4765548Y4279900D01*
X4764633Y4293565D01*
X4761941Y4306976D01*
X4757572Y4319930D01*
X4751527Y4332224D01*
X4743907Y4343603D01*
X4734864Y4353864D01*
X4724603Y4362907D01*
X4713224Y4370527D01*
X4700930Y4376572D01*
X4687976Y4380941D01*
X4674565Y4383633D01*
X4660900Y4384548D01*
X4647234Y4383633D01*
X4633823Y4380941D01*
X4620869Y4376572D01*
X4608576Y4370527D01*
X4597196Y4362907D01*
X4586935Y4353864D01*
X4577892Y4343603D01*
X4570272Y4332224D01*
X4564227Y4319930D01*
X4559858Y4306976D01*
X4557166Y4293565D01*
X4556252Y4279900D01*
X4557166Y4266234D01*
X4559858Y4252823D01*
X4564227Y4239869D01*
X4570272Y4227576D01*
X4577892Y4216196D01*
X4586935Y4205935D01*
X4597196Y4196892D01*
X4608576Y4189272D01*
X4620869Y4183227D01*
X4633823Y4178858D01*
X4647234Y4176166D01*
G37*
G36*
X5422900Y4199432D02*
G01*
X5436717Y4200296D01*
X5450281Y4203039D01*
X5463438Y4207459D01*
X5475833Y4213606D01*
X5487365Y4221276D01*
X5497779Y4230420D01*
X5506923Y4240834D01*
X5514594Y4252366D01*
X5520740Y4264761D01*
X5525160Y4277918D01*
X5527903Y4291482D01*
X5528767Y4305300D01*
X5527903Y4319117D01*
X5525160Y4332681D01*
X5520740Y4345838D01*
X5514594Y4358233D01*
X5506923Y4369765D01*
X5497779Y4380179D01*
X5487365Y4389323D01*
X5475833Y4396994D01*
X5463438Y4403140D01*
X5450281Y4407560D01*
X5436717Y4410303D01*
X5422900Y4411167D01*
X5409082Y4410303D01*
X5395518Y4407560D01*
X5382361Y4403140D01*
X5369966Y4396994D01*
X5358434Y4389323D01*
X5348020Y4380179D01*
X5338876Y4369765D01*
X5331206Y4358233D01*
X5325059Y4345838D01*
X5320639Y4332681D01*
X5317896Y4319117D01*
X5317032Y4305300D01*
X5317896Y4291482D01*
X5320639Y4277918D01*
X5325059Y4264761D01*
X5331206Y4252366D01*
X5338876Y4240834D01*
X5348020Y4230420D01*
X5358434Y4221276D01*
X5369966Y4213606D01*
X5382361Y4207459D01*
X5395518Y4203039D01*
X5409082Y4200296D01*
G37*
G36*
X4152900Y4199432D02*
G01*
X4166717Y4200296D01*
X4180281Y4203039D01*
X4193438Y4207459D01*
X4205833Y4213606D01*
X4217365Y4221276D01*
X4227779Y4230420D01*
X4236923Y4240834D01*
X4244594Y4252366D01*
X4250740Y4264761D01*
X4255160Y4277918D01*
X4257903Y4291482D01*
X4258767Y4305300D01*
X4257903Y4319117D01*
X4255160Y4332681D01*
X4250740Y4345838D01*
X4244594Y4358233D01*
X4236923Y4369765D01*
X4227779Y4380179D01*
X4217365Y4389323D01*
X4205833Y4396994D01*
X4193438Y4403140D01*
X4180281Y4407560D01*
X4166717Y4410303D01*
X4152900Y4411167D01*
X4139082Y4410303D01*
X4125518Y4407560D01*
X4112361Y4403140D01*
X4099966Y4396994D01*
X4088434Y4389323D01*
X4078020Y4380179D01*
X4068876Y4369765D01*
X4061206Y4358233D01*
X4055059Y4345838D01*
X4050639Y4332681D01*
X4047896Y4319117D01*
X4047032Y4305300D01*
X4047896Y4291482D01*
X4050639Y4277918D01*
X4055059Y4264761D01*
X4061206Y4252366D01*
X4068876Y4240834D01*
X4078020Y4230420D01*
X4088434Y4221276D01*
X4099966Y4213606D01*
X4112361Y4207459D01*
X4125518Y4203039D01*
X4139082Y4200296D01*
G37*
G36*
X2070100Y4252112D02*
G01*
X2084476Y4253026D01*
X2098649Y4255719D01*
X2112365Y4260189D01*
X2125421Y4266285D01*
X2137562Y4274007D01*
X2148687Y4283202D01*
X2158542Y4293717D01*
X2167026Y4305401D01*
X2173986Y4318000D01*
X2179269Y4331411D01*
X2182876Y4345381D01*
X2184654Y4359706D01*
X2184654Y4374083D01*
X2182876Y4388408D01*
X2179269Y4402378D01*
X2173986Y4415790D01*
X2167026Y4428388D01*
X2158542Y4440072D01*
X2148687Y4450588D01*
X2137562Y4459782D01*
X2125421Y4467504D01*
X2112365Y4473600D01*
X2098649Y4478070D01*
X2084476Y4480763D01*
X2070100Y4481677D01*
X2055723Y4480763D01*
X2041550Y4478070D01*
X2027834Y4473600D01*
X2014778Y4467504D01*
X2002637Y4459782D01*
X1991512Y4450588D01*
X1981657Y4440072D01*
X1973173Y4428388D01*
X1966214Y4415790D01*
X1960930Y4402378D01*
X1957324Y4388408D01*
X1955546Y4374083D01*
X1955546Y4359706D01*
X1957324Y4345381D01*
X1960930Y4331411D01*
X1966214Y4318000D01*
X1973173Y4305401D01*
X1981657Y4293717D01*
X1991512Y4283202D01*
X2002637Y4274007D01*
X2014778Y4266285D01*
X2027834Y4260189D01*
X2041550Y4255719D01*
X2055723Y4253026D01*
G37*
G36*
X6064808Y4343908D02*
G01*
X6279591Y4343908D01*
X6285890Y4344619D01*
X6291376Y4346549D01*
X6296253Y4349597D01*
X6300368Y4353712D01*
X6303416Y4358589D01*
X6305346Y4364075D01*
X6306058Y4370374D01*
X6306058Y4489145D01*
X6305346Y4495444D01*
X6303416Y4500930D01*
X6300368Y4505807D01*
X6296253Y4509922D01*
X6291376Y4512970D01*
X6285890Y4514900D01*
X6279591Y4515612D01*
X6064808Y4515612D01*
X6058509Y4514900D01*
X6053023Y4512970D01*
X6048146Y4509922D01*
X6044031Y4505807D01*
X6040983Y4500930D01*
X6039053Y4495444D01*
X6038342Y4489145D01*
X6038342Y4370374D01*
X6039053Y4364075D01*
X6040983Y4358589D01*
X6044031Y4353712D01*
X6048146Y4349597D01*
X6053023Y4346549D01*
X6058509Y4344619D01*
G37*
G36*
X4582718Y4429252D02*
G01*
X4739081Y4429252D01*
X4745380Y4429963D01*
X4750866Y4431893D01*
X4755743Y4434941D01*
X4759858Y4439056D01*
X4762906Y4443933D01*
X4764836Y4449419D01*
X4765548Y4455718D01*
X4765548Y4612081D01*
X4764836Y4618380D01*
X4762906Y4623866D01*
X4759858Y4628743D01*
X4755743Y4632858D01*
X4750866Y4635906D01*
X4745380Y4637836D01*
X4739081Y4638548D01*
X4582718Y4638548D01*
X4576419Y4637836D01*
X4570933Y4635906D01*
X4566056Y4632858D01*
X4561941Y4628743D01*
X4558893Y4623866D01*
X4556963Y4618380D01*
X4556252Y4612081D01*
X4556252Y4455718D01*
X4556963Y4449419D01*
X4558893Y4443933D01*
X4561941Y4439056D01*
X4566056Y4434941D01*
X4570933Y4431893D01*
X4576419Y4429963D01*
G37*
G36*
X5422900Y4453432D02*
G01*
X5436717Y4454296D01*
X5450281Y4457039D01*
X5463438Y4461459D01*
X5475833Y4467606D01*
X5487365Y4475276D01*
X5497779Y4484420D01*
X5506923Y4494834D01*
X5514594Y4506366D01*
X5520740Y4518761D01*
X5525160Y4531918D01*
X5527903Y4545482D01*
X5528767Y4559300D01*
X5527903Y4573117D01*
X5525160Y4586681D01*
X5520740Y4599838D01*
X5514594Y4612233D01*
X5506923Y4623765D01*
X5497779Y4634179D01*
X5487365Y4643323D01*
X5475833Y4650994D01*
X5463438Y4657140D01*
X5450281Y4661560D01*
X5436717Y4664303D01*
X5422900Y4665167D01*
X5409082Y4664303D01*
X5395518Y4661560D01*
X5382361Y4657140D01*
X5369966Y4650994D01*
X5358434Y4643323D01*
X5348020Y4634179D01*
X5338876Y4623765D01*
X5331206Y4612233D01*
X5325059Y4599838D01*
X5320639Y4586681D01*
X5317896Y4573117D01*
X5317032Y4559300D01*
X5317896Y4545482D01*
X5320639Y4531918D01*
X5325059Y4518761D01*
X5331206Y4506366D01*
X5338876Y4494834D01*
X5348020Y4484420D01*
X5358434Y4475276D01*
X5369966Y4467606D01*
X5382361Y4461459D01*
X5395518Y4457039D01*
X5409082Y4454296D01*
G37*
G36*
X4152900Y4453432D02*
G01*
X4166717Y4454296D01*
X4180281Y4457039D01*
X4193438Y4461459D01*
X4205833Y4467606D01*
X4217365Y4475276D01*
X4227779Y4484420D01*
X4236923Y4494834D01*
X4244594Y4506366D01*
X4250740Y4518761D01*
X4255160Y4531918D01*
X4257903Y4545482D01*
X4258767Y4559300D01*
X4257903Y4573117D01*
X4255160Y4586681D01*
X4250740Y4599838D01*
X4244594Y4612233D01*
X4236923Y4623765D01*
X4227779Y4634179D01*
X4217365Y4643323D01*
X4205833Y4650994D01*
X4193438Y4657140D01*
X4180281Y4661560D01*
X4166717Y4664303D01*
X4152900Y4665167D01*
X4139082Y4664303D01*
X4125518Y4661560D01*
X4112361Y4657140D01*
X4099966Y4650994D01*
X4088434Y4643323D01*
X4078020Y4634179D01*
X4068876Y4623765D01*
X4061206Y4612233D01*
X4055059Y4599838D01*
X4050639Y4586681D01*
X4047896Y4573117D01*
X4047032Y4559300D01*
X4047896Y4545482D01*
X4050639Y4531918D01*
X4055059Y4518761D01*
X4061206Y4506366D01*
X4068876Y4494834D01*
X4078020Y4484420D01*
X4088434Y4475276D01*
X4099966Y4467606D01*
X4112361Y4461459D01*
X4125518Y4457039D01*
X4139082Y4454296D01*
G37*
G36*
X2070100Y4506112D02*
G01*
X2084476Y4507026D01*
X2098649Y4509719D01*
X2112365Y4514189D01*
X2125421Y4520285D01*
X2137562Y4528007D01*
X2148687Y4537202D01*
X2158542Y4547717D01*
X2167026Y4559401D01*
X2173986Y4572000D01*
X2179269Y4585411D01*
X2182876Y4599381D01*
X2184654Y4613706D01*
X2184654Y4628083D01*
X2182876Y4642408D01*
X2179269Y4656378D01*
X2173986Y4669790D01*
X2167026Y4682388D01*
X2158542Y4694072D01*
X2148687Y4704588D01*
X2137562Y4713782D01*
X2125421Y4721504D01*
X2112365Y4727600D01*
X2098649Y4732070D01*
X2084476Y4734763D01*
X2070100Y4735677D01*
X2055723Y4734763D01*
X2041550Y4732070D01*
X2027834Y4727600D01*
X2014778Y4721504D01*
X2002637Y4713782D01*
X1991512Y4704588D01*
X1981657Y4694072D01*
X1973173Y4682388D01*
X1966214Y4669790D01*
X1960930Y4656378D01*
X1957324Y4642408D01*
X1955546Y4628083D01*
X1955546Y4613706D01*
X1957324Y4599381D01*
X1960930Y4585411D01*
X1966214Y4572000D01*
X1973173Y4559401D01*
X1981657Y4547717D01*
X1991512Y4537202D01*
X2002637Y4528007D01*
X2014778Y4520285D01*
X2027834Y4514189D01*
X2041550Y4509719D01*
X2055723Y4507026D01*
G37*
G36*
X6064808Y4544568D02*
G01*
X6279591Y4544568D01*
X6285890Y4545279D01*
X6291376Y4547209D01*
X6296253Y4550257D01*
X6300368Y4554372D01*
X6303416Y4559249D01*
X6305346Y4564735D01*
X6306058Y4571034D01*
X6306058Y4689805D01*
X6305346Y4696104D01*
X6303416Y4701590D01*
X6300368Y4706467D01*
X6296253Y4710582D01*
X6291376Y4713630D01*
X6285890Y4715560D01*
X6279591Y4716272D01*
X6064808Y4716272D01*
X6058509Y4715560D01*
X6053023Y4713630D01*
X6048146Y4710582D01*
X6044031Y4706467D01*
X6040983Y4701590D01*
X6039053Y4696104D01*
X6038342Y4689805D01*
X6038342Y4571034D01*
X6039053Y4564735D01*
X6040983Y4559249D01*
X6044031Y4554372D01*
X6048146Y4550257D01*
X6053023Y4547209D01*
X6058509Y4545279D01*
G37*
G36*
X1019759Y4586579D02*
G01*
X1112875Y4586579D01*
X1112875Y4681169D01*
X993292Y4681169D01*
X993292Y4613046D01*
X994003Y4606747D01*
X995934Y4601311D01*
X998982Y4596384D01*
X1003096Y4592320D01*
X1007973Y4589221D01*
X1013460Y4587290D01*
G37*
G36*
X1325575Y4586579D02*
G01*
X1418640Y4586579D01*
X1424940Y4587290D01*
X1430426Y4589221D01*
X1435303Y4592320D01*
X1439418Y4596384D01*
X1442466Y4601311D01*
X1444396Y4606747D01*
X1445107Y4613046D01*
X1445107Y4681169D01*
X1325575Y4681169D01*
G37*
G36*
X4152900Y4707432D02*
G01*
X4166717Y4708296D01*
X4180281Y4711039D01*
X4193438Y4715459D01*
X4205833Y4721606D01*
X4217365Y4729276D01*
X4227779Y4738420D01*
X4236923Y4748834D01*
X4244594Y4760366D01*
X4250740Y4772761D01*
X4255160Y4785918D01*
X4257903Y4799482D01*
X4258767Y4813300D01*
X4257903Y4827117D01*
X4255160Y4840681D01*
X4250740Y4853838D01*
X4244594Y4866233D01*
X4236923Y4877765D01*
X4227779Y4888179D01*
X4217365Y4897323D01*
X4205833Y4904994D01*
X4193438Y4911140D01*
X4180281Y4915560D01*
X4166717Y4918303D01*
X4152900Y4919167D01*
X4139082Y4918303D01*
X4125518Y4915560D01*
X4112361Y4911140D01*
X4099966Y4904994D01*
X4088434Y4897323D01*
X4078020Y4888179D01*
X4068876Y4877765D01*
X4061206Y4866233D01*
X4055059Y4853838D01*
X4050639Y4840681D01*
X4047896Y4827117D01*
X4047032Y4813300D01*
X4047896Y4799482D01*
X4050639Y4785918D01*
X4055059Y4772761D01*
X4061206Y4760366D01*
X4068876Y4748834D01*
X4078020Y4738420D01*
X4088434Y4729276D01*
X4099966Y4721606D01*
X4112361Y4715459D01*
X4125518Y4711039D01*
X4139082Y4708296D01*
G37*
G36*
X5376570Y4718354D02*
G01*
X5376570Y4766970D01*
X5327954Y4766970D01*
X5331206Y4760366D01*
X5338876Y4748834D01*
X5348020Y4738420D01*
X5358434Y4729276D01*
X5369966Y4721606D01*
G37*
G36*
X5469229Y4718354D02*
G01*
X5475833Y4721606D01*
X5487365Y4729276D01*
X5497779Y4738420D01*
X5506923Y4748834D01*
X5514594Y4760366D01*
X5517845Y4766970D01*
X5469229Y4766970D01*
G37*
G36*
X1325575Y4843830D02*
G01*
X1445107Y4843830D01*
X1445107Y4911953D01*
X1444396Y4918252D01*
X1442466Y4923688D01*
X1439418Y4928616D01*
X1435303Y4932680D01*
X1430426Y4935778D01*
X1424940Y4937709D01*
X1418640Y4938420D01*
X1325575Y4938420D01*
G37*
G36*
X993292Y4843830D02*
G01*
X1112875Y4843830D01*
X1112875Y4938420D01*
X1019759Y4938420D01*
X1013460Y4937709D01*
X1007973Y4935778D01*
X1003096Y4932680D01*
X998982Y4928616D01*
X995934Y4923688D01*
X994003Y4918252D01*
X993292Y4911953D01*
G37*
G36*
X5327954Y4859629D02*
G01*
X5376570Y4859629D01*
X5376570Y4908245D01*
X5369966Y4904994D01*
X5358434Y4897323D01*
X5348020Y4888179D01*
X5338876Y4877765D01*
X5331206Y4866233D01*
G37*
G36*
X5469229Y4859629D02*
G01*
X5517845Y4859629D01*
X5514594Y4866233D01*
X5506923Y4877765D01*
X5497779Y4888179D01*
X5487365Y4897323D01*
X5475833Y4904994D01*
X5469229Y4908245D01*
G37*
G36*
X1188720Y5140452D02*
G01*
X1221181Y5140452D01*
X1227480Y5141163D01*
X1232966Y5143093D01*
X1237843Y5146141D01*
X1241958Y5150256D01*
X1245006Y5155133D01*
X1246936Y5160619D01*
X1247648Y5166918D01*
X1247648Y5199380D01*
X1188720Y5199380D01*
G37*
G36*
X1064818Y5140452D02*
G01*
X1097280Y5140452D01*
X1097280Y5199380D01*
X1038352Y5199380D01*
X1038352Y5166918D01*
X1039063Y5160619D01*
X1040993Y5155133D01*
X1044041Y5150256D01*
X1048156Y5146141D01*
X1053033Y5143093D01*
X1058519Y5141163D01*
G37*
G36*
X1651000Y5140452D02*
G01*
X1664665Y5141366D01*
X1678076Y5144058D01*
X1691030Y5148427D01*
X1703324Y5154472D01*
X1714703Y5162092D01*
X1724964Y5171135D01*
X1734007Y5181396D01*
X1741627Y5192776D01*
X1747672Y5205069D01*
X1752041Y5218023D01*
X1754733Y5231434D01*
X1755648Y5245100D01*
X1754733Y5258765D01*
X1752041Y5272176D01*
X1747672Y5285130D01*
X1741627Y5297424D01*
X1734007Y5308803D01*
X1724964Y5319064D01*
X1714703Y5328107D01*
X1703324Y5335727D01*
X1691030Y5341772D01*
X1678076Y5346141D01*
X1664665Y5348833D01*
X1651000Y5349748D01*
X1637334Y5348833D01*
X1623923Y5346141D01*
X1610969Y5341772D01*
X1598676Y5335727D01*
X1587296Y5328107D01*
X1577035Y5319064D01*
X1567992Y5308803D01*
X1560372Y5297424D01*
X1554327Y5285130D01*
X1549958Y5272176D01*
X1547266Y5258765D01*
X1546352Y5245100D01*
X1547266Y5231434D01*
X1549958Y5218023D01*
X1554327Y5205069D01*
X1560372Y5192776D01*
X1567992Y5181396D01*
X1577035Y5171135D01*
X1587296Y5162092D01*
X1598676Y5154472D01*
X1610969Y5148427D01*
X1623923Y5144058D01*
X1637334Y5141366D01*
G37*
G36*
X1397000Y5140452D02*
G01*
X1410665Y5141366D01*
X1424076Y5144058D01*
X1437030Y5148427D01*
X1449324Y5154472D01*
X1460703Y5162092D01*
X1470964Y5171135D01*
X1480007Y5181396D01*
X1487627Y5192776D01*
X1493672Y5205069D01*
X1498041Y5218023D01*
X1500733Y5231434D01*
X1501648Y5245100D01*
X1500733Y5258765D01*
X1498041Y5272176D01*
X1493672Y5285130D01*
X1487627Y5297424D01*
X1480007Y5308803D01*
X1470964Y5319064D01*
X1460703Y5328107D01*
X1449324Y5335727D01*
X1437030Y5341772D01*
X1424076Y5346141D01*
X1410665Y5348833D01*
X1397000Y5349748D01*
X1383334Y5348833D01*
X1369923Y5346141D01*
X1356969Y5341772D01*
X1344676Y5335727D01*
X1333296Y5328107D01*
X1323035Y5319064D01*
X1313992Y5308803D01*
X1306372Y5297424D01*
X1300327Y5285130D01*
X1295958Y5272176D01*
X1293266Y5258765D01*
X1292352Y5245100D01*
X1293266Y5231434D01*
X1295958Y5218023D01*
X1300327Y5205069D01*
X1306372Y5192776D01*
X1313992Y5181396D01*
X1323035Y5171135D01*
X1333296Y5162092D01*
X1344676Y5154472D01*
X1356969Y5148427D01*
X1369923Y5144058D01*
X1383334Y5141366D01*
G37*
G36*
X358902Y5211826D02*
G01*
X377698Y5211826D01*
X396443Y5213756D01*
X414883Y5217515D01*
X432866Y5223154D01*
X450189Y5230622D01*
X466648Y5239766D01*
X482092Y5250484D01*
X496366Y5262778D01*
X509371Y5276392D01*
X520852Y5291328D01*
X530860Y5307279D01*
X539140Y5324195D01*
X545693Y5341874D01*
X550367Y5360060D01*
X553262Y5378704D01*
X554177Y5397500D01*
X553262Y5416296D01*
X550367Y5434939D01*
X545693Y5453126D01*
X539140Y5470804D01*
X530860Y5487720D01*
X520852Y5503672D01*
X509371Y5518607D01*
X496366Y5532221D01*
X482092Y5544515D01*
X466648Y5555234D01*
X450189Y5564378D01*
X432866Y5571845D01*
X414883Y5577484D01*
X396443Y5581243D01*
X377698Y5583174D01*
X358902Y5583174D01*
X340156Y5581243D01*
X321716Y5577484D01*
X303733Y5571845D01*
X286410Y5564378D01*
X269951Y5555234D01*
X254508Y5544515D01*
X240233Y5532221D01*
X227228Y5518607D01*
X215747Y5503672D01*
X205740Y5487720D01*
X197459Y5470804D01*
X190906Y5453126D01*
X186232Y5434939D01*
X183337Y5416296D01*
X182422Y5397500D01*
X183337Y5378704D01*
X186232Y5360060D01*
X190906Y5341874D01*
X197459Y5324195D01*
X205740Y5307279D01*
X215747Y5291328D01*
X227228Y5276392D01*
X240233Y5262778D01*
X254508Y5250484D01*
X269951Y5239766D01*
X286410Y5230622D01*
X303733Y5223154D01*
X321716Y5217515D01*
X340156Y5213756D01*
G37*
G36*
X6251702Y5237226D02*
G01*
X6270498Y5237226D01*
X6289243Y5239156D01*
X6307683Y5242915D01*
X6325666Y5248554D01*
X6342989Y5256022D01*
X6359448Y5265166D01*
X6374892Y5275884D01*
X6389166Y5288178D01*
X6402171Y5301792D01*
X6413652Y5316728D01*
X6423660Y5332679D01*
X6431940Y5349595D01*
X6438493Y5367274D01*
X6443167Y5385460D01*
X6446062Y5404104D01*
X6446977Y5422900D01*
X6446062Y5441696D01*
X6443167Y5460339D01*
X6438493Y5478526D01*
X6431940Y5496204D01*
X6423660Y5513120D01*
X6413652Y5529072D01*
X6402171Y5544007D01*
X6389166Y5557621D01*
X6374892Y5569915D01*
X6359448Y5580634D01*
X6342989Y5589778D01*
X6325666Y5597245D01*
X6307683Y5602884D01*
X6289243Y5606643D01*
X6270498Y5608574D01*
X6251702Y5608574D01*
X6232956Y5606643D01*
X6214516Y5602884D01*
X6196533Y5597245D01*
X6179210Y5589778D01*
X6162751Y5580634D01*
X6147308Y5569915D01*
X6133033Y5557621D01*
X6120028Y5544007D01*
X6108547Y5529072D01*
X6098540Y5513120D01*
X6090259Y5496204D01*
X6083706Y5478526D01*
X6079032Y5460339D01*
X6076137Y5441696D01*
X6075222Y5422900D01*
X6076137Y5404104D01*
X6079032Y5385460D01*
X6083706Y5367274D01*
X6090259Y5349595D01*
X6098540Y5332679D01*
X6108547Y5316728D01*
X6120028Y5301792D01*
X6133033Y5288178D01*
X6147308Y5275884D01*
X6162751Y5265166D01*
X6179210Y5256022D01*
X6196533Y5248554D01*
X6214516Y5242915D01*
X6232956Y5239156D01*
G37*
G36*
X1038352Y5290820D02*
G01*
X1097280Y5290820D01*
X1097280Y5349748D01*
X1064818Y5349748D01*
X1058519Y5349036D01*
X1053033Y5347106D01*
X1048156Y5344058D01*
X1044041Y5339943D01*
X1040993Y5335066D01*
X1039063Y5329580D01*
X1038352Y5323281D01*
G37*
G36*
X1188720Y5290820D02*
G01*
X1247648Y5290820D01*
X1247648Y5323281D01*
X1246936Y5329580D01*
X1245006Y5335066D01*
X1241958Y5339943D01*
X1237843Y5344058D01*
X1232966Y5347106D01*
X1227480Y5349036D01*
X1221181Y5349748D01*
X1188720Y5349748D01*
G37*

%LPD*%
D10*
X4152900Y1397000D02*
G01*
X3977131Y1572768D01*
X3977131Y3096768D01*
X5200650Y254000D02*
G01*
X5200650Y349250D01*
X4152900Y1397000D01*
X4438650Y584200D02*
G01*
X3877563Y1145286D01*
X3877563Y1439926D01*
X3804158Y1513331D01*
X3804158Y1870710D01*
X3594100Y2080768D01*
X2070100Y1572768D02*
G01*
X1916176Y1418844D01*
X1916176Y350265D01*
X2132837Y133604D01*
X2800604Y133604D01*
X2946400Y279400D01*
X2070100Y1572768D02*
G01*
X1312418Y2330450D01*
X1312418Y2540000D01*
X5422900Y1143000D02*
G01*
X5573268Y1293368D01*
X5573268Y2516631D01*
X5422900Y2667000D01*
X5422900Y3289300D02*
G01*
X5422900Y3146552D01*
X5422900Y2667000D02*
G01*
X5280152Y2809747D01*
X5280152Y3003804D01*
X5422900Y3146552D01*
X5422900Y4813300D02*
G01*
X5577840Y4658360D01*
X5577840Y3444239D01*
X5422900Y3289300D01*
X4438650Y584200D02*
G01*
X4438650Y254000D01*
X1312418Y2540000D02*
G01*
X1312418Y3492500D01*
X1312418Y2540000D02*
G01*
X304800Y2540000D01*
X1219200Y4762500D02*
G01*
X1219200Y4549647D01*
X1219200Y4549647D02*
G01*
X1159255Y4549647D01*
X948181Y4338573D01*
X948181Y3856736D01*
X1312418Y3492500D01*
X1219200Y4868926D02*
G01*
X1219200Y4762500D01*
X1219200Y4868926D02*
G01*
X1219200Y4975097D01*
X1143000Y5245100D02*
G01*
X1143000Y5051297D01*
X1219200Y4975097D01*
X3594100Y3858768D02*
G01*
X4152900Y3299968D01*
X4152900Y3289300D01*
X3594100Y1318768D02*
G01*
X3442461Y1318768D01*
X2438400Y279400D02*
G01*
X3442461Y1283462D01*
X3442461Y1318768D01*
X3594100Y1572768D02*
G01*
X3621277Y1572768D01*
X3747770Y1446529D01*
X3747770Y1193037D01*
X3031743Y477012D01*
X2890011Y477012D01*
X2692400Y279400D01*
X5200650Y584200D02*
G01*
X5200650Y2495550D01*
X4152900Y3543300D01*
X3594100Y2334768D02*
G01*
X3414522Y2334768D01*
X2730500Y1651000D01*
X4152900Y5067300D02*
G01*
X3559809Y5067300D01*
X3438397Y4945887D01*
X3438397Y2998723D01*
X3594100Y2842768D01*
X4152900Y1143000D02*
G01*
X3954779Y1341120D01*
X3954779Y1469136D01*
X3879595Y1544320D01*
X3879595Y3319271D01*
X3594100Y3604768D01*
D11*
X2857500Y2171700D02*
G01*
X3019297Y2333497D01*
X3019297Y4384802D01*
X2857500Y4546600D01*
D10*
X2070100Y1318768D02*
G01*
X2857500Y2106168D01*
X2857500Y2171700D01*
X5422900Y1397000D02*
G01*
X5278120Y1541779D01*
X5278120Y2646934D01*
X5202681Y2722118D01*
X5202681Y3467862D01*
X5278120Y3543300D01*
X4914900Y4025900D02*
G01*
X5278120Y3662679D01*
X5278120Y3543300D01*
X5278120Y3543300D02*
G01*
X5422900Y3543300D01*
X4914900Y4279900D02*
G01*
X4914900Y4025900D01*
X4914900Y4533900D02*
G01*
X4914900Y4279900D01*
X4876800Y2235200D02*
G01*
X4876800Y2489200D01*
X4876800Y1981200D02*
G01*
X4876800Y2235200D01*
D11*
X5422900Y5067300D02*
G01*
X5653277Y4836921D01*
X5653277Y3151378D01*
X5422900Y2921000D01*
D10*
X4152900Y1651000D02*
G01*
X4152900Y1905000D01*
X4152900Y3797300D02*
G01*
X4152900Y4051300D01*
D11*
X1219200Y4254500D02*
G01*
X2001773Y5037073D01*
X2131313Y5037073D01*
X2857500Y4310887D01*
X2857500Y3530600D01*
D12*
G01*
X5422900Y1143000D03*
D13*
G01*
X4152900Y2921000D03*
G01*
X5422900Y1397000D03*
G01*
X4152900Y2667000D03*
G01*
X5422900Y1651000D03*
G01*
X4152900Y2413000D03*
G01*
X5422900Y1905000D03*
G01*
X4152900Y2159000D03*
G01*
X5422900Y2159000D03*
G01*
X4152900Y1905000D03*
G01*
X5422900Y2413000D03*
G01*
X4152900Y1651000D03*
G01*
X5422900Y2667000D03*
G01*
X4152900Y1397000D03*
G01*
X5422900Y2921000D03*
G01*
X4152900Y1143000D03*
D12*
G01*
X5422900Y3289300D03*
D13*
G01*
X4152900Y5067300D03*
G01*
X5422900Y3543300D03*
G01*
X4152900Y4813300D03*
G01*
X5422900Y3797300D03*
G01*
X4152900Y4559300D03*
G01*
X5422900Y4051300D03*
G01*
X4152900Y4305300D03*
G01*
X5422900Y4305300D03*
G01*
X4152900Y4051300D03*
G01*
X5422900Y4559300D03*
G01*
X4152900Y3797300D03*
G01*
X5422900Y4813300D03*
G01*
X4152900Y3543300D03*
G01*
X5422900Y5067300D03*
G01*
X4152900Y3289300D03*
D14*
G01*
X6172200Y2204720D03*
G01*
X6172200Y2004060D03*
G01*
X6172200Y1803400D03*
G01*
X6172200Y1605279D03*
G01*
X6172200Y4630420D03*
G01*
X6172200Y4429760D03*
G01*
X6172200Y4229100D03*
G01*
X6172200Y4030979D03*
D15*
G01*
X2857500Y3530600D03*
G01*
X2857500Y4546600D03*
D16*
G01*
X4622800Y1981200D03*
G01*
X4622800Y2235200D03*
D17*
G01*
X4622800Y2489200D03*
D16*
G01*
X4660900Y4025900D03*
G01*
X4660900Y4279900D03*
D17*
G01*
X4660900Y4533900D03*
D16*
G01*
X4914900Y4025900D03*
G01*
X4914900Y4279900D03*
D17*
G01*
X4914900Y4533900D03*
D16*
G01*
X4876800Y2489200D03*
G01*
X4876800Y2235200D03*
D17*
G01*
X4876800Y1981200D03*
G01*
X2730500Y1651000D03*
D16*
G01*
X2984500Y1651000D03*
D15*
G01*
X2857500Y2171700D03*
G01*
X2857500Y3187700D03*
D18*
G01*
X3454400Y279400D03*
G01*
X3200400Y279400D03*
G01*
X2946400Y279400D03*
G01*
X2692400Y279400D03*
G01*
X2438400Y279400D03*
G01*
X2184400Y279400D03*
D19*
G01*
X4438650Y254000D03*
G01*
X5200650Y254000D03*
G01*
X4438650Y584200D03*
G01*
X5200650Y584200D03*
D20*
G01*
X1312494Y3492500D03*
G01*
X592505Y3492500D03*
D21*
G01*
X1219200Y4254500D03*
D22*
G01*
X1219200Y4762500D03*
D16*
G01*
X1651000Y5245100D03*
G01*
X1397000Y5245100D03*
D17*
G01*
X1143000Y5245100D03*
D23*
G01*
X2070100Y4874895D03*
G01*
X2070100Y4620895D03*
G01*
X2070100Y4366895D03*
G01*
X2070100Y4112895D03*
G01*
X2070100Y3858895D03*
G01*
X2070100Y3604895D03*
G01*
X2070100Y3350895D03*
G01*
X2070100Y3096895D03*
G01*
X2070100Y2842895D03*
G01*
X2070100Y2588895D03*
G01*
X2070100Y2334895D03*
G01*
X2070100Y2080895D03*
G01*
X2070100Y1826895D03*
G01*
X2070100Y1572895D03*
G01*
X2070100Y1318895D03*
G01*
X3594100Y4874895D03*
G01*
X3594100Y4620895D03*
G01*
X3594100Y4366895D03*
G01*
X3594100Y4112895D03*
G01*
X3594100Y3858895D03*
G01*
X3594100Y3604895D03*
G01*
X3594100Y3350895D03*
G01*
X3594100Y3096895D03*
G01*
X3594100Y2842895D03*
G01*
X3594100Y2588895D03*
G01*
X3594100Y2334895D03*
G01*
X3594100Y2080895D03*
G01*
X3594100Y1826895D03*
G01*
X3594100Y1572895D03*
D24*
G01*
X3594100Y1318895D03*
D25*
G01*
X304800Y2794000D03*
D26*
G01*
X304800Y2540000D03*
G01*
X304800Y2286000D03*
G01*
X304800Y2032000D03*
G01*
X304800Y1778000D03*
G01*
X304800Y1524000D03*
G01*
X304800Y1270000D03*
G01*
X304800Y1016000D03*
D27*
G01*
X3977131Y3096768D03*
M02*
