G04 Layer: TopSilkscreenLayer*
G04 EasyEDA v6.5.38, 2023-12-09 00:29:23*
G04 cc5c81a3f0414725bc0bd174f0517b54,10*
G04 Gerber Generator version 0.2*
G04 Scale: 100 percent, Rotated: No, Reflected: No *
G04 Dimensions in millimeters *
G04 leading zeros omitted , absolute positions ,4 integer and 5 decimal *
%FSLAX45Y45*%
%MOMM*%

%ADD10C,0.2032*%
%ADD11C,0.1524*%
%ADD12C,0.1000*%
%ADD13C,0.1778*%
%ADD14C,0.2540*%
%ADD15C,0.1200*%
%ADD16C,0.2030*%
%ADD17C,0.0161*%

%LPD*%
D10*
X121157Y4355337D02*
G01*
X121157Y4189221D01*
X38100Y4272279D02*
G01*
X204470Y4272279D01*
X121920Y4699000D02*
G01*
X121920Y4865370D01*
X711200Y2737865D02*
G01*
X673862Y2836163D01*
X636270Y2737865D02*
G01*
X673862Y2836163D01*
X535178Y2761234D02*
G01*
X539750Y2751836D01*
X549147Y2742437D01*
X558545Y2737865D01*
X577342Y2737865D01*
X586739Y2742437D01*
X596137Y2751836D01*
X600710Y2761234D01*
X605281Y2775204D01*
X605281Y2798571D01*
X600710Y2812795D01*
X596137Y2822194D01*
X586739Y2831337D01*
X577342Y2836163D01*
X558545Y2836163D01*
X549147Y2831337D01*
X539750Y2822194D01*
X535178Y2812795D01*
X434086Y2761234D02*
G01*
X438657Y2751836D01*
X448055Y2742437D01*
X457454Y2737865D01*
X476250Y2737865D01*
X485647Y2742437D01*
X494792Y2751836D01*
X499618Y2761234D01*
X504189Y2775204D01*
X504189Y2798571D01*
X499618Y2812795D01*
X494792Y2822194D01*
X485647Y2831337D01*
X476250Y2836163D01*
X457454Y2836163D01*
X448055Y2831337D01*
X438657Y2822194D01*
X434086Y2812795D01*
X641095Y2507234D02*
G01*
X645668Y2497836D01*
X655065Y2488437D01*
X664463Y2483865D01*
X683005Y2483865D01*
X692404Y2488437D01*
X701802Y2497836D01*
X706628Y2507234D01*
X711200Y2521204D01*
X711200Y2544571D01*
X706628Y2558795D01*
X701802Y2568194D01*
X692404Y2577337D01*
X683005Y2582163D01*
X664463Y2582163D01*
X655065Y2577337D01*
X645668Y2568194D01*
X641095Y2558795D01*
X641095Y2544571D01*
X664463Y2544571D02*
G01*
X641095Y2544571D01*
X610107Y2483865D02*
G01*
X610107Y2582163D01*
X610107Y2483865D02*
G01*
X544576Y2582163D01*
X544576Y2483865D02*
G01*
X544576Y2582163D01*
X513587Y2483865D02*
G01*
X513587Y2582163D01*
X513587Y2483865D02*
G01*
X480821Y2483865D01*
X466852Y2488437D01*
X457454Y2497836D01*
X452881Y2507234D01*
X448055Y2521204D01*
X448055Y2544571D01*
X452881Y2558795D01*
X457454Y2568194D01*
X466852Y2577337D01*
X480821Y2582163D01*
X513587Y2582163D01*
X645668Y2243836D02*
G01*
X655065Y2234437D01*
X669036Y2229865D01*
X687831Y2229865D01*
X701802Y2234437D01*
X711200Y2243836D01*
X711200Y2253234D01*
X706628Y2262631D01*
X701802Y2267204D01*
X692404Y2272029D01*
X664463Y2281428D01*
X655065Y2286000D01*
X650239Y2290571D01*
X645668Y2299970D01*
X645668Y2314194D01*
X655065Y2323337D01*
X669036Y2328163D01*
X687831Y2328163D01*
X701802Y2323337D01*
X711200Y2314194D01*
X544576Y2253234D02*
G01*
X549147Y2243836D01*
X558545Y2234437D01*
X567944Y2229865D01*
X586739Y2229865D01*
X596137Y2234437D01*
X605281Y2243836D01*
X610107Y2253234D01*
X614679Y2267204D01*
X614679Y2290571D01*
X610107Y2304795D01*
X605281Y2314194D01*
X596137Y2323337D01*
X586739Y2328163D01*
X567944Y2328163D01*
X558545Y2323337D01*
X549147Y2314194D01*
X544576Y2304795D01*
X513587Y2229865D02*
G01*
X513587Y2328163D01*
X513587Y2328163D02*
G01*
X457454Y2328163D01*
X645668Y2040636D02*
G01*
X655065Y2031237D01*
X669036Y2026665D01*
X687831Y2026665D01*
X701802Y2031237D01*
X711200Y2040636D01*
X711200Y2050034D01*
X706628Y2059431D01*
X701802Y2064004D01*
X692404Y2068829D01*
X664463Y2078228D01*
X655065Y2082800D01*
X650239Y2087371D01*
X645668Y2096770D01*
X645668Y2110994D01*
X655065Y2120137D01*
X669036Y2124963D01*
X687831Y2124963D01*
X701802Y2120137D01*
X711200Y2110994D01*
X544576Y2050034D02*
G01*
X549147Y2040636D01*
X558545Y2031237D01*
X567944Y2026665D01*
X586739Y2026665D01*
X596137Y2031237D01*
X605281Y2040636D01*
X610107Y2050034D01*
X614679Y2064004D01*
X614679Y2087371D01*
X610107Y2101595D01*
X605281Y2110994D01*
X596137Y2120137D01*
X586739Y2124963D01*
X567944Y2124963D01*
X558545Y2120137D01*
X549147Y2110994D01*
X544576Y2101595D01*
X476250Y2026665D02*
G01*
X513587Y2124963D01*
X476250Y2026665D02*
G01*
X438657Y2124963D01*
X499618Y2092197D02*
G01*
X452881Y2092197D01*
X711200Y1747265D02*
G01*
X645668Y1845563D01*
X645668Y1747265D02*
G01*
X711200Y1845563D01*
X614679Y1747265D02*
G01*
X614679Y1845563D01*
X614679Y1747265D02*
G01*
X581913Y1747265D01*
X567944Y1751837D01*
X558545Y1761236D01*
X553973Y1770634D01*
X549147Y1784604D01*
X549147Y1807971D01*
X553973Y1822195D01*
X558545Y1831594D01*
X567944Y1840737D01*
X581913Y1845563D01*
X614679Y1845563D01*
X480821Y1747265D02*
G01*
X518413Y1845563D01*
X480821Y1747265D02*
G01*
X443484Y1845563D01*
X504189Y1812797D02*
G01*
X457454Y1812797D01*
X711200Y1467865D02*
G01*
X645668Y1566163D01*
X645668Y1467865D02*
G01*
X711200Y1566163D01*
X544576Y1491234D02*
G01*
X549147Y1481836D01*
X558545Y1472437D01*
X567944Y1467865D01*
X586739Y1467865D01*
X596137Y1472437D01*
X605281Y1481836D01*
X610107Y1491234D01*
X614679Y1505204D01*
X614679Y1528571D01*
X610107Y1542795D01*
X605281Y1552194D01*
X596137Y1561337D01*
X586739Y1566163D01*
X567944Y1566163D01*
X558545Y1561337D01*
X549147Y1552194D01*
X544576Y1542795D01*
X513587Y1467865D02*
G01*
X513587Y1566163D01*
X513587Y1566163D02*
G01*
X457454Y1566163D01*
X699262Y1239265D02*
G01*
X736600Y1337563D01*
X699262Y1239265D02*
G01*
X661670Y1337563D01*
X722629Y1304797D02*
G01*
X675639Y1304797D01*
X630681Y1239265D02*
G01*
X630681Y1337563D01*
X630681Y1239265D02*
G01*
X597915Y1239265D01*
X583945Y1243837D01*
X574547Y1253236D01*
X569976Y1262634D01*
X565150Y1276604D01*
X565150Y1299971D01*
X569976Y1314195D01*
X574547Y1323594D01*
X583945Y1332737D01*
X597915Y1337563D01*
X630681Y1337563D01*
X506221Y1239265D02*
G01*
X515620Y1243837D01*
X525018Y1253236D01*
X529589Y1262634D01*
X534415Y1276604D01*
X534415Y1299971D01*
X529589Y1314195D01*
X525018Y1323594D01*
X515620Y1332737D01*
X506221Y1337563D01*
X487426Y1337563D01*
X478281Y1332737D01*
X468884Y1323594D01*
X464057Y1314195D01*
X459486Y1299971D01*
X459486Y1276604D01*
X464057Y1262634D01*
X468884Y1253236D01*
X478281Y1243837D01*
X487426Y1239265D01*
X506221Y1239265D01*
X711200Y959865D02*
G01*
X711200Y1058163D01*
X680212Y959865D02*
G01*
X680212Y1058163D01*
X680212Y959865D02*
G01*
X614679Y1058163D01*
X614679Y959865D02*
G01*
X614679Y1058163D01*
X551179Y959865D02*
G01*
X551179Y1058163D01*
X583945Y959865D02*
G01*
X518413Y959865D01*
X1188465Y1219200D02*
G01*
X1286763Y1219200D01*
X1188465Y1219200D02*
G01*
X1286763Y1256537D01*
X1188465Y1294129D02*
G01*
X1286763Y1256537D01*
X1188465Y1294129D02*
G01*
X1286763Y1294129D01*
X1188465Y1325118D02*
G01*
X1286763Y1325118D01*
X1188465Y1325118D02*
G01*
X1188465Y1367028D01*
X1193037Y1381252D01*
X1197863Y1385823D01*
X1207262Y1390650D01*
X1221231Y1390650D01*
X1230629Y1385823D01*
X1235202Y1381252D01*
X1240028Y1367028D01*
X1240028Y1325118D01*
X1188465Y1421384D02*
G01*
X1258570Y1421384D01*
X1272794Y1426210D01*
X1281937Y1435607D01*
X1286763Y1449578D01*
X1286763Y1458976D01*
X1281937Y1472945D01*
X1272794Y1482344D01*
X1258570Y1486915D01*
X1188465Y1486915D01*
X1244600Y1517904D02*
G01*
X1244600Y1602231D01*
X1202436Y1689354D02*
G01*
X1193037Y1684528D01*
X1188465Y1670557D01*
X1188465Y1661160D01*
X1193037Y1647189D01*
X1207262Y1637792D01*
X1230629Y1632965D01*
X1253997Y1632965D01*
X1272794Y1637792D01*
X1281937Y1647189D01*
X1286763Y1661160D01*
X1286763Y1665731D01*
X1281937Y1679955D01*
X1272794Y1689354D01*
X1258570Y1693926D01*
X1253997Y1693926D01*
X1240028Y1689354D01*
X1230629Y1679955D01*
X1225804Y1665731D01*
X1225804Y1661160D01*
X1230629Y1647189D01*
X1240028Y1637792D01*
X1253997Y1632965D01*
X1188465Y1752854D02*
G01*
X1193037Y1738884D01*
X1207262Y1729486D01*
X1230629Y1724913D01*
X1244600Y1724913D01*
X1267968Y1729486D01*
X1281937Y1738884D01*
X1286763Y1752854D01*
X1286763Y1762252D01*
X1281937Y1776221D01*
X1267968Y1785620D01*
X1244600Y1790445D01*
X1230629Y1790445D01*
X1207262Y1785620D01*
X1193037Y1776221D01*
X1188465Y1762252D01*
X1188465Y1752854D01*
X1188465Y1877568D02*
G01*
X1188465Y1830578D01*
X1230629Y1826005D01*
X1225804Y1830578D01*
X1221231Y1844802D01*
X1221231Y1858771D01*
X1225804Y1872742D01*
X1235202Y1882139D01*
X1249171Y1886712D01*
X1258570Y1886712D01*
X1272794Y1882139D01*
X1281937Y1872742D01*
X1286763Y1858771D01*
X1286763Y1844802D01*
X1281937Y1830578D01*
X1277365Y1826005D01*
X1267968Y1821179D01*
X1188465Y1945894D02*
G01*
X1193037Y1931670D01*
X1207262Y1922526D01*
X1230629Y1917700D01*
X1244600Y1917700D01*
X1267968Y1922526D01*
X1281937Y1931670D01*
X1286763Y1945894D01*
X1286763Y1955292D01*
X1281937Y1969262D01*
X1267968Y1978660D01*
X1244600Y1983231D01*
X1230629Y1983231D01*
X1207262Y1978660D01*
X1193037Y1969262D01*
X1188465Y1955292D01*
X1188465Y1945894D01*
X1188465Y2086355D02*
G01*
X1286763Y2086355D01*
X1188465Y2086355D02*
G01*
X1286763Y2123694D01*
X1188465Y2161286D02*
G01*
X1286763Y2123694D01*
X1188465Y2161286D02*
G01*
X1286763Y2161286D01*
X1221231Y2215387D02*
G01*
X1225804Y2206244D01*
X1235202Y2196845D01*
X1249171Y2192020D01*
X1258570Y2192020D01*
X1272794Y2196845D01*
X1281937Y2206244D01*
X1286763Y2215387D01*
X1286763Y2229612D01*
X1281937Y2239010D01*
X1272794Y2248154D01*
X1258570Y2252979D01*
X1249171Y2252979D01*
X1235202Y2248154D01*
X1225804Y2239010D01*
X1221231Y2229612D01*
X1221231Y2215387D01*
X1188465Y2340102D02*
G01*
X1286763Y2340102D01*
X1235202Y2340102D02*
G01*
X1225804Y2330704D01*
X1221231Y2321305D01*
X1221231Y2307336D01*
X1225804Y2297937D01*
X1235202Y2288539D01*
X1249171Y2283968D01*
X1258570Y2283968D01*
X1272794Y2288539D01*
X1281937Y2297937D01*
X1286763Y2307336D01*
X1286763Y2321305D01*
X1281937Y2330704D01*
X1272794Y2340102D01*
X1221231Y2370836D02*
G01*
X1267968Y2370836D01*
X1281937Y2375662D01*
X1286763Y2385060D01*
X1286763Y2399029D01*
X1281937Y2408428D01*
X1267968Y2422397D01*
X1221231Y2422397D02*
G01*
X1286763Y2422397D01*
X1188465Y2453386D02*
G01*
X1286763Y2453386D01*
X1249171Y2484120D02*
G01*
X1249171Y2540507D01*
X1240028Y2540507D01*
X1230629Y2535681D01*
X1225804Y2531110D01*
X1221231Y2521712D01*
X1221231Y2507742D01*
X1225804Y2498344D01*
X1235202Y2488945D01*
X1249171Y2484120D01*
X1258570Y2484120D01*
X1272794Y2488945D01*
X1281937Y2498344D01*
X1286763Y2507742D01*
X1286763Y2521712D01*
X1281937Y2531110D01*
X1272794Y2540507D01*
X1391157Y5613400D02*
G01*
X1391157Y5447284D01*
X1308100Y5530342D02*
G01*
X1474470Y5530342D01*
X1041400Y5529579D02*
G01*
X1207770Y5529579D01*
X1729486Y5598411D02*
G01*
X1710944Y5616953D01*
X1683257Y5626097D01*
X1646428Y5626097D01*
X1618742Y5616953D01*
X1600200Y5598411D01*
X1600200Y5580123D01*
X1609344Y5561581D01*
X1618742Y5552183D01*
X1637029Y5543039D01*
X1692655Y5524497D01*
X1710944Y5515353D01*
X1720342Y5506209D01*
X1729486Y5487667D01*
X1729486Y5459981D01*
X1710944Y5441439D01*
X1683257Y5432295D01*
X1646428Y5432295D01*
X1618742Y5441439D01*
X1600200Y5459981D01*
X4115054Y5663184D02*
G01*
X4105909Y5672328D01*
X4092193Y5676900D01*
X4073906Y5676900D01*
X4060443Y5672328D01*
X4051300Y5663184D01*
X4051300Y5654039D01*
X4055872Y5644895D01*
X4060443Y5640578D01*
X4069588Y5636005D01*
X4096765Y5626862D01*
X4105909Y5622289D01*
X4110481Y5617718D01*
X4115054Y5608573D01*
X4115054Y5595112D01*
X4105909Y5585968D01*
X4092193Y5581395D01*
X4073906Y5581395D01*
X4060443Y5585968D01*
X4051300Y5595112D01*
X4145025Y5676900D02*
G01*
X4145025Y5581395D01*
X4145025Y5676900D02*
G01*
X4203954Y5676900D01*
X4145025Y5631434D02*
G01*
X4181347Y5631434D01*
X4145025Y5581395D02*
G01*
X4203954Y5581395D01*
X4233925Y5676900D02*
G01*
X4233925Y5581395D01*
X4233925Y5581395D02*
G01*
X4288536Y5581395D01*
X4318508Y5676900D02*
G01*
X4318508Y5581395D01*
X4318508Y5676900D02*
G01*
X4377690Y5676900D01*
X4318508Y5631434D02*
G01*
X4354829Y5631434D01*
X4477765Y5676900D02*
G01*
X4477765Y5581395D01*
X4477765Y5676900D02*
G01*
X4518659Y5676900D01*
X4532122Y5672328D01*
X4536693Y5667755D01*
X4541265Y5658612D01*
X4541265Y5649468D01*
X4536693Y5640578D01*
X4532122Y5636005D01*
X4518659Y5631434D01*
X4477765Y5631434D02*
G01*
X4518659Y5631434D01*
X4532122Y5626862D01*
X4536693Y5622289D01*
X4541265Y5613145D01*
X4541265Y5599684D01*
X4536693Y5590539D01*
X4532122Y5585968D01*
X4518659Y5581395D01*
X4477765Y5581395D01*
X4607559Y5676900D02*
G01*
X4571238Y5581395D01*
X4607559Y5676900D02*
G01*
X4644136Y5581395D01*
X4584954Y5613145D02*
G01*
X4630420Y5613145D01*
X4674108Y5676900D02*
G01*
X4674108Y5581395D01*
X4674108Y5581395D02*
G01*
X4728463Y5581395D01*
X4795011Y5676900D02*
G01*
X4758690Y5581395D01*
X4795011Y5676900D02*
G01*
X4831334Y5581395D01*
X4772152Y5613145D02*
G01*
X4817618Y5613145D01*
X4861306Y5676900D02*
G01*
X4861306Y5581395D01*
X4861306Y5676900D02*
G01*
X4925059Y5581395D01*
X4925059Y5676900D02*
G01*
X4925059Y5581395D01*
X5023104Y5654039D02*
G01*
X5018531Y5663184D01*
X5009388Y5672328D01*
X5000497Y5676900D01*
X4982209Y5676900D01*
X4973065Y5672328D01*
X4963922Y5663184D01*
X4959604Y5654039D01*
X4955031Y5640578D01*
X4955031Y5617718D01*
X4959604Y5604002D01*
X4963922Y5595112D01*
X4973065Y5585968D01*
X4982209Y5581395D01*
X5000497Y5581395D01*
X5009388Y5585968D01*
X5018531Y5595112D01*
X5023104Y5604002D01*
X5053075Y5676900D02*
G01*
X5053075Y5581395D01*
X5083047Y5676900D02*
G01*
X5083047Y5581395D01*
X5083047Y5676900D02*
G01*
X5146802Y5581395D01*
X5146802Y5676900D02*
G01*
X5146802Y5581395D01*
X5244845Y5654039D02*
G01*
X5240274Y5663184D01*
X5231384Y5672328D01*
X5222240Y5676900D01*
X5203952Y5676900D01*
X5195061Y5672328D01*
X5185918Y5663184D01*
X5181345Y5654039D01*
X5176774Y5640578D01*
X5176774Y5617718D01*
X5181345Y5604002D01*
X5185918Y5595112D01*
X5195061Y5585968D01*
X5203952Y5581395D01*
X5222240Y5581395D01*
X5231384Y5585968D01*
X5240274Y5595112D01*
X5244845Y5604002D01*
X5244845Y5617718D01*
X5222240Y5617718D02*
G01*
X5244845Y5617718D01*
X5344922Y5676900D02*
G01*
X5344922Y5581395D01*
X5344922Y5676900D02*
G01*
X5385815Y5676900D01*
X5399531Y5672328D01*
X5404104Y5667755D01*
X5408675Y5658612D01*
X5408675Y5649468D01*
X5404104Y5640578D01*
X5399531Y5636005D01*
X5385815Y5631434D01*
X5344922Y5631434D02*
G01*
X5385815Y5631434D01*
X5399531Y5626862D01*
X5404104Y5622289D01*
X5408675Y5613145D01*
X5408675Y5599684D01*
X5404104Y5590539D01*
X5399531Y5585968D01*
X5385815Y5581395D01*
X5344922Y5581395D01*
X5465825Y5676900D02*
G01*
X5456681Y5672328D01*
X5447538Y5663184D01*
X5443220Y5654039D01*
X5438647Y5640578D01*
X5438647Y5617718D01*
X5443220Y5604002D01*
X5447538Y5595112D01*
X5456681Y5585968D01*
X5465825Y5581395D01*
X5484113Y5581395D01*
X5493004Y5585968D01*
X5502147Y5595112D01*
X5506720Y5604002D01*
X5511291Y5617718D01*
X5511291Y5640578D01*
X5506720Y5654039D01*
X5502147Y5663184D01*
X5493004Y5672328D01*
X5484113Y5676900D01*
X5465825Y5676900D01*
X5573013Y5676900D02*
G01*
X5573013Y5581395D01*
X5541263Y5676900D02*
G01*
X5605018Y5676900D01*
X4051300Y5511797D02*
G01*
X4051300Y5416293D01*
X4051300Y5511797D02*
G01*
X4087622Y5416293D01*
X4123943Y5511797D02*
G01*
X4087622Y5416293D01*
X4123943Y5511797D02*
G01*
X4123943Y5416293D01*
X4153915Y5511797D02*
G01*
X4153915Y5416293D01*
X4153915Y5511797D02*
G01*
X4194809Y5511797D01*
X4208525Y5507225D01*
X4213097Y5502653D01*
X4217670Y5493509D01*
X4217670Y5484365D01*
X4213097Y5475475D01*
X4208525Y5470903D01*
X4194809Y5466331D01*
X4153915Y5466331D01*
X4185920Y5466331D02*
G01*
X4217670Y5416293D01*
X4317745Y5511797D02*
G01*
X4317745Y5416293D01*
X4347718Y5511797D02*
G01*
X4347718Y5416293D01*
X4347718Y5511797D02*
G01*
X4411218Y5416293D01*
X4411218Y5511797D02*
G01*
X4411218Y5416293D01*
X4441190Y5511797D02*
G01*
X4441190Y5416293D01*
X4441190Y5511797D02*
G01*
X4504943Y5416293D01*
X4504943Y5511797D02*
G01*
X4504943Y5416293D01*
X4562093Y5511797D02*
G01*
X4553204Y5507225D01*
X4544059Y5498081D01*
X4539488Y5488937D01*
X4534915Y5475475D01*
X4534915Y5452615D01*
X4539488Y5438899D01*
X4544059Y5430009D01*
X4553204Y5420865D01*
X4562093Y5416293D01*
X4580381Y5416293D01*
X4589525Y5420865D01*
X4598670Y5430009D01*
X4603241Y5438899D01*
X4607559Y5452615D01*
X4607559Y5475475D01*
X4603241Y5488937D01*
X4598670Y5498081D01*
X4589525Y5507225D01*
X4580381Y5511797D01*
X4562093Y5511797D01*
X4637786Y5511797D02*
G01*
X4674108Y5416293D01*
X4710429Y5511797D02*
G01*
X4674108Y5416293D01*
X4776724Y5511797D02*
G01*
X4740402Y5416293D01*
X4776724Y5511797D02*
G01*
X4813045Y5416293D01*
X4754118Y5448043D02*
G01*
X4799584Y5448043D01*
X4875022Y5511797D02*
G01*
X4875022Y5416293D01*
X4843018Y5511797D02*
G01*
X4906772Y5511797D01*
X4936743Y5511797D02*
G01*
X4936743Y5416293D01*
X4966715Y5511797D02*
G01*
X5003038Y5416293D01*
X5039359Y5511797D02*
G01*
X5003038Y5416293D01*
X5069586Y5511797D02*
G01*
X5069586Y5416293D01*
X5069586Y5511797D02*
G01*
X5128513Y5511797D01*
X5069586Y5466331D02*
G01*
X5105908Y5466331D01*
X5069586Y5416293D02*
G01*
X5128513Y5416293D01*
X3822700Y5118097D02*
G01*
X3822700Y5022593D01*
X3822700Y5118097D02*
G01*
X3881881Y5118097D01*
X3822700Y5072631D02*
G01*
X3859022Y5072631D01*
X3822700Y5022593D02*
G01*
X3881881Y5022593D01*
X3911854Y5118097D02*
G01*
X3911854Y5022593D01*
X3911854Y5118097D02*
G01*
X3975354Y5022593D01*
X3975354Y5118097D02*
G01*
X3975354Y5022593D01*
X3810000Y2971797D02*
G01*
X3810000Y2876293D01*
X3810000Y2971797D02*
G01*
X3869181Y2971797D01*
X3810000Y2926331D02*
G01*
X3846322Y2926331D01*
X3810000Y2876293D02*
G01*
X3869181Y2876293D01*
X3899154Y2971797D02*
G01*
X3899154Y2876293D01*
X3899154Y2971797D02*
G01*
X3962654Y2876293D01*
X3962654Y2971797D02*
G01*
X3962654Y2876293D01*
X851154Y659384D02*
G01*
X842010Y668528D01*
X828294Y673100D01*
X810005Y673100D01*
X796544Y668528D01*
X787400Y659384D01*
X787400Y650239D01*
X791971Y641095D01*
X796544Y636778D01*
X805687Y632205D01*
X832865Y623062D01*
X842010Y618489D01*
X846581Y613918D01*
X851154Y604773D01*
X851154Y591312D01*
X842010Y582168D01*
X828294Y577595D01*
X810005Y577595D01*
X796544Y582168D01*
X787400Y591312D01*
X881126Y673100D02*
G01*
X881126Y604773D01*
X885697Y591312D01*
X894587Y582168D01*
X908304Y577595D01*
X917447Y577595D01*
X930910Y582168D01*
X940054Y591312D01*
X944626Y604773D01*
X944626Y673100D01*
X974597Y673100D02*
G01*
X974597Y577595D01*
X974597Y673100D02*
G01*
X1015492Y673100D01*
X1029207Y668528D01*
X1033779Y663955D01*
X1038352Y654812D01*
X1038352Y641095D01*
X1033779Y632205D01*
X1029207Y627634D01*
X1015492Y623062D01*
X974597Y623062D01*
X1068323Y673100D02*
G01*
X1068323Y577595D01*
X1068323Y673100D02*
G01*
X1109218Y673100D01*
X1122934Y668528D01*
X1127505Y663955D01*
X1131823Y654812D01*
X1131823Y641095D01*
X1127505Y632205D01*
X1122934Y627634D01*
X1109218Y623062D01*
X1068323Y623062D01*
X1189228Y673100D02*
G01*
X1180084Y668528D01*
X1170939Y659384D01*
X1166368Y650239D01*
X1162050Y636778D01*
X1162050Y613918D01*
X1166368Y600202D01*
X1170939Y591312D01*
X1180084Y582168D01*
X1189228Y577595D01*
X1207515Y577595D01*
X1216405Y582168D01*
X1225550Y591312D01*
X1230121Y600202D01*
X1234694Y613918D01*
X1234694Y636778D01*
X1230121Y650239D01*
X1225550Y659384D01*
X1216405Y668528D01*
X1207515Y673100D01*
X1189228Y673100D01*
X1264665Y673100D02*
G01*
X1264665Y577595D01*
X1264665Y673100D02*
G01*
X1305560Y673100D01*
X1319276Y668528D01*
X1323847Y663955D01*
X1328420Y654812D01*
X1328420Y645668D01*
X1323847Y636778D01*
X1319276Y632205D01*
X1305560Y627634D01*
X1264665Y627634D01*
X1296415Y627634D02*
G01*
X1328420Y577595D01*
X1390142Y673100D02*
G01*
X1390142Y577595D01*
X1358392Y673100D02*
G01*
X1421892Y673100D01*
X787400Y377189D02*
G01*
X787400Y281686D01*
X787400Y377189D02*
G01*
X846581Y377189D01*
X787400Y331723D02*
G01*
X823721Y331723D01*
X876554Y377189D02*
G01*
X876554Y281686D01*
X906526Y377189D02*
G01*
X906526Y281686D01*
X906526Y377189D02*
G01*
X947420Y377189D01*
X961136Y372618D01*
X965707Y368045D01*
X970026Y358902D01*
X970026Y349757D01*
X965707Y340868D01*
X961136Y336295D01*
X947420Y331723D01*
X906526Y331723D01*
X938276Y331723D02*
G01*
X970026Y281686D01*
X1000252Y377189D02*
G01*
X1000252Y281686D01*
X1000252Y377189D02*
G01*
X1036573Y281686D01*
X1072895Y377189D02*
G01*
X1036573Y281686D01*
X1072895Y377189D02*
G01*
X1072895Y281686D01*
X1102868Y377189D02*
G01*
X1125473Y281686D01*
X1148334Y377189D02*
G01*
X1125473Y281686D01*
X1148334Y377189D02*
G01*
X1170939Y281686D01*
X1193800Y377189D02*
G01*
X1170939Y281686D01*
X1260094Y377189D02*
G01*
X1223771Y281686D01*
X1260094Y377189D02*
G01*
X1296415Y281686D01*
X1237487Y313436D02*
G01*
X1282954Y313436D01*
X1326387Y377189D02*
G01*
X1326387Y281686D01*
X1326387Y377189D02*
G01*
X1367281Y377189D01*
X1380997Y372618D01*
X1385570Y368045D01*
X1390142Y358902D01*
X1390142Y349757D01*
X1385570Y340868D01*
X1380997Y336295D01*
X1367281Y331723D01*
X1326387Y331723D01*
X1358392Y331723D02*
G01*
X1390142Y281686D01*
X1420113Y377189D02*
G01*
X1420113Y281686D01*
X1420113Y377189D02*
G01*
X1479295Y377189D01*
X1420113Y331723D02*
G01*
X1456436Y331723D01*
X1420113Y281686D02*
G01*
X1479295Y281686D01*
X787400Y529589D02*
G01*
X787400Y434086D01*
X787400Y529589D02*
G01*
X828294Y529589D01*
X842010Y525018D01*
X846581Y520445D01*
X851154Y511302D01*
X851154Y502157D01*
X846581Y493268D01*
X842010Y488695D01*
X828294Y484123D01*
X787400Y484123D02*
G01*
X828294Y484123D01*
X842010Y479552D01*
X846581Y474979D01*
X851154Y465836D01*
X851154Y452373D01*
X846581Y443229D01*
X842010Y438657D01*
X828294Y434086D01*
X787400Y434086D01*
X917447Y529589D02*
G01*
X881126Y434086D01*
X917447Y529589D02*
G01*
X953770Y434086D01*
X894587Y465836D02*
G01*
X940054Y465836D01*
X983742Y529589D02*
G01*
X983742Y434086D01*
X983742Y434086D02*
G01*
X1038352Y434086D01*
X1104645Y529589D02*
G01*
X1068323Y434086D01*
X1104645Y529589D02*
G01*
X1140968Y434086D01*
X1082039Y465836D02*
G01*
X1127505Y465836D01*
X1170939Y529589D02*
G01*
X1170939Y434086D01*
X1170939Y529589D02*
G01*
X1234694Y434086D01*
X1234694Y529589D02*
G01*
X1234694Y434086D01*
X1332737Y506729D02*
G01*
X1328420Y515873D01*
X1319276Y525018D01*
X1310131Y529589D01*
X1291844Y529589D01*
X1282954Y525018D01*
X1273810Y515873D01*
X1269237Y506729D01*
X1264665Y493268D01*
X1264665Y470407D01*
X1269237Y456692D01*
X1273810Y447802D01*
X1282954Y438657D01*
X1291844Y434086D01*
X1310131Y434086D01*
X1319276Y438657D01*
X1328420Y447802D01*
X1332737Y456692D01*
X1362963Y529589D02*
G01*
X1362963Y434086D01*
X1392936Y529589D02*
G01*
X1392936Y434086D01*
X1392936Y529589D02*
G01*
X1456436Y434086D01*
X1456436Y529589D02*
G01*
X1456436Y434086D01*
X1554734Y506729D02*
G01*
X1550162Y515873D01*
X1541018Y525018D01*
X1531873Y529589D01*
X1513839Y529589D01*
X1504695Y525018D01*
X1495552Y515873D01*
X1490979Y506729D01*
X1486407Y493268D01*
X1486407Y470407D01*
X1490979Y456692D01*
X1495552Y447802D01*
X1504695Y438657D01*
X1513839Y434086D01*
X1531873Y434086D01*
X1541018Y438657D01*
X1550162Y447802D01*
X1554734Y456692D01*
X1554734Y470407D01*
X1531873Y470407D02*
G01*
X1554734Y470407D01*
X1584705Y529589D02*
G01*
X1607312Y434086D01*
X1630171Y529589D02*
G01*
X1607312Y434086D01*
X1630171Y529589D02*
G01*
X1652778Y434086D01*
X1675637Y529589D02*
G01*
X1652778Y434086D01*
X1705610Y529589D02*
G01*
X1705610Y434086D01*
X1735581Y529589D02*
G01*
X1735581Y434086D01*
D11*
X4448553Y2946400D02*
G01*
X4406897Y2837434D01*
X4448553Y2946400D02*
G01*
X4489955Y2837434D01*
X4422391Y2873755D02*
G01*
X4474461Y2873755D01*
X4576315Y2946400D02*
G01*
X4524245Y2873755D01*
X4602223Y2873755D01*
X4576315Y2946400D02*
G01*
X4576315Y2837434D01*
X4704077Y2910078D02*
G01*
X4698997Y2894584D01*
X4688583Y2884170D01*
X4672835Y2879089D01*
X4667755Y2879089D01*
X4652007Y2884170D01*
X4641847Y2894584D01*
X4636513Y2910078D01*
X4636513Y2915412D01*
X4641847Y2930905D01*
X4652007Y2941320D01*
X4667755Y2946400D01*
X4672835Y2946400D01*
X4688583Y2941320D01*
X4698997Y2930905D01*
X4704077Y2910078D01*
X4704077Y2884170D01*
X4698997Y2858262D01*
X4688583Y2842513D01*
X4672835Y2837434D01*
X4662421Y2837434D01*
X4646927Y2842513D01*
X4641847Y2852928D01*
X4764275Y2946400D02*
G01*
X4748781Y2941320D01*
X4743447Y2930905D01*
X4743447Y2920492D01*
X4748781Y2910078D01*
X4759195Y2904997D01*
X4780023Y2899663D01*
X4795517Y2894584D01*
X4805931Y2884170D01*
X4811011Y2873755D01*
X4811011Y2858262D01*
X4805931Y2847847D01*
X4800597Y2842513D01*
X4785103Y2837434D01*
X4764275Y2837434D01*
X4748781Y2842513D01*
X4743447Y2847847D01*
X4738367Y2858262D01*
X4738367Y2873755D01*
X4743447Y2884170D01*
X4753861Y2894584D01*
X4769609Y2899663D01*
X4790437Y2904997D01*
X4800597Y2910078D01*
X4805931Y2920492D01*
X4805931Y2930905D01*
X4800597Y2941320D01*
X4785103Y2946400D01*
X4764275Y2946400D01*
X4871463Y2946400D02*
G01*
X4855715Y2941320D01*
X4850635Y2930905D01*
X4850635Y2920492D01*
X4855715Y2910078D01*
X4866129Y2904997D01*
X4886957Y2899663D01*
X4902451Y2894584D01*
X4912865Y2884170D01*
X4918199Y2873755D01*
X4918199Y2858262D01*
X4912865Y2847847D01*
X4907785Y2842513D01*
X4892037Y2837434D01*
X4871463Y2837434D01*
X4855715Y2842513D01*
X4850635Y2847847D01*
X4845301Y2858262D01*
X4845301Y2873755D01*
X4850635Y2884170D01*
X4861049Y2894584D01*
X4876543Y2899663D01*
X4897371Y2904997D01*
X4907785Y2910078D01*
X4912865Y2920492D01*
X4912865Y2930905D01*
X4907785Y2941320D01*
X4892037Y2946400D01*
X4871463Y2946400D01*
X4952489Y2884170D02*
G01*
X5045961Y2884170D01*
X5080251Y2946400D02*
G01*
X5080251Y2837434D01*
X5080251Y2946400D02*
G01*
X5126987Y2946400D01*
X5142481Y2941320D01*
X5147815Y2936239D01*
X5152895Y2925826D01*
X5152895Y2915412D01*
X5147815Y2904997D01*
X5142481Y2899663D01*
X5126987Y2894584D01*
X5080251Y2894584D02*
G01*
X5126987Y2894584D01*
X5142481Y2889250D01*
X5147815Y2884170D01*
X5152895Y2873755D01*
X5152895Y2858262D01*
X5147815Y2847847D01*
X5142481Y2842513D01*
X5126987Y2837434D01*
X5080251Y2837434D01*
X4499356Y5058412D02*
G01*
X4457700Y4949446D01*
X4499356Y5058412D02*
G01*
X4540758Y4949446D01*
X4473193Y4985768D02*
G01*
X4525263Y4985768D01*
X4627118Y5058412D02*
G01*
X4575047Y4985768D01*
X4653025Y4985768D01*
X4627118Y5058412D02*
G01*
X4627118Y4949446D01*
X4754879Y5022090D02*
G01*
X4749800Y5006596D01*
X4739386Y4996182D01*
X4723638Y4991102D01*
X4718558Y4991102D01*
X4702809Y4996182D01*
X4692650Y5006596D01*
X4687315Y5022090D01*
X4687315Y5027424D01*
X4692650Y5042918D01*
X4702809Y5053332D01*
X4718558Y5058412D01*
X4723638Y5058412D01*
X4739386Y5053332D01*
X4749800Y5042918D01*
X4754879Y5022090D01*
X4754879Y4996182D01*
X4749800Y4970274D01*
X4739386Y4954526D01*
X4723638Y4949446D01*
X4713224Y4949446D01*
X4697729Y4954526D01*
X4692650Y4964940D01*
X4815077Y5058412D02*
G01*
X4799584Y5053332D01*
X4794250Y5042918D01*
X4794250Y5032504D01*
X4799584Y5022090D01*
X4809997Y5017010D01*
X4830825Y5011676D01*
X4846320Y5006596D01*
X4856734Y4996182D01*
X4861813Y4985768D01*
X4861813Y4970274D01*
X4856734Y4959860D01*
X4851400Y4954526D01*
X4835906Y4949446D01*
X4815077Y4949446D01*
X4799584Y4954526D01*
X4794250Y4959860D01*
X4789170Y4970274D01*
X4789170Y4985768D01*
X4794250Y4996182D01*
X4804663Y5006596D01*
X4820411Y5011676D01*
X4841240Y5017010D01*
X4851400Y5022090D01*
X4856734Y5032504D01*
X4856734Y5042918D01*
X4851400Y5053332D01*
X4835906Y5058412D01*
X4815077Y5058412D01*
X4922265Y5058412D02*
G01*
X4906518Y5053332D01*
X4901438Y5042918D01*
X4901438Y5032504D01*
X4906518Y5022090D01*
X4916931Y5017010D01*
X4937759Y5011676D01*
X4953254Y5006596D01*
X4963668Y4996182D01*
X4969002Y4985768D01*
X4969002Y4970274D01*
X4963668Y4959860D01*
X4958588Y4954526D01*
X4942840Y4949446D01*
X4922265Y4949446D01*
X4906518Y4954526D01*
X4901438Y4959860D01*
X4896104Y4970274D01*
X4896104Y4985768D01*
X4901438Y4996182D01*
X4911852Y5006596D01*
X4927345Y5011676D01*
X4948174Y5017010D01*
X4958588Y5022090D01*
X4963668Y5032504D01*
X4963668Y5042918D01*
X4958588Y5053332D01*
X4942840Y5058412D01*
X4922265Y5058412D01*
X5003291Y4996182D02*
G01*
X5096763Y4996182D01*
X5172709Y5058412D02*
G01*
X5131054Y4949446D01*
X5172709Y5058412D02*
G01*
X5214111Y4949446D01*
X5146547Y4985768D02*
G01*
X5198618Y4985768D01*
X6451605Y1642107D02*
G01*
X6560571Y1642107D01*
X6451605Y1642107D02*
G01*
X6560571Y1683763D01*
X6451605Y1725165D02*
G01*
X6560571Y1683763D01*
X6451605Y1725165D02*
G01*
X6560571Y1725165D01*
X6451605Y1790697D02*
G01*
X6456685Y1780283D01*
X6467099Y1769869D01*
X6477513Y1764789D01*
X6493007Y1759455D01*
X6518915Y1759455D01*
X6534663Y1764789D01*
X6545077Y1769869D01*
X6555491Y1780283D01*
X6560571Y1790697D01*
X6560571Y1811525D01*
X6555491Y1821939D01*
X6545077Y1832353D01*
X6534663Y1837433D01*
X6518915Y1842767D01*
X6493007Y1842767D01*
X6477513Y1837433D01*
X6467099Y1832353D01*
X6456685Y1821939D01*
X6451605Y1811525D01*
X6451605Y1790697D01*
X6451605Y1913379D02*
G01*
X6560571Y1913379D01*
X6451605Y1877057D02*
G01*
X6451605Y1949701D01*
X6513835Y1983991D02*
G01*
X6513835Y2077463D01*
X6451605Y2111753D02*
G01*
X6560571Y2111753D01*
X6451605Y2111753D02*
G01*
X6451605Y2158489D01*
X6456685Y2174237D01*
X6461765Y2179317D01*
X6472179Y2184397D01*
X6482593Y2184397D01*
X6493007Y2179317D01*
X6498341Y2174237D01*
X6503421Y2158489D01*
X6503421Y2111753D02*
G01*
X6503421Y2158489D01*
X6508755Y2174237D01*
X6513835Y2179317D01*
X6524249Y2184397D01*
X6539743Y2184397D01*
X6550157Y2179317D01*
X6555491Y2174237D01*
X6560571Y2158489D01*
X6560571Y2111753D01*
X6023102Y1625600D02*
G01*
X6025388Y1621028D01*
X6032245Y1614170D01*
X5983731Y1614170D01*
X6451602Y4082795D02*
G01*
X6560568Y4082795D01*
X6451602Y4082795D02*
G01*
X6560568Y4124452D01*
X6451602Y4165854D02*
G01*
X6560568Y4124452D01*
X6451602Y4165854D02*
G01*
X6560568Y4165854D01*
X6451602Y4231386D02*
G01*
X6456682Y4220971D01*
X6467096Y4210557D01*
X6477510Y4205478D01*
X6493004Y4200144D01*
X6518912Y4200144D01*
X6534660Y4205478D01*
X6545074Y4210557D01*
X6555488Y4220971D01*
X6560568Y4231386D01*
X6560568Y4252213D01*
X6555488Y4262628D01*
X6545074Y4273042D01*
X6534660Y4278121D01*
X6518912Y4283455D01*
X6493004Y4283455D01*
X6477510Y4278121D01*
X6467096Y4273042D01*
X6456682Y4262628D01*
X6451602Y4252213D01*
X6451602Y4231386D01*
X6451602Y4354068D02*
G01*
X6560568Y4354068D01*
X6451602Y4317745D02*
G01*
X6451602Y4390389D01*
X6513832Y4424679D02*
G01*
X6513832Y4518152D01*
X6451602Y4594097D02*
G01*
X6560568Y4552442D01*
X6451602Y4594097D02*
G01*
X6560568Y4635500D01*
X6524246Y4567936D02*
G01*
X6524246Y4620005D01*
X6023102Y4051300D02*
G01*
X6025388Y4046728D01*
X6032245Y4039870D01*
X5983731Y4039870D01*
X2596134Y4038600D02*
G01*
X2705100Y4038600D01*
X2596134Y4038600D02*
G01*
X2596134Y4074921D01*
X2601213Y4090670D01*
X2611627Y4100829D01*
X2622041Y4106163D01*
X2637536Y4111244D01*
X2663443Y4111244D01*
X2679191Y4106163D01*
X2689606Y4100829D01*
X2700020Y4090670D01*
X2705100Y4074921D01*
X2705100Y4038600D01*
X2616708Y4145534D02*
G01*
X2611627Y4155947D01*
X2596134Y4171695D01*
X2705100Y4171695D01*
X2858770Y1422400D02*
G01*
X2858770Y1339342D01*
X2853436Y1323847D01*
X2848356Y1318513D01*
X2837941Y1313434D01*
X2827527Y1313434D01*
X2817113Y1318513D01*
X2811779Y1323847D01*
X2806700Y1339342D01*
X2806700Y1349755D01*
X2893059Y1401826D02*
G01*
X2903220Y1406905D01*
X2918968Y1422400D01*
X2918968Y1313434D01*
X2596134Y2679700D02*
G01*
X2705100Y2679700D01*
X2596134Y2679700D02*
G01*
X2596134Y2716021D01*
X2601213Y2731770D01*
X2611627Y2741929D01*
X2622041Y2747263D01*
X2637536Y2752344D01*
X2663443Y2752344D01*
X2679191Y2747263D01*
X2689606Y2741929D01*
X2700020Y2731770D01*
X2705100Y2716021D01*
X2705100Y2679700D01*
X2622041Y2791968D02*
G01*
X2616708Y2791968D01*
X2606293Y2797047D01*
X2601213Y2802381D01*
X2596134Y2812795D01*
X2596134Y2833370D01*
X2601213Y2843784D01*
X2606293Y2849118D01*
X2616708Y2854197D01*
X2627122Y2854197D01*
X2637536Y2849118D01*
X2653284Y2838704D01*
X2705100Y2786634D01*
X2705100Y2859531D01*
X2057402Y609597D02*
G01*
X2057402Y500631D01*
X2130046Y609597D02*
G01*
X2130046Y500631D01*
X2057402Y557781D02*
G01*
X2130046Y557781D01*
X2242314Y583689D02*
G01*
X2237234Y594103D01*
X2226820Y604517D01*
X2216406Y609597D01*
X2195578Y609597D01*
X2185164Y604517D01*
X2174750Y594103D01*
X2169670Y583689D01*
X2164336Y568195D01*
X2164336Y542287D01*
X2169670Y526539D01*
X2174750Y516125D01*
X2185164Y505711D01*
X2195578Y500631D01*
X2216406Y500631D01*
X2226820Y505711D01*
X2237234Y516125D01*
X2242314Y526539D01*
X2276604Y547367D02*
G01*
X2370076Y547367D01*
X2435608Y609597D02*
G01*
X2420114Y604517D01*
X2409700Y589023D01*
X2404366Y562861D01*
X2404366Y547367D01*
X2409700Y521459D01*
X2420114Y505711D01*
X2435608Y500631D01*
X2446022Y500631D01*
X2461516Y505711D01*
X2471930Y521459D01*
X2477264Y547367D01*
X2477264Y562861D01*
X2471930Y589023D01*
X2461516Y604517D01*
X2446022Y609597D01*
X2435608Y609597D01*
X2573784Y609597D02*
G01*
X2521968Y609597D01*
X2516634Y562861D01*
X2521968Y568195D01*
X2537462Y573275D01*
X2552956Y573275D01*
X2568704Y568195D01*
X2579118Y557781D01*
X2584198Y542287D01*
X2584198Y531873D01*
X2579118Y516125D01*
X2568704Y505711D01*
X2552956Y500631D01*
X2537462Y500631D01*
X2521968Y505711D01*
X2516634Y511045D01*
X2511554Y521459D01*
X3251200Y863600D02*
G01*
X3117850Y812800D01*
X3251200Y762000D02*
G01*
X3117850Y812800D01*
X3219450Y624839D02*
G01*
X3232150Y631189D01*
X3244850Y643889D01*
X3251200Y656589D01*
X3251200Y681989D01*
X3244850Y694689D01*
X3232150Y707389D01*
X3219450Y713739D01*
X3200400Y720089D01*
X3168650Y720089D01*
X3149600Y713739D01*
X3136900Y707389D01*
X3124200Y694689D01*
X3117850Y681989D01*
X3117850Y656589D01*
X3124200Y643889D01*
X3136900Y631189D01*
X3149600Y624839D01*
X3219450Y487679D02*
G01*
X3232150Y494029D01*
X3244850Y506729D01*
X3251200Y519429D01*
X3251200Y544829D01*
X3244850Y557529D01*
X3232150Y570229D01*
X3219450Y576579D01*
X3200400Y582929D01*
X3168650Y582929D01*
X3149600Y576579D01*
X3136900Y570229D01*
X3124200Y557529D01*
X3117850Y544829D01*
X3117850Y519429D01*
X3124200Y506729D01*
X3136900Y494029D01*
X3149600Y487679D01*
X2965450Y742950D02*
G01*
X2978150Y749300D01*
X2990850Y762000D01*
X2997200Y774700D01*
X2997200Y800100D01*
X2990850Y812800D01*
X2978150Y825500D01*
X2965450Y831850D01*
X2946400Y838200D01*
X2914650Y838200D01*
X2895600Y831850D01*
X2882900Y825500D01*
X2870200Y812800D01*
X2863850Y800100D01*
X2863850Y774700D01*
X2870200Y762000D01*
X2882900Y749300D01*
X2895600Y742950D01*
X2914650Y742950D01*
X2914650Y774700D02*
G01*
X2914650Y742950D01*
X2997200Y701039D02*
G01*
X2863850Y701039D01*
X2997200Y701039D02*
G01*
X2863850Y612139D01*
X2997200Y612139D02*
G01*
X2863850Y612139D01*
X2997200Y570229D02*
G01*
X2863850Y570229D01*
X2997200Y570229D02*
G01*
X2997200Y525779D01*
X2990850Y506729D01*
X2978150Y494029D01*
X2965450Y487679D01*
X2946400Y481329D01*
X2914650Y481329D01*
X2895600Y487679D01*
X2882900Y494029D01*
X2870200Y506729D01*
X2863850Y525779D01*
X2863850Y570229D01*
X4610100Y444502D02*
G01*
X4610100Y335536D01*
X4610100Y444502D02*
G01*
X4656836Y444502D01*
X4672329Y439422D01*
X4677663Y434342D01*
X4682743Y423928D01*
X4682743Y413514D01*
X4677663Y403100D01*
X4672329Y397766D01*
X4656836Y392686D01*
X4610100Y392686D01*
X4646422Y392686D02*
G01*
X4682743Y335536D01*
X4717034Y423928D02*
G01*
X4727447Y429008D01*
X4743195Y444502D01*
X4743195Y335536D01*
X4777486Y299214D02*
G01*
X4870958Y299214D01*
X4905247Y423928D02*
G01*
X4915661Y429008D01*
X4931156Y444502D01*
X4931156Y335536D01*
X4965445Y444502D02*
G01*
X4965445Y335536D01*
X5038090Y444502D02*
G01*
X4965445Y371858D01*
X4991354Y397766D02*
G01*
X5038090Y335536D01*
X4610100Y854707D02*
G01*
X4610100Y745741D01*
X4610100Y854707D02*
G01*
X4656836Y854707D01*
X4672329Y849627D01*
X4677663Y844547D01*
X4682743Y834133D01*
X4682743Y823719D01*
X4677663Y813305D01*
X4672329Y807971D01*
X4656836Y802891D01*
X4610100Y802891D01*
X4646422Y802891D02*
G01*
X4682743Y745741D01*
X4727447Y854707D02*
G01*
X4784597Y854707D01*
X4753609Y813305D01*
X4769104Y813305D01*
X4779518Y807971D01*
X4784597Y802891D01*
X4789931Y787397D01*
X4789931Y776983D01*
X4784597Y761235D01*
X4774184Y750821D01*
X4758690Y745741D01*
X4743195Y745741D01*
X4727447Y750821D01*
X4722368Y756155D01*
X4717034Y766569D01*
X4824222Y709419D02*
G01*
X4917693Y709419D01*
X4951984Y834133D02*
G01*
X4962397Y839213D01*
X4977891Y854707D01*
X4977891Y745741D01*
X5012181Y854707D02*
G01*
X5012181Y745741D01*
X5085079Y854707D02*
G01*
X5012181Y782063D01*
X5038090Y807971D02*
G01*
X5085079Y745741D01*
X722376Y4217415D02*
G01*
X722376Y4108450D01*
X686054Y4217415D02*
G01*
X758952Y4217415D01*
X793242Y4217415D02*
G01*
X793242Y4108450D01*
X793242Y4217415D02*
G01*
X839978Y4217415D01*
X855471Y4212336D01*
X860552Y4207255D01*
X865886Y4196842D01*
X865886Y4186428D01*
X860552Y4176013D01*
X855471Y4170679D01*
X839978Y4165600D01*
X793242Y4165600D02*
G01*
X839978Y4165600D01*
X855471Y4160265D01*
X860552Y4155186D01*
X865886Y4144771D01*
X865886Y4129278D01*
X860552Y4118863D01*
X855471Y4113529D01*
X839978Y4108450D01*
X793242Y4108450D01*
D12*
X1050800Y3149600D02*
G01*
X1006350Y3216402D01*
X1006350Y3149600D02*
G01*
X1050800Y3216402D01*
X962916Y3149600D02*
G01*
X962916Y3216402D01*
X985268Y3149600D02*
G01*
X940818Y3149600D01*
X881636Y3158997D02*
G01*
X884684Y3152647D01*
X894336Y3149600D01*
X900686Y3149600D01*
X910084Y3152647D01*
X916434Y3162300D01*
X919736Y3178047D01*
X919736Y3194050D01*
X916434Y3206750D01*
X910084Y3213100D01*
X900686Y3216402D01*
X897384Y3216402D01*
X887986Y3213100D01*
X881636Y3206750D01*
X878334Y3197352D01*
X878334Y3194050D01*
X881636Y3184397D01*
X887986Y3178047D01*
X897384Y3175000D01*
X900686Y3175000D01*
X910084Y3178047D01*
X916434Y3184397D01*
X919736Y3194050D01*
X838202Y3149600D02*
G01*
X847854Y3152647D01*
X854204Y3162300D01*
X857252Y3178047D01*
X857252Y3187700D01*
X854204Y3203702D01*
X847854Y3213100D01*
X838202Y3216402D01*
X831852Y3216402D01*
X822454Y3213100D01*
X816104Y3203702D01*
X812802Y3187700D01*
X812802Y3178047D01*
X816104Y3162300D01*
X822454Y3152647D01*
X831852Y3149600D01*
X838202Y3149600D01*
D11*
X566673Y4253484D02*
G01*
X561594Y4263897D01*
X546100Y4279392D01*
X655065Y4279392D01*
X572007Y4319015D02*
G01*
X566673Y4319015D01*
X556260Y4324095D01*
X551179Y4329429D01*
X546100Y4339844D01*
X546100Y4360418D01*
X551179Y4370831D01*
X556260Y4376165D01*
X566673Y4381245D01*
X577087Y4381245D01*
X587502Y4376165D01*
X603250Y4365752D01*
X655065Y4313681D01*
X655065Y4386579D01*
X546100Y4420870D02*
G01*
X655065Y4462271D01*
X546100Y4503928D02*
G01*
X655065Y4462271D01*
X546100Y4538218D02*
G01*
X655065Y4538218D01*
X546100Y4538218D02*
G01*
X546100Y4574539D01*
X551179Y4590034D01*
X561594Y4600447D01*
X572007Y4605781D01*
X587502Y4610862D01*
X613410Y4610862D01*
X629157Y4605781D01*
X639571Y4600447D01*
X649986Y4590034D01*
X655065Y4574539D01*
X655065Y4538218D01*
X572007Y4723129D02*
G01*
X561594Y4718050D01*
X551179Y4707636D01*
X546100Y4697221D01*
X546100Y4676394D01*
X551179Y4665979D01*
X561594Y4655565D01*
X572007Y4650486D01*
X587502Y4645152D01*
X613410Y4645152D01*
X629157Y4650486D01*
X639571Y4655565D01*
X649986Y4665979D01*
X655065Y4676394D01*
X655065Y4697221D01*
X649986Y4707636D01*
X639571Y4718050D01*
X629157Y4723129D01*
D13*
X3314700Y5477510D02*
G01*
X3314700Y5368544D01*
X3314700Y5477510D02*
G01*
X3387343Y5368544D01*
X3387343Y5477510D02*
G01*
X3387343Y5368544D01*
X3463290Y5477510D02*
G01*
X3421634Y5368544D01*
X3463290Y5477510D02*
G01*
X3504945Y5368544D01*
X3437381Y5404865D02*
G01*
X3489197Y5404865D01*
X3539236Y5477510D02*
G01*
X3539236Y5368544D01*
X3539236Y5477510D02*
G01*
X3611879Y5368544D01*
X3611879Y5477510D02*
G01*
X3611879Y5368544D01*
X3677411Y5477510D02*
G01*
X3666997Y5472429D01*
X3656584Y5462015D01*
X3651250Y5451602D01*
X3646170Y5436107D01*
X3646170Y5410200D01*
X3651250Y5394452D01*
X3656584Y5384037D01*
X3666997Y5373623D01*
X3677411Y5368544D01*
X3698240Y5368544D01*
X3708400Y5373623D01*
X3718813Y5384037D01*
X3724147Y5394452D01*
X3729227Y5410200D01*
X3729227Y5436107D01*
X3724147Y5451602D01*
X3718813Y5462015D01*
X3708400Y5472429D01*
X3698240Y5477510D01*
X3677411Y5477510D01*
D14*
X1677796Y914400D02*
G01*
X177800Y914400D01*
X1676400Y914400D02*
G01*
X1676400Y2914395D01*
X177800Y914400D02*
G01*
X177800Y2914395D01*
X1676527Y2921000D02*
G01*
X176529Y2921000D01*
D15*
X4279900Y1003045D02*
G01*
X4279900Y3060954D01*
X5295900Y1270000D02*
G01*
X5562854Y1270000D01*
X5562854Y3060954D01*
X4012945Y3060954D01*
X4012945Y1003045D01*
X5295900Y1003045D01*
X5295900Y1270000D01*
X5295900Y3060954D01*
X5422900Y1003045D02*
G01*
X5562854Y1003045D01*
X5562854Y1143000D01*
X4279900Y3149345D02*
G01*
X4279900Y5207254D01*
X5295900Y3416300D02*
G01*
X5562854Y3416300D01*
X5562854Y5207254D01*
X4012945Y5207254D01*
X4012945Y3149345D01*
X5295900Y3149345D01*
X5295900Y3416300D01*
X5295900Y5207254D01*
X5422900Y3149345D02*
G01*
X5562854Y3149345D01*
X5562854Y3289300D01*
D14*
X6405879Y2400300D02*
G01*
X6405879Y1414779D01*
X6405879Y1414779D02*
G01*
X5956300Y1414779D01*
X5956300Y1414779D02*
G01*
X5956300Y2400300D01*
X5956300Y2400300D02*
G01*
X6405879Y2400300D01*
X6405879Y4826000D02*
G01*
X6405879Y3840479D01*
X6405879Y3840479D02*
G01*
X5956300Y3840479D01*
X5956300Y3840479D02*
G01*
X5956300Y4826000D01*
X5956300Y4826000D02*
G01*
X6405879Y4826000D01*
X2730500Y4356100D02*
G01*
X2730500Y4229100D01*
X2730500Y4229100D02*
G01*
X2730500Y3721100D01*
X2730500Y3721100D02*
G01*
X2857500Y3721100D01*
X2857500Y3721100D02*
G01*
X2984500Y3721100D01*
X2984500Y3721100D02*
G01*
X2984500Y4229100D01*
X2984500Y4229100D02*
G01*
X2984500Y4356100D01*
X2984500Y4356100D02*
G01*
X2857500Y4356100D01*
X2857500Y4356100D02*
G01*
X2730500Y4356100D01*
X2730500Y4229100D02*
G01*
X2984500Y4229100D01*
X2857500Y3721100D02*
G01*
X2857500Y3657600D01*
X2857500Y4356100D02*
G01*
X2857500Y4419600D01*
D10*
X4749800Y2425700D02*
G01*
X4749800Y2616200D01*
X4495800Y2616200D01*
X4495800Y1854200D01*
X4749800Y1854200D01*
D16*
X4749800Y1854200D02*
G01*
X4749800Y2425700D01*
D10*
X4787900Y4470400D02*
G01*
X4787900Y4660900D01*
X4533900Y4660900D01*
X4533900Y3898900D01*
X4787900Y3898900D01*
D16*
X4787900Y3898900D02*
G01*
X4787900Y4470400D01*
D10*
X5041900Y4470400D02*
G01*
X5041900Y4660900D01*
X4787900Y4660900D01*
X4787900Y3898900D01*
X5041900Y3898900D01*
D16*
X5041900Y3898900D02*
G01*
X5041900Y4470400D01*
D10*
X4749800Y2044700D02*
G01*
X4749800Y1854200D01*
X5003800Y1854200D01*
X5003800Y2616200D01*
X4749800Y2616200D01*
D16*
X4749800Y2616200D02*
G01*
X4749800Y2044700D01*
D10*
X3111500Y1778000D02*
G01*
X3111500Y1526539D01*
X2603500Y1526539D01*
X2603500Y1778000D01*
X3111500Y1778000D01*
D14*
X2730500Y2997200D02*
G01*
X2730500Y2870200D01*
X2730500Y2870200D02*
G01*
X2730500Y2362200D01*
X2730500Y2362200D02*
G01*
X2857500Y2362200D01*
X2857500Y2362200D02*
G01*
X2984500Y2362200D01*
X2984500Y2362200D02*
G01*
X2984500Y2870200D01*
X2984500Y2870200D02*
G01*
X2984500Y2997200D01*
X2984500Y2997200D02*
G01*
X2857500Y2997200D01*
X2857500Y2997200D02*
G01*
X2730500Y2997200D01*
X2730500Y2870200D02*
G01*
X2984500Y2870200D01*
X2857500Y2362200D02*
G01*
X2857500Y2298700D01*
X2857500Y2997200D02*
G01*
X2857500Y3060700D01*
X3581400Y152400D02*
G01*
X2032000Y152400D01*
X2032000Y406400D01*
X3606800Y406400D01*
X3606800Y152400D01*
X3581400Y152400D01*
X4565650Y330200D02*
G01*
X5073650Y330200D01*
X5073650Y330200D02*
G01*
X5073650Y254000D01*
X5073650Y254000D02*
G01*
X5073650Y177800D01*
X5073650Y177800D02*
G01*
X4565650Y177800D01*
X4565650Y177800D02*
G01*
X4565650Y254000D01*
X4565650Y254000D02*
G01*
X4565650Y330200D01*
X5073650Y254000D02*
G01*
X5099050Y254000D01*
X4565650Y254000D02*
G01*
X4540250Y254000D01*
X4565650Y660400D02*
G01*
X5073650Y660400D01*
X5073650Y660400D02*
G01*
X5073650Y584200D01*
X5073650Y584200D02*
G01*
X5073650Y508000D01*
X5073650Y508000D02*
G01*
X4565650Y508000D01*
X4565650Y508000D02*
G01*
X4565650Y584200D01*
X4565650Y584200D02*
G01*
X4565650Y660400D01*
X5073650Y584200D02*
G01*
X5099050Y584200D01*
X4565650Y584200D02*
G01*
X4540250Y584200D01*
X1552498Y3062503D02*
G01*
X152501Y3062503D01*
X152501Y3062503D02*
G01*
X152501Y3922496D01*
X152501Y3922496D02*
G01*
X1552498Y3922496D01*
X1552498Y3922496D02*
G01*
X1752498Y3642512D01*
X1752498Y3642512D02*
G01*
X1752498Y3342512D01*
X1552498Y3062503D02*
G01*
X1752498Y3342512D01*
X1459229Y4033502D02*
G01*
X1459229Y5017515D01*
X829055Y4033502D02*
G01*
X829055Y5016500D01*
X1460797Y5015801D02*
G01*
X834687Y5015801D01*
X835660Y5016271D01*
X1457452Y4033502D02*
G01*
X826262Y4033502D01*
D10*
X1206500Y5372100D02*
G01*
X1016000Y5372100D01*
X1016000Y5118100D01*
X1778000Y5118100D01*
X1778000Y5372100D01*
D16*
X1778000Y5372100D02*
G01*
X1206500Y5372100D01*
D14*
X3721100Y5255895D02*
G01*
X1943100Y5255895D01*
X1943100Y5255895D02*
G01*
X1943100Y937895D01*
X1943100Y937895D02*
G01*
X3721100Y937895D01*
X3721100Y937895D02*
G01*
X3721100Y5255895D01*
X3213100Y4874895D02*
G01*
X3213100Y5636895D01*
X2451100Y5636895D01*
X2451100Y4874895D01*
X3213100Y4874895D01*
M02*
