G04 Layer: BottomSolderMaskLayer*
G04 EasyEDA v6.5.38, 2023-12-09 00:29:23*
G04 cc5c81a3f0414725bc0bd174f0517b54,10*
G04 Gerber Generator version 0.2*
G04 Scale: 100 percent, Rotated: No, Reflected: No *
G04 Dimensions in millimeters *
G04 leading zeros omitted , absolute positions ,4 integer and 5 decimal *
%FSLAX45Y45*%
%MOMM*%

%AMMACRO1*1,1,$1,$2,$3*1,1,$1,$4,$5*1,1,$1,0-$2,0-$3*1,1,$1,0-$4,0-$5*20,1,$1,$2,$3,$4,$5,0*20,1,$1,$4,$5,0-$2,0-$3,0*20,1,$1,0-$2,0-$3,0-$4,0-$5,0*20,1,$1,0-$4,0-$5,$2,$3,0*4,1,4,$2,$3,$4,$5,0-$2,0-$3,0-$4,0-$5,$2,$3,0*%
%ADD10MACRO1,0.2032X0.8X-0.8X-0.8X-0.8*%
%ADD11C,1.8032*%
%ADD12MACRO1,0.2032X-1.0795X0.5994X1.0795X0.5994*%
%ADD13C,2.1844*%
%ADD14C,1.7780*%
%ADD15MACRO1,0.2032X0.7874X0.7874X0.7874X-0.7874*%
%ADD16R,1.7780X1.7780*%
%ADD17C,1.7272*%
%ADD18C,2.0828*%
%ADD19C,5.7023*%
%ADD20O,4.2031920000000005X3.2031940000000003*%
%ADD21MACRO1,0.2032X2X1.4999X2X-1.4999*%
%ADD22MACRO1,0.2032X-0.7874X0.7874X0.7874X0.7874*%
%ADD23C,1.9812*%
%ADD24R,1.9812X1.9812*%
%ADD25MACRO1,0.2032X0.6033X0.6033X0.6033X-0.6033*%
%ADD26C,1.4097*%

%LPD*%
D10*
G01*
X5422900Y1143000D03*
D11*
G01*
X4152900Y2921000D03*
G01*
X5422900Y1397000D03*
G01*
X4152900Y2667000D03*
G01*
X5422900Y1651000D03*
G01*
X4152900Y2413000D03*
G01*
X5422900Y1905000D03*
G01*
X4152900Y2159000D03*
G01*
X5422900Y2159000D03*
G01*
X4152900Y1905000D03*
G01*
X5422900Y2413000D03*
G01*
X4152900Y1651000D03*
G01*
X5422900Y2667000D03*
G01*
X4152900Y1397000D03*
G01*
X5422900Y2921000D03*
G01*
X4152900Y1143000D03*
D10*
G01*
X5422900Y3289300D03*
D11*
G01*
X4152900Y5067300D03*
G01*
X5422900Y3543300D03*
G01*
X4152900Y4813300D03*
G01*
X5422900Y3797300D03*
G01*
X4152900Y4559300D03*
G01*
X5422900Y4051300D03*
G01*
X4152900Y4305300D03*
G01*
X5422900Y4305300D03*
G01*
X4152900Y4051300D03*
G01*
X5422900Y4559300D03*
G01*
X4152900Y3797300D03*
G01*
X5422900Y4813300D03*
G01*
X4152900Y3543300D03*
G01*
X5422900Y5067300D03*
G01*
X4152900Y3289300D03*
D12*
G01*
X6172200Y2204719D03*
G01*
X6172200Y2004060D03*
G01*
X6172200Y1803400D03*
G01*
X6172200Y1605280D03*
G01*
X6172200Y4630419D03*
G01*
X6172200Y4429760D03*
G01*
X6172200Y4229100D03*
G01*
X6172200Y4030980D03*
D13*
G01*
X2857500Y3530600D03*
G01*
X2857500Y4546600D03*
D14*
G01*
X4622800Y1981200D03*
G01*
X4622800Y2235200D03*
D15*
G01*
X4622800Y2489200D03*
D14*
G01*
X4660900Y4025900D03*
G01*
X4660900Y4279900D03*
D15*
G01*
X4660900Y4533900D03*
D14*
G01*
X4914900Y4025900D03*
G01*
X4914900Y4279900D03*
D15*
G01*
X4914900Y4533900D03*
D14*
G01*
X4876800Y2489200D03*
G01*
X4876800Y2235200D03*
D16*
G01*
X4876800Y1981200D03*
D15*
G01*
X2730500Y1651000D03*
D14*
G01*
X2984500Y1651000D03*
D13*
G01*
X2857500Y2171700D03*
G01*
X2857500Y3187700D03*
D17*
G01*
X3454400Y279400D03*
G01*
X3200400Y279400D03*
G01*
X2946400Y279400D03*
G01*
X2692400Y279400D03*
G01*
X2438400Y279400D03*
G01*
X2184400Y279400D03*
D18*
G01*
X4438650Y254000D03*
G01*
X5200650Y254000D03*
G01*
X4438650Y584200D03*
G01*
X5200650Y584200D03*
D19*
G01*
X1312494Y3492500D03*
G01*
X592505Y3492500D03*
D20*
G01*
X1219200Y4254500D03*
D21*
G01*
X1219200Y4762500D03*
D14*
G01*
X1651000Y5245100D03*
G01*
X1397000Y5245100D03*
D22*
G01*
X1143000Y5245100D03*
D23*
G01*
X2070100Y4874895D03*
G01*
X2070100Y4620895D03*
G01*
X2070100Y4366895D03*
G01*
X2070100Y4112895D03*
G01*
X2070100Y3858895D03*
G01*
X2070100Y3604895D03*
G01*
X2070100Y3350895D03*
G01*
X2070100Y3096895D03*
G01*
X2070100Y2842895D03*
G01*
X2070100Y2588895D03*
G01*
X2070100Y2334895D03*
G01*
X2070100Y2080895D03*
G01*
X2070100Y1826895D03*
G01*
X2070100Y1572895D03*
G01*
X2070100Y1318895D03*
G01*
X3594100Y4874895D03*
G01*
X3594100Y4620895D03*
G01*
X3594100Y4366895D03*
G01*
X3594100Y4112895D03*
G01*
X3594100Y3858895D03*
G01*
X3594100Y3604895D03*
G01*
X3594100Y3350895D03*
G01*
X3594100Y3096895D03*
G01*
X3594100Y2842895D03*
G01*
X3594100Y2588895D03*
G01*
X3594100Y2334895D03*
G01*
X3594100Y2080895D03*
G01*
X3594100Y1826895D03*
G01*
X3594100Y1572895D03*
D24*
G01*
X3594100Y1318895D03*
D25*
G01*
X304800Y2794000D03*
D26*
G01*
X304800Y2540000D03*
G01*
X304800Y2286000D03*
G01*
X304800Y2032000D03*
G01*
X304800Y1778000D03*
G01*
X304800Y1524000D03*
G01*
X304800Y1270000D03*
G01*
X304800Y1016000D03*
M02*
